<?xml version="1.0" encoding="iso-8859-1"?>
<!-- Generator: Adobe Illustrator 18.1.1, SVG Export Plug-In . SVG Version: 6.00 Build 0)  -->
<!DOCTYPE svg PUBLIC "-//W3C//DTD SVG 1.1//EN" "http://www.w3.org/Graphics/SVG/1.1/DTD/svg11.dtd">
<svg version="1.1" id="Layer_1" xmlns="http://www.w3.org/2000/svg" xmlns:xlink="http://www.w3.org/1999/xlink" x="0px" y="0px"
	 viewBox="0 0 1340 874" enable-background="new 0 0 1340 874" xml:space="preserve">
<rect fill="#002B49" width="1340" height="874"/>
<g>
	<defs>
		<rect id="SVGID_1_" width="1340" height="874"/>
	</defs>
	<clipPath id="SVGID_2_">
		<use xlink:href="#SVGID_1_"  overflow="visible"/>
	</clipPath>
	<path clip-path="url(#SVGID_2_)" fill="none" stroke="#FFB71C" stroke-width="2" stroke-miterlimit="10" d="M117.79,189.43
		c0,3.652-2.953,6.612-6.597,6.612c-3.643,0-6.597-2.96-6.597-6.612c0-3.651,2.954-6.611,6.597-6.611
		C114.837,182.819,117.79,185.779,117.79,189.43z M126.363,141.611c0,3.651-2.953,6.611-6.597,6.611
		c-3.643,0-6.597-2.96-6.597-6.611s2.954-6.611,6.597-6.611C123.41,135,126.363,137.96,126.363,141.611z M167.403,169.292
		c0,3.652-2.954,6.612-6.597,6.612c-3.644,0-6.597-2.96-6.597-6.612c0-3.651,2.953-6.611,6.597-6.611
		C164.449,162.681,167.403,165.641,167.403,169.292z M235.666,166.499c0,3.651-2.953,6.611-6.597,6.611
		c-3.643,0-6.597-2.96-6.597-6.611s2.954-6.611,6.597-6.611C232.714,159.888,235.666,162.848,235.666,166.499z M174,212.276
		c0,3.651-2.954,6.611-6.597,6.611c-3.644,0-6.597-2.96-6.597-6.611s2.953-6.611,6.597-6.611
		C171.046,205.665,174,208.625,174,212.276z M161.82,175.904l4.581,29.844 M224.155,170.147l-51.457,38.198 M161.293,209.788
		l-43.975-17.906 M118.58,148.222l-6.208,34.597"/>
	<path clip-path="url(#SVGID_2_)" fill="none" stroke="#FFB71C" stroke-width="2" stroke-miterlimit="10" d="M201.443,651.527
		c0,3.606-2.904,6.529-6.485,6.529c-3.582,0-6.486-2.923-6.486-6.529c0-3.605,2.904-6.527,6.486-6.527
		C198.539,645,201.443,647.922,201.443,651.527z M218.291,727.5c0,3.605-2.903,6.528-6.485,6.528s-6.486-2.923-6.486-6.528
		s2.904-6.528,6.486-6.528S218.291,723.896,218.291,727.5z M199.5,697.964c0,3.606-2.903,6.528-6.485,6.528
		s-6.485-2.922-6.485-6.528c0-3.605,2.903-6.527,6.485-6.527S199.5,694.359,199.5,697.964z M246.803,687.11
		c0,3.605-2.903,6.528-6.485,6.528s-6.486-2.923-6.486-6.528c0-3.605,2.904-6.528,6.486-6.528S246.803,683.505,246.803,687.11z
		 M193.015,691.437l1.352-33.409 M208.225,721.725l-11.441-18.455 M236.536,692.406l-21.332,29.873"/>
	<path clip-path="url(#SVGID_2_)" fill="none" stroke="#FFB71C" stroke-width="2" stroke-miterlimit="10" d="M655.778,180.445
		c0,3.636-2.91,6.583-6.5,6.583c-3.59,0-6.5-2.947-6.5-6.583s2.91-6.583,6.5-6.583C652.868,173.862,655.778,176.809,655.778,180.445
		z M718.526,186.383c0,3.636-2.91,6.584-6.5,6.584c-3.59,0-6.5-2.948-6.5-6.584s2.91-6.583,6.5-6.583
		C715.616,179.799,718.526,182.747,718.526,186.383z M672.796,235.688c0,3.636-2.91,6.583-6.5,6.583c-3.59,0-6.5-2.947-6.5-6.583
		c0-3.636,2.91-6.583,6.5-6.583C669.886,229.105,672.796,232.052,672.796,235.688z M720.206,224.743c0,3.635-2.91,6.583-6.5,6.583
		c-3.59,0-6.5-2.948-6.5-6.583c0-3.636,2.91-6.584,6.5-6.584C717.296,218.159,720.206,221.107,720.206,224.743z M619.834,230.215
		c0,3.636-2.911,6.583-6.501,6.583c-3.589,0-6.5-2.947-6.5-6.583s2.911-6.583,6.5-6.583
		C616.923,223.632,619.834,226.579,619.834,230.215z M705.526,186.383l-49.748-5.252 M707.369,226.205l-34.74,8.021
		 M617.167,224.906l28.277-39.154"/>
	
		<circle clip-path="url(#SVGID_2_)" fill="none" stroke="#FFB71C" stroke-width="2" stroke-miterlimit="10" cx="843.87" cy="273.13" r="5.87"/>
	
		<circle clip-path="url(#SVGID_2_)" fill="none" stroke="#FFB71C" stroke-width="2" stroke-miterlimit="10" cx="1021.149" cy="495.616" r="5.87"/>
	
		<circle clip-path="url(#SVGID_2_)" fill="none" stroke="#FFB71C" stroke-width="2" stroke-miterlimit="10" cx="1056.87" cy="160.87" r="5.87"/>
	
		<circle clip-path="url(#SVGID_2_)" fill="none" stroke="#FFB71C" stroke-width="2" stroke-miterlimit="10" cx="472.87" cy="663.13" r="5.87"/>
	
		<circle clip-path="url(#SVGID_2_)" fill="none" stroke="#FFB71C" stroke-width="2" stroke-miterlimit="10" cx="287.703" cy="466.487" r="5.87"/>
	
		<circle clip-path="url(#SVGID_2_)" fill="none" stroke="#FFB71C" stroke-width="2" stroke-miterlimit="10" cx="963.87" cy="698.87" r="5.87"/>
	
		<circle clip-path="url(#SVGID_2_)" fill="none" stroke="#FFB71C" stroke-width="2" stroke-miterlimit="10" cx="78.13" cy="541.87" r="5.87"/>
	
		<circle clip-path="url(#SVGID_2_)" fill="none" stroke="#FFB71C" stroke-width="2" stroke-miterlimit="10" cx="382.297" cy="176.943" r="5.87"/>
	
		<circle clip-path="url(#SVGID_2_)" fill="none" stroke="#FFB71C" stroke-width="2" stroke-miterlimit="10" cx="1255.833" cy="628.87" r="5.87"/>
	<path clip-path="url(#SVGID_2_)" fill="none" stroke="#FFB71C" stroke-width="2" stroke-miterlimit="10" d="M774.027,575.717
		c0,4.087-3.289,7.401-7.347,7.401c-4.057,0-7.347-3.314-7.347-7.401s3.29-7.4,7.347-7.4
		C770.738,568.317,774.027,571.63,774.027,575.717z M839.698,617.941c0,4.087-3.289,7.4-7.347,7.4c-4.057,0-7.347-3.313-7.347-7.4
		c0-4.087,3.29-7.401,7.347-7.401C836.409,610.54,839.698,613.854,839.698,617.941z M805.805,543.4c0,4.087-3.289,7.401-7.347,7.401
		c-4.058,0-7.347-3.314-7.347-7.401s3.289-7.4,7.347-7.4C802.516,536,805.805,539.313,805.805,543.4z M826.163,613.962
		l-53.295-34.266 M793.289,548.657l-21.44,21.804"/>
	<path clip-path="url(#SVGID_2_)" fill="none" stroke="#FFB71C" stroke-width="2" stroke-miterlimit="10" d="M1245.51,206.442
		c0,4.848-3.88,8.778-8.666,8.778c-4.787,0-8.667-3.93-8.667-8.778c0-4.848,3.88-8.778,8.667-8.778
		C1241.63,197.664,1245.51,201.594,1245.51,206.442z M1329.175,214.36c0,4.847-3.88,8.777-8.667,8.777
		c-4.786,0-8.667-3.93-8.667-8.777c0-4.848,3.881-8.778,8.667-8.778C1325.295,205.582,1329.175,209.512,1329.175,214.36z
		 M1268.201,280.099c0,4.848-3.88,8.778-8.667,8.778c-4.786,0-8.667-3.93-8.667-8.778c0-4.848,3.881-8.778,8.667-8.778
		C1264.321,271.321,1268.201,275.251,1268.201,280.099z M1331.415,265.505c0,4.848-3.88,8.778-8.667,8.778s-8.667-3.93-8.667-8.778
		c0-4.848,3.88-8.778,8.667-8.778S1331.415,260.657,1331.415,265.505z M1197.585,249.833c0,4.848-3.881,8.777-8.667,8.777
		c-4.787,0-8.667-3.929-8.667-8.777c0-4.848,3.88-8.778,8.667-8.778C1193.704,241.055,1197.585,244.985,1197.585,249.833z
		 M1256.952,271.718l-17.157-55.695 M1310.872,213.448l-64.224-6.078 M1314.081,267.506l-46.101,10.643 M1195.372,243.989
		l35.017-31.704"/>
</g>
</svg>
