<?xml version="1.0" encoding="iso-8859-1"?>
<!-- Generator: Adobe Illustrator 18.1.1, SVG Export Plug-In . SVG Version: 6.00 Build 0)  -->
<!DOCTYPE svg PUBLIC "-//W3C//DTD SVG 1.1//EN" "http://www.w3.org/Graphics/SVG/1.1/DTD/svg11.dtd">
<svg version="1.1" id="Layer_1" xmlns="http://www.w3.org/2000/svg" xmlns:xlink="http://www.w3.org/1999/xlink" x="0px" y="0px"
	 viewBox="0 0 1340 874" enable-background="new 0 0 1340 874" xml:space="preserve">
<rect x="1.908" fill="#1BA9D3" width="1340" height="874"/>
<g>
	<defs>
		<rect id="SVGID_7_" x="-10" y="-5" width="1361.408" height="883"/>
	</defs>
	<clipPath id="SVGID_2_">
		<use xlink:href="#SVGID_7_"  overflow="visible"/>
	</clipPath>
	<rect x="1.908" y="2.5" clip-path="url(#SVGID_2_)" fill="none" stroke="#1BA9D3" width="1340" height="874"/>
</g>
<g>
	<defs>
		<rect id="SVGID_9_" x="-10" y="-5" width="1361.408" height="883"/>
	</defs>
	<clipPath id="SVGID_4_">
		<use xlink:href="#SVGID_9_"  overflow="visible"/>
	</clipPath>
	<path clip-path="url(#SVGID_4_)" fill="none" stroke="#002B49" stroke-width="2" stroke-miterlimit="10" d="M804.771,143.688
		c2.953-2.068,7.013-1.366,9.067,1.568c2.055,2.934,1.326,6.989-1.627,9.057c-2.954,2.067-7.013,1.365-9.068-1.569
		C801.089,149.81,801.818,145.755,804.771,143.688z M857.34,86.31c2.953-2.068,7.013-1.366,9.067,1.568
		c2.055,2.934,1.326,6.989-1.627,9.057s-7.013,1.366-9.067-1.568C853.658,92.433,854.387,88.378,857.34,86.31z M843.923,118.644
		c2.953-2.068,7.013-1.365,9.067,1.569c2.055,2.934,1.326,6.988-1.627,9.056s-7.013,1.366-9.067-1.568
		C840.241,124.767,840.97,120.712,843.923,118.644z M807.901,86.121c2.953-2.068,7.013-1.366,9.067,1.568
		c2.055,2.935,1.326,6.989-1.627,9.057c-2.954,2.068-7.013,1.366-9.068-1.568C804.219,92.244,804.948,88.189,807.901,86.121z
		 M842.296,127.701l-28.142,18.055 M858.383,97.868l-8.555,19.957 M818.128,91.494l36.706,0.339"/>
	
		<circle clip-path="url(#SVGID_4_)" fill="none" stroke="#002B49" stroke-width="2" stroke-miterlimit="10" cx="580.9" cy="659.528" r="5.87"/>
	
		<circle clip-path="url(#SVGID_4_)" fill="none" stroke="#002B49" stroke-width="2" stroke-miterlimit="10" cx="1058.778" cy="163.37" r="5.87"/>
	
		<circle clip-path="url(#SVGID_4_)" fill="none" stroke="#002B49" stroke-width="2" stroke-miterlimit="10" cx="831.278" cy="755.63" r="5.87"/>
	
		<circle clip-path="url(#SVGID_4_)" fill="none" stroke="#002B49" stroke-width="2" stroke-miterlimit="10" cx="80.038" cy="342.5" r="5.87"/>
	
		<circle clip-path="url(#SVGID_4_)" fill="none" stroke="#002B49" stroke-width="2" stroke-miterlimit="10" cx="202.778" cy="113.347" r="5.87"/>
	
		<circle clip-path="url(#SVGID_4_)" fill="none" stroke="#002B49" stroke-width="2" stroke-miterlimit="10" cx="410.778" cy="183.37" r="5.87"/>
	<path clip-path="url(#SVGID_4_)" fill="none" stroke="#002B49" stroke-width="2" stroke-miterlimit="10" d="M225.342,719.217
		c0,4.087-3.289,7.401-7.347,7.401c-4.057,0-7.347-3.314-7.347-7.401c0-4.087,3.29-7.4,7.347-7.4
		C222.053,711.817,225.342,715.13,225.342,719.217z M291.013,761.441c0,4.087-3.289,7.4-7.347,7.4c-4.057,0-7.347-3.313-7.347-7.4
		c0-4.087,3.29-7.401,7.347-7.401C287.724,754.04,291.013,757.354,291.013,761.441z M257.12,686.9c0,4.087-3.289,7.401-7.347,7.401
		c-4.058,0-7.347-3.314-7.347-7.401s3.289-7.4,7.347-7.4C253.831,679.5,257.12,682.813,257.12,686.9z M277.478,757.462
		l-53.295-34.266 M244.604,692.157l-21.44,21.804"/>
	<path clip-path="url(#SVGID_4_)" fill="none" stroke="#002B49" stroke-width="2" stroke-miterlimit="10" d="M1247.419,166.278
		c0,4.848-3.88,8.778-8.666,8.778c-4.787,0-8.667-3.93-8.667-8.778c0-4.848,3.88-8.778,8.667-8.778
		C1243.539,157.5,1247.419,161.43,1247.419,166.278z M1331.084,174.196c0,4.847-3.88,8.777-8.667,8.777
		c-4.786,0-8.667-3.93-8.667-8.777c0-4.848,3.881-8.778,8.667-8.778C1327.204,165.418,1331.084,169.348,1331.084,174.196z
		 M1270.11,239.935c0,4.848-3.88,8.778-8.667,8.778c-4.786,0-8.667-3.93-8.667-8.778c0-4.848,3.881-8.778,8.667-8.778
		C1266.23,231.157,1270.11,235.087,1270.11,239.935z M1333.324,225.341c0,4.848-3.88,8.778-8.667,8.778s-8.667-3.93-8.667-8.778
		c0-4.848,3.88-8.778,8.667-8.778S1333.324,220.493,1333.324,225.341z M1199.494,209.669c0,4.848-3.881,8.777-8.667,8.777
		c-4.787,0-8.667-3.929-8.667-8.777c0-4.848,3.88-8.778,8.667-8.778C1195.613,200.891,1199.494,204.821,1199.494,209.669z
		 M1258.861,231.554l-17.157-55.695 M1312.781,173.284l-64.224-6.078 M1315.99,227.342l-46.101,10.643 M1197.281,203.825
		l35.017-31.704"/>
	<path clip-path="url(#SVGID_4_)" fill="none" stroke="#002B49" stroke-width="2" stroke-miterlimit="10" d="M1128.706,767.676
		c-2.721,4.355-8.464,5.674-12.828,2.947s-5.696-8.467-2.975-12.822c2.721-4.354,8.465-5.674,12.829-2.947
		C1130.095,757.581,1131.427,763.322,1128.706,767.676z M988.412,723.741c-2.721,4.355-8.465,5.674-12.829,2.947
		c-4.363-2.726-5.695-8.467-2.974-12.821c2.721-4.355,8.464-5.674,12.828-2.948C989.801,713.646,991.133,719.387,988.412,723.741z
		 M1108.051,846.764c-2.721,4.354-8.465,5.674-12.828,2.947c-4.364-2.727-5.696-8.467-2.975-12.822
		c2.721-4.354,8.464-5.674,12.828-2.947S1110.772,842.41,1108.051,846.764z M1173.873,869.667
		c-2.721,4.355-8.464,5.674-12.828,2.947s-5.696-8.467-2.975-12.822c2.721-4.354,8.465-5.674,12.828-2.947
		C1175.262,859.572,1176.594,865.313,1173.873,869.667z M1060.659,779.349c-2.721,4.354-8.465,5.674-12.829,2.947
		c-4.363-2.727-5.695-8.468-2.974-12.822c2.721-4.355,8.464-5.674,12.828-2.947S1063.38,774.994,1060.659,779.349z
		 M1102.611,832.402l15.732-60.238 M1045.612,768.447l-58.646-44.721 M1156.947,861.59l-49.434-17.201 M1060.797,773.032
		l50.844-8.721"/>
	<path clip-path="url(#SVGID_4_)" fill="none" stroke="#002B49" stroke-width="2" stroke-miterlimit="10" d="M1211.135,689.804
		c0,3.971-3.243,7.191-7.244,7.191s-7.244-3.22-7.244-7.191c0-3.972,3.243-7.192,7.244-7.192S1211.135,685.832,1211.135,689.804z
		 M1267.805,722.43c0,3.971-3.243,7.191-7.244,7.191c-4.001,0-7.244-3.22-7.244-7.191c0-3.972,3.243-7.192,7.244-7.192
		C1264.562,715.238,1267.805,718.458,1267.805,722.43z M1265.68,675.829c0,3.971-3.243,7.191-7.244,7.191
		c-4,0-7.244-3.22-7.244-7.191c0-3.972,3.244-7.192,7.244-7.192C1262.437,668.637,1265.68,671.857,1265.68,675.829z
		 M1196.647,647.471c0,3.972-3.243,7.191-7.244,7.191c-4,0-7.244-3.219-7.244-7.191c0-3.972,3.244-7.192,7.244-7.192
		C1193.404,640.279,1196.647,643.499,1196.647,647.471z M1254.296,718.823l-44.144-25.415 M1251.428,677.624l-40.53,10.384
		 M1191.733,654.278l9.697,28.334"/>
</g>
</svg>
