<?xml version="1.0" encoding="iso-8859-1"?>
<!-- Generator: Adobe Illustrator 18.1.1, SVG Export Plug-In . SVG Version: 6.00 Build 0)  -->
<!DOCTYPE svg PUBLIC "-//W3C//DTD SVG 1.1//EN" "http://www.w3.org/Graphics/SVG/1.1/DTD/svg11.dtd">
<svg version="1.1" id="Layer_1" xmlns="http://www.w3.org/2000/svg" xmlns:xlink="http://www.w3.org/1999/xlink" x="0px" y="0px"
	 viewBox="0 0 1340 874" enable-background="new 0 0 1340 874" xml:space="preserve">
<g>
	<defs>
		<rect id="SVGID_5_" x="-3" y="20.493" width="1347.152" height="832.507"/>
	</defs>
	<clipPath id="SVGID_2_">
		<use xlink:href="#SVGID_5_"  overflow="visible"/>
	</clipPath>
	<path clip-path="url(#SVGID_2_)" fill="none" stroke="#002B49" stroke-width="2" stroke-miterlimit="10" d="M699.995,704.46
		c2.582,2.582,2.586,6.764,0.01,9.34c-2.576,2.576-6.758,2.572-9.34-0.01c-2.581-2.582-2.586-6.763-0.009-9.34
		C693.232,701.874,697.413,701.878,699.995,704.46z M672.244,664.585c2.582,2.582,2.586,6.763,0.01,9.339
		c-2.577,2.577-6.758,2.572-9.34-0.01c-2.581-2.581-2.586-6.763-0.01-9.339C665.481,661.999,669.662,662.003,672.244,664.585z
		 M720.837,655.139c2.582,2.582,2.586,6.763,0.01,9.34c-2.576,2.576-6.758,2.572-9.34-0.01c-2.582-2.582-2.586-6.763-0.01-9.34
		C714.074,652.553,718.255,652.557,720.837,655.139z M767.131,604.895c2.582,2.581,2.587,6.763,0.01,9.339
		c-2.576,2.576-6.758,2.572-9.339-0.01c-2.582-2.582-2.587-6.763-0.01-9.339C760.368,602.308,764.549,602.313,767.131,604.895z
		 M755.896,680.868c2.581,2.582,2.586,6.764,0.01,9.34c-2.577,2.576-6.758,2.572-9.34-0.01c-2.582-2.582-2.586-6.763-0.01-9.34
		C749.132,678.282,753.314,678.287,755.896,680.868z M721.564,663.761l24.342,17.865 M761.571,615.614l-9.375,63.395
		 M745.151,688.094l-43.756,18.433 M671.415,674.763l20.074,28.854"/>
	<path clip-path="url(#SVGID_2_)" fill="none" stroke="#002B49" stroke-width="2" stroke-miterlimit="10" d="M11.194,305.172
		c0,3.652-2.953,6.612-6.597,6.612c-3.643,0-6.597-2.96-6.597-6.612c0-3.651,2.954-6.611,6.597-6.611
		C8.241,298.561,11.194,301.521,11.194,305.172z M19.767,257.353c0,3.651-2.953,6.611-6.597,6.611c-3.643,0-6.597-2.96-6.597-6.611
		s2.954-6.611,6.597-6.611C16.814,250.742,19.767,253.702,19.767,257.353z M60.807,285.034c0,3.652-2.954,6.612-6.597,6.612
		c-3.644,0-6.597-2.96-6.597-6.612c0-3.651,2.953-6.611,6.597-6.611C57.853,278.423,60.807,281.383,60.807,285.034z M129.07,282.241
		c0,3.651-2.953,6.611-6.597,6.611c-3.643,0-6.597-2.96-6.597-6.611s2.954-6.611,6.597-6.611
		C126.117,275.63,129.07,278.59,129.07,282.241z M67.404,328.018c0,3.651-2.954,6.611-6.597,6.611c-3.644,0-6.597-2.96-6.597-6.611
		s2.953-6.611,6.597-6.611C64.45,321.407,67.404,324.367,67.404,328.018z M55.224,291.646l4.581,29.844 M117.559,285.889
		l-51.457,38.198 M54.697,325.53l-43.975-17.906 M11.984,263.964l-6.208,34.597"/>
	<path clip-path="url(#SVGID_2_)" fill="none" stroke="#002B49" stroke-width="2" stroke-miterlimit="10" d="M337.1,724.84
		c2.953-2.068,7.013-1.366,9.067,1.568c2.055,2.934,1.326,6.989-1.627,9.057c-2.954,2.067-7.013,1.365-9.068-1.569
		C333.418,730.962,334.147,726.907,337.1,724.84z M389.669,667.462c2.953-2.068,7.013-1.366,9.067,1.568
		c2.055,2.934,1.326,6.989-1.627,9.057s-7.013,1.366-9.067-1.568C385.987,673.585,386.716,669.53,389.669,667.462z M376.252,699.796
		c2.953-2.068,7.013-1.366,9.067,1.568c2.055,2.935,1.326,6.989-1.627,9.057s-7.013,1.366-9.067-1.568
		C372.57,705.919,373.299,701.864,376.252,699.796z M340.23,667.273c2.953-2.068,7.013-1.366,9.067,1.568
		c2.055,2.934,1.326,6.989-1.627,9.057c-2.954,2.068-7.013,1.366-9.068-1.568C336.548,673.396,337.277,669.341,340.23,667.273z
		 M374.625,708.853l-28.142,18.055 M390.712,679.02l-8.555,19.957 M350.457,672.646l36.706,0.339"/>
	<path clip-path="url(#SVGID_2_)" fill="none" stroke="#002B49" stroke-width="2" stroke-miterlimit="10" d="M794.465,204.67
		c2.085-2.978,6.159-3.723,9.1-1.664s3.634,6.142,1.549,9.121c-2.086,2.978-6.16,3.723-9.101,1.664
		C793.072,211.732,792.379,207.648,794.465,204.67z M746.47,163.814c2.086-2.978,6.16-3.723,9.101-1.664
		c2.94,2.059,3.634,6.143,1.548,9.121c-2.085,2.978-6.16,3.724-9.1,1.664C745.078,170.876,744.385,166.793,746.47,163.814z
		 M812.21,149.657c2.086-2.979,6.16-3.724,9.101-1.665c2.94,2.059,3.634,6.143,1.548,9.121c-2.085,2.978-6.16,3.724-9.1,1.665
		C810.818,156.718,810.125,152.635,812.21,149.657z M767.096,131.429c2.085-2.978,6.16-3.723,9.101-1.664
		c2.94,2.059,3.633,6.142,1.548,9.121c-2.085,2.978-6.16,3.723-9.1,1.664C765.704,138.491,765.01,134.407,767.096,131.429z
		 M852.455,184.517c2.086-2.978,6.16-3.723,9.101-1.664c2.941,2.059,3.634,6.143,1.548,9.121c-2.085,2.978-6.159,3.723-9.1,1.664
		C851.063,191.579,850.37,187.496,852.455,184.517z M757.119,171.271l37.739,32.837 M778.45,137.594l33.058,13.356 M851.595,190.395
		l-45.621,15.854"/>
	
		<circle clip-path="url(#SVGID_2_)" fill="none" stroke="#002B49" stroke-width="2" stroke-miterlimit="10" cx="1152.367" cy="730.782" r="5.87"/>
	
		<circle clip-path="url(#SVGID_2_)" fill="none" stroke="#002B49" stroke-width="2" stroke-miterlimit="10" cx="1068.607" cy="156.498" r="5.87"/>
	
		<circle clip-path="url(#SVGID_2_)" fill="none" stroke="#002B49" stroke-width="2" stroke-miterlimit="10" cx="484.607" cy="708.239" r="5.87"/>
	
		<circle clip-path="url(#SVGID_2_)" fill="none" stroke="#002B49" stroke-width="2" stroke-miterlimit="10" cx="975.607" cy="694.499" r="5.87"/>
	
		<circle clip-path="url(#SVGID_2_)" fill="none" stroke="#002B49" stroke-width="2" stroke-miterlimit="10" cx="89.867" cy="537.499" r="5.87"/>
	
		<circle clip-path="url(#SVGID_2_)" fill="none" stroke="#002B49" stroke-width="2" stroke-miterlimit="10" cx="265.333" cy="94.498" r="5.87"/>
	
		<circle clip-path="url(#SVGID_2_)" fill="none" stroke="#002B49" stroke-width="2" stroke-miterlimit="10" cx="1267.57" cy="624.499" r="5.87"/>
	<path clip-path="url(#SVGID_2_)" fill="none" stroke="#002B49" stroke-width="2" stroke-miterlimit="10" d="M862.915,802.376
		c0,4.087-3.289,7.401-7.347,7.401c-4.057,0-7.347-3.314-7.347-7.401c0-4.087,3.29-7.4,7.347-7.4
		C859.626,794.976,862.915,798.289,862.915,802.376z M928.586,844.6c0,4.087-3.289,7.4-7.347,7.4c-4.057,0-7.347-3.313-7.347-7.4
		c0-4.087,3.29-7.401,7.347-7.401C925.297,837.199,928.586,840.513,928.586,844.6z M894.693,770.059
		c0,4.087-3.289,7.401-7.347,7.401c-4.058,0-7.347-3.314-7.347-7.401c0-4.087,3.289-7.4,7.347-7.4
		C891.404,762.659,894.693,765.972,894.693,770.059z M915.051,840.621l-53.295-34.266 M882.177,775.316l-21.44,21.804"/>
	<path clip-path="url(#SVGID_2_)" fill="none" stroke="#002B49" stroke-width="2" stroke-miterlimit="10" d="M1257.247,317.406
		c0,4.848-3.88,8.778-8.666,8.778c-4.787,0-8.667-3.93-8.667-8.778s3.88-8.778,8.667-8.778
		C1253.367,308.628,1257.247,312.558,1257.247,317.406z M1340.912,325.324c0,4.847-3.88,8.777-8.667,8.777
		c-4.786,0-8.667-3.93-8.667-8.777c0-4.848,3.881-8.778,8.667-8.778C1337.032,316.546,1340.912,320.476,1340.912,325.324z
		 M1279.938,391.063c0,4.848-3.88,8.778-8.667,8.778c-4.786,0-8.667-3.93-8.667-8.778s3.881-8.778,8.667-8.778
		C1276.058,382.285,1279.938,386.215,1279.938,391.063z M1343.152,376.469c0,4.848-3.88,8.778-8.667,8.778s-8.667-3.93-8.667-8.778
		c0-4.848,3.88-8.778,8.667-8.778S1343.152,371.621,1343.152,376.469z M1209.322,360.797c0,4.848-3.881,8.777-8.667,8.777
		c-4.787,0-8.667-3.929-8.667-8.777c0-4.848,3.88-8.778,8.667-8.778C1205.441,352.019,1209.322,355.949,1209.322,360.797z
		 M1268.689,382.682l-17.157-55.695 M1322.609,324.412l-64.224-6.078 M1325.818,378.47l-46.101,10.643 M1207.109,354.953
		l35.017-31.704"/>
	<path clip-path="url(#SVGID_2_)" fill="none" stroke="#002B49" stroke-width="2" stroke-miterlimit="10" d="M479.463,108.952
		c0,3.636-2.969,6.583-6.631,6.583c-3.663,0-6.632-2.947-6.632-6.583c0-3.636,2.969-6.583,6.632-6.583
		C476.494,102.369,479.463,105.316,479.463,108.952z M378.21,135.212c0,3.636-2.97,6.584-6.632,6.584
		c-3.663,0-6.632-2.948-6.632-6.584c0-3.635,2.969-6.583,6.632-6.583C375.24,128.629,378.21,131.577,378.21,135.212z
		 M496.825,164.195c0,3.636-2.969,6.583-6.631,6.583c-3.663,0-6.632-2.947-6.632-6.583s2.969-6.583,6.632-6.583
		C493.856,157.612,496.825,160.559,496.825,164.195z M545.195,153.249c0,3.636-2.969,6.584-6.632,6.584s-6.632-2.948-6.632-6.584
		c0-3.635,2.969-6.583,6.632-6.583S545.195,149.614,545.195,153.249z M442.792,141.495c0,3.636-2.969,6.583-6.632,6.583
		c-3.662,0-6.631-2.947-6.631-6.583s2.969-6.583,6.631-6.583C439.823,134.912,442.792,137.859,442.792,141.495z M488.125,157.612
		l-13.224-42.077 M429.598,140.595l-52.267-4.849 M531.931,154.75l-36.326,8.22 M440.493,137.65l27.4-24.315"/>
	<path clip-path="url(#SVGID_2_)" fill="none" stroke="#002B49" stroke-width="2" stroke-miterlimit="10" d="M1203.03,71.018
		c0,3.971-3.243,7.191-7.244,7.191s-7.244-3.22-7.244-7.191c0-3.972,3.243-7.192,7.244-7.192S1203.03,67.046,1203.03,71.018z
		 M1259.7,103.644c0,3.971-3.243,7.191-7.244,7.191c-4,0-7.244-3.22-7.244-7.191c0-3.972,3.244-7.192,7.244-7.192
		C1256.457,96.452,1259.7,99.672,1259.7,103.644z M1257.575,57.043c0,3.971-3.243,7.191-7.244,7.191c-4,0-7.244-3.22-7.244-7.191
		c0-3.972,3.244-7.192,7.244-7.192C1254.332,49.851,1257.575,53.071,1257.575,57.043z M1188.542,28.685
		c0,3.972-3.243,7.191-7.244,7.191c-4,0-7.244-3.219-7.244-7.191c0-3.972,3.244-7.192,7.244-7.192
		C1185.299,21.493,1188.542,24.713,1188.542,28.685z M1246.191,100.037l-44.144-25.415 M1243.323,58.838l-40.53,10.384
		 M1183.628,35.492l9.697,28.334"/>
</g>
</svg>
