<?xml version="1.0" encoding="iso-8859-1"?>
<!-- Generator: Adobe Illustrator 18.1.1, SVG Export Plug-In . SVG Version: 6.00 Build 0)  -->
<!DOCTYPE svg PUBLIC "-//W3C//DTD SVG 1.1//EN" "http://www.w3.org/Graphics/SVG/1.1/DTD/svg11.dtd">
<svg version="1.1" id="Layer_1" xmlns="http://www.w3.org/2000/svg" xmlns:xlink="http://www.w3.org/1999/xlink" x="0px" y="0px"
	 viewBox="0 0 1340 874" enable-background="new 0 0 1340 874" xml:space="preserve">
<rect fill="#FFB71C" width="1340" height="874"/>
<g>
	<defs>
		<rect id="SVGID_3_" x="-8" width="1354.737" height="874"/>
	</defs>
	<clipPath id="SVGID_2_">
		<use xlink:href="#SVGID_3_"  overflow="visible"/>
	</clipPath>
	<path clip-path="url(#SVGID_2_)" fill="none" stroke="#002B49" stroke-width="2" stroke-miterlimit="10" d="M659.334,690.832
		c3.028,2.042,3.83,6.146,1.792,9.166c-2.037,3.021-6.143,3.814-9.17,1.773c-3.026-2.042-3.829-6.146-1.791-9.166
		C652.202,689.584,656.308,688.791,659.334,690.832z M624.485,656.985c3.026,2.041,3.829,6.145,1.791,9.166
		c-2.037,3.02-6.143,3.814-9.169,1.772c-3.027-2.042-3.83-6.146-1.792-9.166C617.352,655.736,621.457,654.943,624.485,656.985z
		 M670.382,638.441c3.027,2.041,3.83,6.145,1.792,9.166c-2.037,3.02-6.143,3.814-9.17,1.772c-3.027-2.042-3.829-6.145-1.791-9.166
		C663.25,637.192,667.355,636.399,670.382,638.441z M706.239,580.286c3.027,2.041,3.829,6.145,1.792,9.166
		c-2.037,3.02-6.143,3.814-9.17,1.772c-3.027-2.042-3.829-6.145-1.792-9.166C699.107,579.037,703.212,578.244,706.239,580.286z
		 M709.706,657.008c3.027,2.041,3.83,6.145,1.792,9.165c-2.037,3.021-6.143,3.815-9.17,1.773s-3.829-6.146-1.791-9.166
		C702.574,655.759,706.679,654.966,709.706,657.008z M672.742,646.765l27.303,12.892 M702.826,591.869l2.894,64.019
		 M700.538,666.151l-39.435,26.443 M625.613,667.134l25.211,24.494"/>
	<path clip-path="url(#SVGID_2_)" fill="none" stroke="#002B49" stroke-width="2" stroke-miterlimit="10" d="M6.194,309.543
		c0,3.652-2.953,6.612-6.597,6.612c-3.643,0-6.597-2.96-6.597-6.612c0-3.651,2.954-6.611,6.597-6.611
		C3.241,302.932,6.194,305.892,6.194,309.543z M14.767,261.724c0,3.651-2.953,6.611-6.597,6.611c-3.643,0-6.597-2.96-6.597-6.611
		s2.954-6.611,6.597-6.611C11.814,255.113,14.767,258.073,14.767,261.724z M55.807,289.405c0,3.652-2.954,6.612-6.597,6.612
		c-3.644,0-6.597-2.96-6.597-6.612c0-3.651,2.953-6.611,6.597-6.611C52.853,282.794,55.807,285.754,55.807,289.405z M124.07,286.612
		c0,3.651-2.953,6.611-6.597,6.611c-3.643,0-6.597-2.96-6.597-6.611s2.954-6.611,6.597-6.611
		C121.117,280.001,124.07,282.961,124.07,286.612z M62.404,332.389c0,3.651-2.954,6.611-6.597,6.611
		c-3.644,0-6.597-2.96-6.597-6.611s2.953-6.611,6.597-6.611C59.45,325.778,62.404,328.738,62.404,332.389z M50.224,296.017
		l4.581,29.844 M112.559,290.26l-51.457,38.198 M49.697,329.901L5.722,311.995 M6.984,268.335l-6.208,34.597"/>
	<path clip-path="url(#SVGID_2_)" fill="none" stroke="#002B49" stroke-width="2" stroke-miterlimit="10" d="M332.1,594.754
		c2.953-2.068,7.013-1.366,9.067,1.568c2.055,2.934,1.326,6.989-1.627,9.057c-2.954,2.067-7.013,1.365-9.068-1.569
		C328.418,600.876,329.147,596.821,332.1,594.754z M384.669,537.376c2.953-2.068,7.013-1.366,9.067,1.568
		c2.055,2.934,1.326,6.989-1.627,9.057s-7.013,1.366-9.067-1.568C380.987,543.499,381.716,539.444,384.669,537.376z M371.252,569.71
		c2.953-2.068,7.013-1.366,9.067,1.568c2.055,2.935,1.326,6.989-1.627,9.057s-7.013,1.366-9.067-1.568
		C367.57,575.833,368.299,571.778,371.252,569.71z M335.23,537.187c2.953-2.068,7.013-1.366,9.067,1.568
		c2.055,2.934,1.326,6.989-1.627,9.057c-2.954,2.068-7.013,1.366-9.068-1.568C331.548,543.31,332.277,539.255,335.23,537.187z
		 M369.625,578.767l-28.142,18.055 M385.712,548.934l-8.555,19.957 M345.457,542.56l36.706,0.339"/>
	<path clip-path="url(#SVGID_2_)" fill="none" stroke="#002B49" stroke-width="2" stroke-miterlimit="10" d="M789.465,253.219
		c2.085-2.978,6.159-3.724,9.1-1.664c2.941,2.059,3.634,6.142,1.549,9.121c-2.086,2.978-6.16,3.723-9.101,1.664
		C788.072,260.281,787.379,256.197,789.465,253.219z M741.47,212.363c2.086-2.978,6.16-3.723,9.101-1.664
		c2.94,2.059,3.634,6.143,1.548,9.121c-2.085,2.978-6.16,3.724-9.1,1.664C740.078,219.425,739.385,215.342,741.47,212.363z
		 M807.21,198.206c2.086-2.979,6.16-3.724,9.101-1.665c2.94,2.059,3.634,6.143,1.548,9.121c-2.085,2.978-6.16,3.724-9.1,1.665
		C805.818,205.267,805.125,201.184,807.21,198.206z M762.096,179.978c2.085-2.978,6.16-3.724,9.101-1.664
		c2.94,2.059,3.633,6.142,1.548,9.121c-2.085,2.978-6.16,3.723-9.1,1.664C760.704,187.04,760.01,182.956,762.096,179.978z
		 M847.455,233.066c2.086-2.978,6.16-3.723,9.101-1.664c2.941,2.059,3.634,6.143,1.548,9.121c-2.085,2.978-6.159,3.723-9.1,1.664
		C846.063,240.128,845.37,236.045,847.455,233.066z M752.119,219.82l37.739,32.837 M773.45,186.143l33.058,13.356 M846.595,238.944
		l-45.621,15.854"/>
	
		<circle clip-path="url(#SVGID_2_)" fill="none" stroke="#002B49" stroke-width="2" stroke-miterlimit="10" cx="1147.367" cy="735.153" r="5.87"/>
	
		<circle clip-path="url(#SVGID_2_)" fill="none" stroke="#002B49" stroke-width="2" stroke-miterlimit="10" cx="1027.886" cy="495.616" r="5.87"/>
	
		<circle clip-path="url(#SVGID_2_)" fill="none" stroke="#002B49" stroke-width="2" stroke-miterlimit="10" cx="1063.607" cy="160.87" r="5.87"/>
	
		<circle clip-path="url(#SVGID_2_)" fill="none" stroke="#002B49" stroke-width="2" stroke-miterlimit="10" cx="479.607" cy="698.87" r="5.87"/>
	
		<circle clip-path="url(#SVGID_2_)" fill="none" stroke="#002B49" stroke-width="2" stroke-miterlimit="10" cx="970.607" cy="698.87" r="5.87"/>
	
		<circle clip-path="url(#SVGID_2_)" fill="none" stroke="#002B49" stroke-width="2" stroke-miterlimit="10" cx="84.867" cy="541.87" r="5.87"/>
	
		<circle clip-path="url(#SVGID_2_)" fill="none" stroke="#002B49" stroke-width="2" stroke-miterlimit="10" cx="260.333" cy="98.87" r="5.87"/>
	
		<circle clip-path="url(#SVGID_2_)" fill="none" stroke="#002B49" stroke-width="2" stroke-miterlimit="10" cx="1262.57" cy="628.87" r="5.87"/>
	<path clip-path="url(#SVGID_2_)" fill="none" stroke="#002B49" stroke-width="2" stroke-miterlimit="10" d="M857.915,806.747
		c0,4.087-3.289,7.401-7.347,7.401c-4.057,0-7.347-3.314-7.347-7.401c0-4.087,3.29-7.4,7.347-7.4
		C854.626,799.347,857.915,802.66,857.915,806.747z M923.586,848.971c0,4.087-3.289,7.4-7.347,7.4c-4.057,0-7.347-3.313-7.347-7.4
		c0-4.087,3.29-7.401,7.347-7.401C920.297,841.57,923.586,844.884,923.586,848.971z M889.693,774.43
		c0,4.087-3.289,7.401-7.347,7.401c-4.058,0-7.347-3.314-7.347-7.401s3.289-7.4,7.347-7.4
		C886.404,767.03,889.693,770.343,889.693,774.43z M910.051,844.992l-53.295-34.266 M877.177,779.687l-21.44,21.804"/>
	<path clip-path="url(#SVGID_2_)" fill="none" stroke="#002B49" stroke-width="2" stroke-miterlimit="10" d="M1252.247,321.778
		c0,4.848-3.88,8.778-8.666,8.778c-4.787,0-8.667-3.93-8.667-8.778c0-4.848,3.88-8.778,8.667-8.778
		C1248.367,313,1252.247,316.93,1252.247,321.778z M1335.912,329.696c0,4.847-3.88,8.777-8.667,8.777
		c-4.786,0-8.667-3.93-8.667-8.777c0-4.848,3.881-8.778,8.667-8.778C1332.032,320.918,1335.912,324.848,1335.912,329.696z
		 M1274.938,395.435c0,4.848-3.88,8.778-8.667,8.778c-4.786,0-8.667-3.93-8.667-8.778s3.881-8.778,8.667-8.778
		C1271.058,386.657,1274.938,390.587,1274.938,395.435z M1338.152,380.841c0,4.848-3.88,8.778-8.667,8.778s-8.667-3.93-8.667-8.778
		c0-4.848,3.88-8.778,8.667-8.778S1338.152,375.993,1338.152,380.841z M1204.322,365.169c0,4.848-3.881,8.777-8.667,8.777
		c-4.787,0-8.667-3.929-8.667-8.777s3.88-8.778,8.667-8.778C1200.441,356.391,1204.322,360.321,1204.322,365.169z M1263.689,387.054
		l-17.157-55.695 M1317.609,328.784l-64.224-6.078 M1320.818,382.842l-46.101,10.643 M1202.109,359.325l35.017-31.704"/>
	<path clip-path="url(#SVGID_2_)" fill="none" stroke="#002B49" stroke-width="2" stroke-miterlimit="10" d="M474.463,113.323
		c0,3.636-2.969,6.583-6.631,6.583c-3.663,0-6.632-2.947-6.632-6.583c0-3.636,2.969-6.583,6.632-6.583
		C471.494,106.74,474.463,109.687,474.463,113.323z M373.21,139.583c0,3.636-2.97,6.584-6.632,6.584
		c-3.663,0-6.632-2.948-6.632-6.584c0-3.635,2.969-6.583,6.632-6.583C370.24,133,373.21,135.948,373.21,139.583z M491.825,168.566
		c0,3.636-2.969,6.583-6.631,6.583c-3.663,0-6.632-2.947-6.632-6.583s2.969-6.583,6.632-6.583
		C488.856,161.983,491.825,164.93,491.825,168.566z M540.195,157.62c0,3.636-2.969,6.584-6.632,6.584s-6.632-2.948-6.632-6.584
		c0-3.635,2.969-6.583,6.632-6.583S540.195,153.985,540.195,157.62z M437.792,145.866c0,3.636-2.969,6.583-6.632,6.583
		c-3.662,0-6.631-2.947-6.631-6.583s2.969-6.583,6.631-6.583C434.823,139.283,437.792,142.23,437.792,145.866z M483.125,161.983
		l-13.224-42.077 M424.598,144.966l-52.267-4.849 M526.931,159.121l-36.326,8.22 M435.493,142.021l27.4-24.315"/>
	<path clip-path="url(#SVGID_2_)" fill="none" stroke="#002B49" stroke-width="2" stroke-miterlimit="10" d="M1198.03,75.389
		c0,3.971-3.243,7.191-7.244,7.191s-7.244-3.22-7.244-7.191c0-3.972,3.243-7.192,7.244-7.192S1198.03,71.417,1198.03,75.389z
		 M1254.7,108.015c0,3.971-3.243,7.191-7.244,7.191c-4,0-7.244-3.22-7.244-7.191c0-3.972,3.244-7.192,7.244-7.192
		C1251.457,100.823,1254.7,104.043,1254.7,108.015z M1252.575,61.414c0,3.971-3.243,7.191-7.244,7.191c-4,0-7.244-3.22-7.244-7.191
		c0-3.972,3.244-7.192,7.244-7.192C1249.332,54.222,1252.575,57.442,1252.575,61.414z M1183.542,33.056
		c0,3.972-3.243,7.191-7.244,7.191c-4,0-7.244-3.219-7.244-7.191c0-3.972,3.244-7.192,7.244-7.192
		C1180.299,25.864,1183.542,29.084,1183.542,33.056z M1241.191,104.408l-44.144-25.415 M1238.323,63.209l-40.53,10.384
		 M1178.628,39.863l9.697,28.334"/>
</g>
<path fill="#FFFFFF" d="M160.421,689.375h0.097H160.421z"/>
<path fill="#FFFFFF" d="M160.421,689.375h0.097H160.421z"/>
</svg>
