<?xml version="1.0" encoding="iso-8859-1"?>
<!-- Generator: Adobe Illustrator 18.1.1, SVG Export Plug-In . SVG Version: 6.00 Build 0)  -->
<!DOCTYPE svg PUBLIC "-//W3C//DTD SVG 1.1//EN" "http://www.w3.org/Graphics/SVG/1.1/DTD/svg11.dtd">
<svg version="1.1" id="cloud0" xmlns="http://www.w3.org/2000/svg" xmlns:xlink="http://www.w3.org/1999/xlink" x="0px" y="0px"
	 viewBox="0 0 322.298 264.102" enable-background="new 0 0 322.298 264.102" xml:space="preserve">
<g>
	<defs>
		<rect id="SVGID_7_" x="-0.04" y="0" width="322.338" height="263.377"/>
	</defs>
	<clipPath id="SVGID_2_">
		<use xlink:href="#SVGID_7_"  overflow="visible"/>
	</clipPath>
	<path clip-path="url(#SVGID_2_)" fill="none" stroke="#FFFFFF" stroke-width="5" stroke-miterlimit="10" d="M294.333,114.753
		c1.549-5.558,2.399-11.414,2.399-17.454c0-17.862-7.121-34.13-18.634-45.877c-11.513-11.747-27.489-19.084-45.127-19.048
		c-7.417,0-14.538,1.335-21.143,3.707c-13.579-20.494-36.603-34.056-62.802-34.056c-20.036,0-38.301,7.967-51.806,20.863
		C85.634,33.969,77.516,48.717,74.528,65.319c-2.989-0.445-6.015-0.705-9.151-0.705c-17.527,0-33.467,7.263-44.905,18.973
		C9.069,95.224,1.985,111.418,1.985,129.206c0,22.53,11.364,42.43,28.597,53.992c-0.037,0.852-0.111,1.705-0.111,2.594
		c0,14.044,4.169,27.349,12.213,37.465c4.022,5.04,9.077,9.264,14.944,12.192c5.904,2.927,12.62,4.557,19.851,4.557
		c2.731,0,5.387-0.407,8.007-0.926c3.099-0.667,6.088-1.519,8.634-2.335c1.181,2.149,2.731,4.669,4.65,7.263
		c2.656,3.558,6.088,7.264,10.516,10.414c4.391,3.112,9.889,5.596,16.235,6.411c2.768,0.334,5.461,0.518,8.045,0.518
		c14.722,0,26.309-5.187,34.057-10.302c3.137-2.076,5.682-4.113,7.602-5.892c1.513,0.852,3.284,1.741,5.35,2.668
		c6.642,2.965,16.051,5.929,27.268,5.929c2.619,0,5.35-0.147,8.118-0.518c13.541-1.779,27.342-7.671,38.191-17.454
		c5.424-4.892,10.073-10.821,13.394-17.677c2.213-4.558,3.764-9.561,4.649-14.897c0.775,0.037,1.513,0.148,2.288,0.148
		c12.656,0,24.169-5.262,32.434-13.711c8.266-8.412,13.358-20.085,13.358-32.908C320.274,138.247,309.721,122.275,294.333,114.753z"
		/>
</g>
</svg>
