<?xml version="1.0" encoding="iso-8859-1"?>
<!-- Generator: Adobe Illustrator 18.1.1, SVG Export Plug-In . SVG Version: 6.00 Build 0)  -->
<!DOCTYPE svg PUBLIC "-//W3C//DTD SVG 1.1//EN" "http://www.w3.org/Graphics/SVG/1.1/DTD/svg11.dtd">
<svg version="1.1" id="cloud0" xmlns="http://www.w3.org/2000/svg" xmlns:xlink="http://www.w3.org/1999/xlink" x="0px" y="0px"
	 viewBox="0 0 322.298 264.102" enable-background="new 0 0 322.298 264.102" xml:space="preserve">
<g>
	<defs>
		<rect id="SVGID_3_" x="5.655" y="2.048" width="310.113" height="262.054"/>
	</defs>
	<clipPath id="SVGID_2_">
		<use xlink:href="#SVGID_3_"  overflow="visible"/>
	</clipPath>
	<path clip-path="url(#SVGID_2_)" fill="none" stroke="#FFFFFF" stroke-width="5" stroke-miterlimit="10" d="M259.403,58.513
		c-11.726-31.318-41.864-53.616-77.215-53.616c-29.437,0-55.254,15.468-69.842,38.726c-3.422-0.433-6.899-0.683-10.436-0.683
		c-45.534,0-82.448,36.989-82.448,82.618c0,18.519,6.082,35.615,16.35,49.39c-6.469,7.333-10.405,16.967-10.405,27.527
		c0,7.644,2.067,14.803,5.657,20.955c-1.142-0.213-2.317-0.338-3.52-0.338c-10.517,0.006-19.041,8.544-19.041,19.083
		c0,10.54,8.524,19.077,19.038,19.077c10.515,0,19.037-8.541,19.037-19.077c0-1.244-0.128-2.461-0.356-3.639
		c6.091,3.513,13.15,5.536,20.685,5.536c12.176,0,23.129-5.256,30.721-13.626c13.462,9.584,29.906,15.233,47.675,15.233
		c25.607,0,48.483-11.695,63.61-30.049c6.871,1.86,14.092,2.871,21.553,2.871c45.538,0.002,82.451-36.986,82.451-82.616
		C312.92,100.464,290.663,70.256,259.403,58.513z"/>
</g>
</svg>
