<?xml version="1.0" encoding="iso-8859-1"?>
<!-- Generator: Adobe Illustrator 18.1.1, SVG Export Plug-In . SVG Version: 6.00 Build 0)  -->
<!DOCTYPE svg PUBLIC "-//W3C//DTD SVG 1.1//EN" "http://www.w3.org/Graphics/SVG/1.1/DTD/svg11.dtd">
<svg version="1.1" id="cloud0" xmlns="http://www.w3.org/2000/svg" xmlns:xlink="http://www.w3.org/1999/xlink" x="0px" y="0px"
	 viewBox="0 0 322.298 264.102" enable-background="new 0 0 322.298 264.102" xml:space="preserve">
<g>
	<defs>
		<rect id="SVGID_1_" width="322.298" height="264.102"/>
	</defs>
	<clipPath id="SVGID_2_">
		<use xlink:href="#SVGID_1_"  overflow="visible"/>
	</clipPath>
	<path clip-path="url(#SVGID_2_)" fill="none" stroke="#FFFFFF" stroke-width="5" stroke-miterlimit="10" d="M284.482,165.931
		l-2.653,1.213l1.288,2.629c2.596,5.27,3.914,10.875,3.914,16.661c0,20.784-16.84,37.703-37.535,37.703
		c-6.119,0-11.957-1.44-17.361-4.284l-2.883-1.525l-1.093,3.08c-8.529,24.044-31.303,40.193-56.668,40.193
		c-20.5,0-39.406-10.363-50.572-27.721l-1.902-2.963l-2.476,2.494c-7.088,7.149-16.529,11.094-26.584,11.094
		c-20.696,0-37.536-16.915-37.536-37.702c0-0.601,0.05-1.206,0.092-1.798l0.215-3.084l-2.473-0.469
		C22.583,196.216,2.5,171.887,2.5,143.6c0-23.414,13.827-44.602,35.224-53.987l2.159-0.947l-0.537-2.302
		c-1.127-4.832-1.694-9.62-1.694-14.232c0-34.015,27.558-61.69,61.432-61.69c16.625,0,32.211,6.59,43.888,18.562l2.484,2.553
		l1.916-3.01C157.749,12.236,175.401,2.5,194.579,2.5c27.037,0,50.202,19.367,55.073,46.053l0.476,2.606l2.626-0.296
		c2.48-0.281,4.711-0.416,6.815-0.416c33.208,0,60.229,27.128,60.229,60.469C319.794,134.535,305.926,156.126,284.482,165.931z"/>
</g>
</svg>
