<?xml version="1.0" encoding="iso-8859-1"?>
<!-- Generator: Adobe Illustrator 18.1.1, SVG Export Plug-In . SVG Version: 6.00 Build 0)  -->
<!DOCTYPE svg PUBLIC "-//W3C//DTD SVG 1.1//EN" "http://www.w3.org/Graphics/SVG/1.1/DTD/svg11.dtd">
<svg version="1.1" id="cloud0" xmlns="http://www.w3.org/2000/svg" xmlns:xlink="http://www.w3.org/1999/xlink" x="0px" y="0px"
	 viewBox="0 0 322.298 264.102" enable-background="new 0 0 322.298 264.102" xml:space="preserve">
<g>
	<defs>
		<rect id="SVGID_5_" x="13.654" width="295.802" height="264.102"/>
	</defs>
	<clipPath id="SVGID_2_">
		<use xlink:href="#SVGID_5_"  overflow="visible"/>
	</clipPath>
	<path clip-path="url(#SVGID_2_)" fill="none" stroke="#FFFFFF" stroke-width="5" stroke-miterlimit="10" d="M95.877,39.555
		l3.433,0.695l2.232-2.706C124.886,4.387,168.005-7.088,204.04,10.1c23.768,11.337,41.276,33.823,45.556,60.368l0.836,4.168
		l4.565,0.293c6.099,1.024,12.965,2.414,18.333,4.974c29.901,14.262,42.317,49.399,28.036,79.341
		c-6.592,13.819-18.183,24.31-32.911,29.537l-3.399,1.206l-0.298,4.571c-0.996,8.007-3.123,16.415-6.419,23.325
		c-18.309,38.386-64.759,54.869-103.094,36.584c-4.6-2.194-8.835-5.156-13.069-8.118l-3.834-1.828l-2.631,1.571
		c-22.224,11.075-46.918,11.548-69.153,0.942c-37.568-17.919-54.322-61.72-39.045-99.669l1.465-3.071l-1.568-2.632
		c-13.274-19.526-15.254-44.972-5.366-65.701C34.46,47.957,66.112,32.898,95.877,39.555z"/>
</g>
</svg>
