<?xml version="1.0" encoding="iso-8859-1"?>
<!-- Generator: Adobe Illustrator 18.1.1, SVG Export Plug-In . SVG Version: 6.00 Build 0)  -->
<!DOCTYPE svg PUBLIC "-//W3C//DTD SVG 1.1//EN" "http://www.w3.org/Graphics/SVG/1.1/DTD/svg11.dtd">
<svg version="1.1" id="Layer_1" xmlns="http://www.w3.org/2000/svg" xmlns:xlink="http://www.w3.org/1999/xlink" x="0px" y="0px"
	 viewBox="0 0 394.989 297.005" enable-background="new 0 0 394.989 297.005" xml:space="preserve">
<g>
	<defs>
		<rect id="SVGID_1_" width="394.989" height="297.005"/>
	</defs>
	<clipPath id="SVGID_2_">
		<use xlink:href="#SVGID_1_"  overflow="visible"/>
	</clipPath>
	<path clip-path="url(#SVGID_2_)" fill="#FFFFFF" d="M388.318,0H6.667C2.993,0,0,2.993,0,6.671v283.664
		c0,3.682,2.993,6.67,6.667,6.67h381.655c3.678,0,6.667-2.988,6.667-6.67V6.671C394.984,2.993,391.996,0,388.318,0"/>
	<path clip-path="url(#SVGID_2_)" fill="#FFB71C" d="M391.35,27.821H3.634V6.671c0-1.672,1.361-3.033,3.028-3.033h381.656
		c1.667,0,3.028,1.361,3.028,3.033v21.15H391.35z M378.535,40.57c-0.382-0.136-0.781-0.202-1.207-0.202
		c-0.491,0-0.965,0.097-1.395,0.285c-0.448,0.193-0.826,0.452-1.154,0.777c-0.33,0.329-0.589,0.711-0.782,1.15
		c-0.188,0.443-0.281,0.908-0.281,1.4c0,0.496,0.093,0.961,0.281,1.404c0.193,0.443,0.452,0.826,0.782,1.15
		c0.324,0.325,0.706,0.584,1.154,0.777c0.434,0.189,0.904,0.286,1.395,0.286c0.61,0,1.185-0.141,1.716-0.417
		c0.527-0.277,0.961-0.672,1.29-1.176c0.053-0.08,0.124-0.128,0.22-0.146c0.092-0.017,0.171,0,0.241,0.049l1.537,1.075
		c0.069,0.035,0.1,0.097,0.118,0.193c0.026,0.07,0.013,0.145-0.04,0.224c-0.285,0.426-0.618,0.807-0.991,1.141
		c-0.374,0.338-0.781,0.619-1.211,0.847c-0.439,0.232-0.901,0.408-1.387,0.531c-0.483,0.123-0.979,0.184-1.488,0.184
		c-0.839,0-1.637-0.162-2.379-0.483c-0.746-0.32-1.391-0.759-1.945-1.311c-0.552-0.554-0.991-1.203-1.311-1.945
		c-0.325-0.746-0.483-1.54-0.483-2.383c0-0.842,0.158-1.637,0.483-2.379c0.32-0.742,0.759-1.391,1.311-1.944
		c0.554-0.553,1.199-0.992,1.945-1.312c0.742-0.321,1.54-0.483,2.379-0.483c0.842,0,1.632,0.162,2.374,0.483
		c0.733,0.32,1.374,0.759,1.935,1.317l0.079-0.066l1.032-0.733c0.079-0.062,0.166-0.071,0.276-0.027
		c0.092,0.062,0.141,0.136,0.141,0.233l0.008,4.634c0,0.088-0.03,0.159-0.096,0.211c-0.083,0.053-0.158,0.066-0.25,0.04
		l-4.389-1.501c-0.097-0.035-0.167-0.106-0.18-0.211c-0.022-0.105,0.013-0.184,0.101-0.25l1.031-0.728l0.171-0.132
		C379.255,40.895,378.917,40.702,378.535,40.57 M60.986,49.413v-10.08c0-0.813,0.659-1.471,1.47-1.471h299.845
		c0.812,0,1.47,0.663,1.47,1.471v10.08c0,0.812-0.658,1.475-1.47,1.475H62.461C61.649,50.888,60.986,50.225,60.986,49.413
		 M46.745,46.627v3.48h-3.327v-6.118h-2.142l6.645-6.127l6.649,6.127h-2.146v6.118h-3.406v-3.48H46.745z M26.623,47.324v-6.078
		h4.989v-2.44l6.276,5.481l-6.28,5.482v-2.445H26.623z M21.194,41.246v6.078h-4.991v2.441l-6.28-5.478l6.28-5.481v2.445h4.991
		V41.246z M391.35,86.309v59.995v2.194v2.195V290.33c0,1.672-1.365,3.033-3.028,3.033H6.667c-1.668,0-3.029-1.365-3.029-3.033
		V150.693v-4.389V60.675H391.35V86.309z M388.318,0H6.667C2.993,0,0,2.993,0,6.671v283.664c0,3.682,2.993,6.67,6.667,6.67h381.655
		c3.678,0,6.667-2.988,6.667-6.67V6.671C394.984,2.993,391.996,0,388.318,0"/>
	<path clip-path="url(#SVGID_2_)" fill="#FFB71C" d="M357.096,12.017c2.051,0,3.713,1.662,3.713,3.713
		c0,2.05-1.662,3.713-3.713,3.713c-2.051,0-3.712-1.663-3.712-3.713C353.384,13.679,355.045,12.017,357.096,12.017"/>
	<path clip-path="url(#SVGID_2_)" fill="#FFB71C" d="M368.235,12.017c2.051,0,3.713,1.662,3.713,3.713
		c0,2.05-1.662,3.713-3.713,3.713c-2.051,0-3.712-1.663-3.712-3.713C364.523,13.679,366.184,12.017,368.235,12.017"/>
	<path clip-path="url(#SVGID_2_)" fill="#FFB71C" d="M379.378,12.017c2.051,0,3.713,1.662,3.713,3.713
		c0,2.05-1.662,3.713-3.713,3.713c-2.051,0-3.713-1.663-3.713-3.713C375.665,13.679,377.327,12.017,379.378,12.017"/>
</g>
<polygon fill="#FFB71C" points="358.935,98.712 339.286,117.404 322.569,103.662 302.618,112.33 282.869,126.08 256.703,129.661 
	229.717,113.568 201.856,135.235 166.571,139.878 154.191,126.08 135.196,130.903 116.622,103.662 89.574,132.141 70.729,125.948 
	47.921,137.223 32.016,125.948 6.395,146.304 391.35,146.304 391.35,86.309 377.188,109.236 "/>
<polygon fill="#FFB71C" points="3.634,146.304 3.634,150.692 391.35,150.692 391.35,148.498 391.35,146.304 6.394,146.304 "/>
<g>
	<defs>
		<rect id="SVGID_3_" width="394.989" height="297.005"/>
	</defs>
	<clipPath id="SVGID_4_">
		<use xlink:href="#SVGID_3_"  overflow="visible"/>
	</clipPath>
	<path clip-path="url(#SVGID_4_)" fill="#FFB71C" d="M316.606,219.447v-40.973c-22.431,0.496-40.478,18.801-40.478,41.359
		c0,11.095,4.393,21.154,11.503,28.594L316.606,219.447z"/>
	<path clip-path="url(#SVGID_4_)" fill="#FFB71C" d="M317.536,261.237c22.87,0,41.403-18.534,41.403-41.404
		c0-22.558-18.037-40.863-40.477-41.359v41.359c0,0.259-0.101,0.488-0.272,0.654l-29.247,29.247
		C296.378,256.848,306.432,261.237,317.536,261.237"/>
	<path clip-path="url(#SVGID_4_)" fill="#FFB71C" d="M52.362,261.237c4.253,0,7.689-3.423,7.689-7.667
		c0-1.475-0.435-2.862-1.163-4.024l31.779-31.81c1.18,0.733,2.559,1.167,4.046,1.167c2.103,0,4.016-0.852,5.399-2.23l34.294,21.466
		c-0.268,0.777-0.418,1.615-0.418,2.475c0,4.262,3.424,7.685,7.672,7.685c4.24,0,7.676-3.428,7.676-7.685
		c0-1.071-0.211-2.076-0.601-2.997l37.309-27.368c1.343,1.145,3.085,1.843,4.999,1.843c4.235,0,7.662-3.437,7.662-7.676
		c0-4.249-3.427-7.681-7.662-7.681c-4.258,0-7.681,3.441-7.681,7.681c0,1.071,0.211,2.084,0.597,3.01l-37.3,27.364
		c-1.348-1.163-3.085-1.848-4.994-1.848c-2.094,0-4.02,0.848-5.399,2.235l-34.285-21.484c0.259-0.772,0.413-1.601,0.413-2.475
		c0-4.239-3.445-7.676-7.681-7.676c-4.248,0-7.684,3.437-7.684,7.676c0,1.488,0.434,2.866,1.163,4.038L56.4,247.043
		c-1.168-0.728-2.554-1.158-4.038-1.158c-4.24,0-7.676,3.45-7.676,7.672C44.695,257.814,48.127,261.237,52.362,261.237"/>
</g>
<g>
</g>
<g>
</g>
<g>
</g>
<g>
</g>
<g>
</g>
<g>
</g>
<g>
</g>
<g>
</g>
<g>
</g>
<g>
</g>
<g>
</g>
<g>
</g>
<g>
</g>
<g>
</g>
<g>
</g>
</svg>
