<?xml version="1.0" encoding="iso-8859-1"?>
<!-- Generator: Adobe Illustrator 18.1.1, SVG Export Plug-In . SVG Version: 6.00 Build 0)  -->
<!DOCTYPE svg PUBLIC "-//W3C//DTD SVG 1.1//EN" "http://www.w3.org/Graphics/SVG/1.1/DTD/svg11.dtd">
<svg version="1.1" id="Layer_1" xmlns="http://www.w3.org/2000/svg" xmlns:xlink="http://www.w3.org/1999/xlink" x="0px" y="0px"
	 viewBox="0 0 90.342 120.89" enable-background="new 0 0 90.342 120.89" xml:space="preserve">
<g>
	<defs>
		<rect id="SVGID_1_" width="90.342" height="120.89"/>
	</defs>
	<clipPath id="SVGID_2_">
		<use xlink:href="#SVGID_1_"  overflow="visible"/>
	</clipPath>
	<path clip-path="url(#SVGID_2_)" fill="#F0F0F0" d="M47.96,118.77l1.147-1.999c0.138-0.134,0.238-0.306,0.286-0.497l18.623-32.44
		c12.522,7.319,19.86,19.787,20.187,34.936H47.96z M47.298,115.654l-1.789,3.116h-0.678l-1.789-3.116V97.015
		c0.665,0.236,1.382,0.364,2.128,0.364c0.746,0,1.461-0.128,2.128-0.364V115.654z M2.14,118.77
		c0.326-15.149,7.664-27.617,20.186-34.936l18.622,32.44c0.048,0.193,0.149,0.363,0.286,0.497l1.147,1.999H2.14z M27.595,81.192
		l9.572,13.652l1.868-2.072c0.342,1.187,1.021,2.231,1.927,3.024c-0.03,0.099-0.046,0.203-0.046,0.312v15.839L24.187,82.806
		C25.286,82.231,26.424,81.692,27.595,81.192 M31.121,79.846l10.223,7.197l-3.967,4.399l-7.755-11.06
		C30.116,80.197,30.615,80.018,31.121,79.846 M36.626,74.842c2.856,2.043,5.807,3.315,8.526,3.315c2.731,0,5.694-1.28,8.561-3.338
		c0.957,2.405,1.946,3.482,3.036,4.094l-10.152,6.529h-3.842l-9.224-6.494C34.645,78.345,35.652,77.281,36.626,74.842
		 M26.666,59.715c-0.215-0.422-0.679-0.654-1.149-0.562c-0.942,0.204-3.609-2.34-5.374-7.783c-1.789-5.519-1.089-9.103-0.216-9.477
		c1.031-0.206,7.577-1.894,8.849-11.759c0.249-0.06,0.619-0.112,1.159-0.112c6.815,0,24.628,7.53,26.816,10.209
		c0.213,0.261,0.59,0.391,0.848,0.391c0.621-0.028,1.084-0.468,1.084-1.059c0-0.213-0.063-0.409-0.17-0.574
		c-0.938-3.074-1.901-6.354-2.433-8.308c2.687,1.72,7.994,6.344,9.608,13.355c0.077,0.336,0.314,0.615,0.636,0.745
		c0.13,0.052,0.266,0.077,0.401,0.077c0.202,0,0.402-0.058,0.578-0.169c0.128-0.082,1.445-0.953,3.042-2.81
		c0.889,0.298,1.628,3.905-0.184,9.494c-1.764,5.441-4.437,7.963-5.374,7.781c-0.465-0.091-0.933,0.142-1.148,0.562
		C59.064,68.717,50.77,76.04,45.152,76.04C39.535,76.039,31.241,68.717,26.666,59.715 M18.075,14.347
		c1.721-2.405,4.531-2.73,7.051-2.73l1.847,0.023c0.357,0,0.671-0.011,0.934-0.04c0.175-0.02,0.342-0.082,0.488-0.181
		c8.949-6.173,17.07-9.303,24.137-9.303c5.948,0,11.176,2.307,15.123,6.669c4.963,5.489,7.038,13.295,6.524,18.171
		c-0.894,8.444-4.853,13.122-6.86,14.988c-2.774-8.698-10.816-14.115-12.592-14.115c-0.587,0-1.191,0.559-1.191,1.144
		c0,0.658,1.076,4.415,2.089,7.806c-6.182-3.719-19.868-8.876-25.689-8.876c-1.186,0-2.074,0.195-2.713,0.597
		c-0.276,0.174-0.457,0.465-0.489,0.788c-0.755,7.373-4.66,9.639-6.414,10.29C15.986,26.809,15.231,18.322,18.075,14.347
		 M59.22,79.846c0.506,0.172,1.005,0.351,1.501,0.536l-7.755,11.06l-4.323-4.794L59.22,79.846z M45.171,95.261
		c-2.347,0-4.255-1.899-4.255-4.236c0-0.101-0.015-0.199-0.042-0.291l2.535-2.813c0.098-0.108,0.169-0.231,0.214-0.36h3.095
		c0.045,0.13,0.116,0.252,0.214,0.36l2.534,2.812c-0.027,0.093-0.042,0.191-0.042,0.292C49.426,93.362,47.518,95.261,45.171,95.261
		 M66.156,82.806l-16.73,29.143v-15.84c0-0.108-0.017-0.212-0.047-0.311c0.908-0.794,1.587-1.839,1.928-3.026l1.87,2.072
		l9.572-13.652C63.919,81.692,65.055,82.231,66.156,82.806 M59.141,77.587l-0.254-0.081c-1.183-0.373-2.207-0.696-3.419-4.054
		c3.85-3.228,7.387-7.72,9.761-12.191c2.822-0.33,5.527-4.828,6.955-9.24c1.584-4.879,1.829-10.249-0.524-11.836
		c1.972-2.805,4-7.033,4.632-13.008C76.839,22,74.864,13.593,69.235,7.368C64.874,2.547,59.099,0,52.53,0
		c-7.442,0-15.889,3.2-25.111,9.515c-0.136,0.007-0.287,0.008-0.447,0.008L25.124,9.5c-2.883,0-6.488,0.412-8.783,3.62
		c-3.318,4.637-2.661,13.57,2.013,27.292c-2.04,1.823-1.751,6.941-0.236,11.611c1.43,4.413,4.134,8.91,6.955,9.24
		c2.38,4.482,5.933,8.988,9.795,12.218c-1.205,3.331-2.227,3.654-3.405,4.023l-0.253,0.082C11.667,83.902,0,99.694,0,119.83v1.06
		h90.342v-1.06C90.342,99.695,78.678,83.905,59.141,77.587"/>
</g>
<g>
</g>
<g>
</g>
<g>
</g>
<g>
</g>
<g>
</g>
<g>
</g>
<g>
</g>
<g>
</g>
<g>
</g>
<g>
</g>
<g>
</g>
<g>
</g>
<g>
</g>
<g>
</g>
<g>
</g>
</svg>
