<?xml version="1.0" encoding="iso-8859-1"?>
<!-- Generator: Adobe Illustrator 18.1.1, SVG Export Plug-In . SVG Version: 6.00 Build 0)  -->
<!DOCTYPE svg PUBLIC "-//W3C//DTD SVG 1.1//EN" "http://www.w3.org/Graphics/SVG/1.1/DTD/svg11.dtd">
<svg version="1.1" id="Layer_1" xmlns="http://www.w3.org/2000/svg" xmlns:xlink="http://www.w3.org/1999/xlink" x="0px" y="0px"
	 viewBox="0 0 15.641 13.172" style="enable-background:new 0 0 15.641 13.172;" xml:space="preserve">
<path d="M3.837,5.95c1.164,0,2.181,1.853,2.353,4.737l0.035,0.003c0.161-0.582,0.232-1.195,0.214-1.805
	c0-2.102-1.002-3.961-2.349-3.961c-1.264,0-1.375,1.038-1.073,1.496C3.138,6.259,3.361,5.95,3.837,5.95"/>
<path d="M5.127,11.19c0.062-0.268,0.103-0.476,0.103-0.839c0-1.311-0.799-3.468-2.327-3.468c-1.163,0-1.326,1.101-0.953,1.451
	C2.025,8.089,2.284,7.76,2.759,7.76c1.23,0,2.148,1.924,2.339,3.43H5.127z"/>
<path d="M12.773,6.42c0.121-0.168,0.17-0.385,0.17-0.531c0-0.503-0.475-0.985-1.173-0.985c-2.03,0-2.782,3.515-2.201,5.759h0.027
	c0.201-3.082,1.196-4.736,2.333-4.736C12.52,5.927,12.723,6.274,12.773,6.42"/>
<path d="M12.849,6.893c-1.917,0-2.621,3.19-2.233,4.3h0.024c0.225-1.618,1.108-3.425,2.303-3.425c0.642,0,0.817,0.396,0.841,0.57
	C14.194,7.907,13.949,6.893,12.849,6.893"/>
<path d="M8.237,12.261c-1.148,0-2.341,0.272-3.319,0.881l0.013,0.03c0.474-0.073,1.632-0.203,3.052-0.203
	c1.568,0,2.133,0.203,2.394,0.203c0.177,0,0.258-0.098,0.258-0.261C10.635,12.465,9.493,12.261,8.237,12.261"/>
<path d="M8.237,11.07c-0.98,0-2.321,0.254-3.319,0.878l0.013,0.032c0.397-0.055,1.665-0.221,3.101-0.221
	c1.36,0,2.139,0.221,2.345,0.221c0.177,0,0.258-0.1,0.258-0.26C10.635,11.269,9.493,11.07,8.237,11.07"/>
<path d="M12.777,3.43c-0.146,0.026-0.35,0.244-0.35,0.571c0,0.374,0.277,1.126,1.354,1.126c1.11,0,1.86-0.818,1.86-1.936
	c0-1.098-0.809-2.113-2.585-2.113c-2.114,0-4.832,1.87-4.832,6.413c0.002,0.868,0.107,1.815,0.32,2.839h0.037
	c0-5.584,2.115-8.218,4.399-8.218c0.979,0,1.514,0.616,1.514,1.256c0,0.589-0.354,1.011-0.916,1.011
	C12.885,4.379,12.672,3.787,12.777,3.43"/>
<path d="M2.863,4.112C2.784,4.251,2.543,4.465,2.11,4.465c-0.533,0-0.971-0.434-0.971-1.054c0-0.554,0.492-1.121,1.365-1.121
	c2.162,0,4.698,3.078,4.73,6.998c0,0.249-0.016,0.685-0.06,1.04l0.035,0.007c0.232-0.673,0.414-1.723,0.414-2.46
	c0-3.417-2.358-6.698-5.138-6.698C0.836,1.177,0,2.26,0,3.209C0,4.289,0.643,5.11,1.643,5.11C2.428,5.11,2.863,4.546,2.863,4.112"/>
<path d="M2.569,0C2.354,0,2.236,0.111,2.236,0.268c0,0.196,0.127,0.294,0.382,0.397c0.77,0.311,2.239,0.5,3.901,0.501
	c2.943,0,5.949-0.414,7.282-0.946l-0.01-0.033c-1.083,0.07-2.95,0.192-5.932,0.192C3.799,0.379,2.948,0,2.569,0"/>
<path d="M4.91,1.525L4.906,1.556C5.252,1.683,6.868,2.386,7.58,5.02c0.04,0.155,0.119,0.216,0.227,0.216
	c0.17,0,0.243-0.124,0.243-0.354c0-1.231-0.675-2.321-1.273-2.795C6.181,1.609,5.385,1.491,4.91,1.525"/>
<path d="M8.895,1.915c0.507-0.534,1.257-0.732,2.044-0.658l0.002,0.03c-0.258,0.07-0.881,0.296-1.499,0.944
	C8.93,2.772,8.573,3.424,8.395,4.001C8.197,2.915,8.558,2.273,8.895,1.915"/>
<g>
</g>
<g>
</g>
<g>
</g>
<g>
</g>
<g>
</g>
<g>
</g>
<g>
</g>
<g>
</g>
<g>
</g>
<g>
</g>
<g>
</g>
<g>
</g>
<g>
</g>
<g>
</g>
<g>
</g>
</svg>
