<?xml version="1.0" encoding="iso-8859-1"?>
<!-- Generator: Adobe Illustrator 18.1.1, SVG Export Plug-In . SVG Version: 6.00 Build 0)  -->
<!DOCTYPE svg PUBLIC "-//W3C//DTD SVG 1.1//EN" "http://www.w3.org/Graphics/SVG/1.1/DTD/svg11.dtd">
<svg version="1.1" id="Layer_1" xmlns="http://www.w3.org/2000/svg" xmlns:xlink="http://www.w3.org/1999/xlink" x="0px" y="0px"
	 viewBox="0 0 252 29.711" enable-background="new 0 0 252 29.711" xml:space="preserve">
<polygon fill="#FFFFFF" points="41.909,14.339 40.057,14.339 40.057,13.041 44.487,13.041 44.487,14.339 52.278,22.873 
	52.278,14.339 50.322,14.339 50.322,13.041 55.764,13.041 55.764,14.339 53.851,14.339 53.851,26.864 52.409,26.864 43.455,17.224 
	43.455,25.572 45.361,25.572 45.361,26.864 40.057,26.864 40.057,25.572 41.909,25.572 "/>
<g>
	<defs>
		<rect id="SVGID_1_" y="0" width="252" height="29.711"/>
	</defs>
	<clipPath id="SVGID_2_">
		<use xlink:href="#SVGID_1_"  overflow="visible"/>
	</clipPath>
	<path clip-path="url(#SVGID_2_)" fill="#FFFFFF" d="M56.093,21.946c0,2.154,1.425,5.192,5.549,5.192c3.846,0,5.51-2.741,5.51-5.192
		c0-2.56-1.822-5.214-5.488-5.214C57.647,16.732,56.093,19.645,56.093,21.946 M59.056,21.901c0-2.325,0.778-4.1,2.586-4.1
		c1.683,0,2.562,1.56,2.562,4.241c0,2.538-1.002,4.034-2.562,4.034C60.015,26.076,59.056,24.537,59.056,21.901"/>
	<path clip-path="url(#SVGID_2_)" fill="#FFFFFF" d="M69.663,18.072h-1.73v-1.055h4.387v1.662h0.042
		c0.417-0.629,0.81-1.115,1.205-1.439c0.388-0.339,0.809-0.507,1.225-0.507c0.477,0,1.143,0.418,1.589,0.978
		c-0.117,0.896-0.487,2.005-0.972,2.786c-0.549-1.011-1.01-1.407-1.655-1.407c-0.557,0-0.835,0.296-1.434,0.967v5.753h1.702v1.055
		h-6.089V25.81h1.73V18.072z"/>
	<path clip-path="url(#SVGID_2_)" fill="#FFFFFF" d="M77.007,18.307l4.13-3.968v2.678h2.769v1.29h-2.769v5.632
		c0,1.263,0.439,2.137,1.317,2.137c0.781,0,1.271-0.735,1.64-0.735c0.179,0,0.297,0.09,0.297,0.284c0,0.477-0.899,1.513-2.927,1.513
		c-2.057,0-2.978-1.036-2.978-3.316v-5.515H77.007z"/>
	<path clip-path="url(#SVGID_2_)" fill="#FFFFFF" d="M89.634,18.184c1.219-0.869,2.47-1.452,3.506-1.452
		c1.571,0,2.719,1.232,2.719,2.913v6.165h1.733v1.054h-5.811V25.81h1.427v-5.636c0-1.155-0.534-1.776-1.499-1.776
		c-0.549,0-1.287,0.296-2.075,0.804v6.608h1.413v1.054h-5.825V25.81h1.761V12.745h-1.761V11.68h4.412V18.184z"/>
</g>
<polygon fill="#FFFFFF" points="96.87,18.072 96.87,17.017 102.318,17.017 102.318,18.072 100.979,18.072 103.193,23.012 
	105.017,18.072 103.627,18.072 103.627,17.017 108.664,17.017 108.664,18.072 107.398,18.072 109.631,23.012 111.457,18.072 
	109.954,18.072 109.954,17.017 114.017,17.017 114.017,18.072 112.628,18.072 109.217,27.076 108.664,27.076 105.406,20.083 
	102.779,27.076 102.318,27.076 98.141,18.072 "/>
<g>
	<defs>
		<rect id="SVGID_3_" y="0" width="252" height="29.711"/>
	</defs>
	<clipPath id="SVGID_4_">
		<use xlink:href="#SVGID_3_"  overflow="visible"/>
	</clipPath>
	<path clip-path="url(#SVGID_4_)" fill="#FFFFFF" d="M123.343,21.302c-0.301-2.79-2.054-4.57-4.504-4.57
		c-2.674,0-4.518,2.054-4.518,5.008c0,2.333,1.223,5.397,5.304,5.397c1.411,0,2.424-0.273,3.718-1.007l0.183-1.299
		c-0.76,0.599-2.099,1.024-3.133,1.024c-1.964,0-3.256-1.855-3.256-4.553H123.343z M117.137,20.242
		c0.02-1.223,0.549-2.441,1.636-2.441c0.946,0,1.62,0.877,1.828,2.441H117.137z"/>
	<path clip-path="url(#SVGID_4_)" fill="#FFFFFF" d="M125.088,23.959h0.668c0.419,1.343,1.312,2.116,2.445,2.116
		c0.757,0,1.363-0.382,1.363-1.17c0-1.594-4.573-2.033-4.573-5.145c0-1.71,1.452-3.028,3.348-3.028c0.697,0,1.248,0.168,1.888,0.583
		l0.183-0.51h0.746v2.629h-0.746c-0.41-1.177-0.897-1.633-1.79-1.633c-0.837,0-1.366,0.369-1.366,0.944
		c0,2.007,4.685,1.978,4.685,5.328c0,1.823-1.454,3.065-3.508,3.065c-0.857,0-1.662-0.182-2.422-0.574l-0.113,0.468h-0.808V23.959z"
		/>
	<path clip-path="url(#SVGID_4_)" fill="#FFFFFF" d="M132.633,18.307l4.129-3.968v2.678h2.767v1.29h-2.767v5.632
		c0,1.263,0.439,2.137,1.314,2.137c0.787,0,1.268-0.735,1.64-0.735c0.183,0,0.302,0.09,0.302,0.284c0,0.477-0.904,1.513-2.931,1.513
		c-2.055,0-2.982-1.036-2.982-3.316v-5.515H132.633z"/>
	<path clip-path="url(#SVGID_4_)" fill="#FFFFFF" d="M149.439,21.302c-0.295-2.79-2.047-4.57-4.489-4.57
		c-2.685,0-4.528,2.054-4.528,5.008c0,2.333,1.223,5.397,5.306,5.397c1.405,0,2.426-0.273,3.711-1.007l0.19-1.299
		c-0.766,0.599-2.099,1.024-3.136,1.024c-1.963,0-3.253-1.855-3.253-4.553H149.439z M143.24,20.242
		c0.025-1.223,0.549-2.441,1.632-2.441c0.948,0,1.621,0.877,1.828,2.441H143.24z"/>
	<path clip-path="url(#SVGID_4_)" fill="#FFFFFF" d="M152.362,18.072h-1.737v-1.055h4.394v1.662h0.041
		c0.418-0.629,0.81-1.115,1.202-1.439c0.392-0.339,0.802-0.507,1.223-0.507c0.483,0,1.153,0.418,1.584,0.978
		c-0.109,0.896-0.476,2.005-0.963,2.786c-0.551-1.011-1.01-1.407-1.667-1.407c-0.549,0-0.827,0.296-1.42,0.967v5.753h1.705v1.055
		h-6.099V25.81h1.737V18.072z"/>
	<path clip-path="url(#SVGID_4_)" fill="#FFFFFF" d="M161.84,18.072h-1.723v-1.055h4.378v1.191c1.313-0.893,2.257-1.475,3.487-1.475
		c1.729,0,2.745,1.138,2.745,3.028v6.049h1.729v1.055h-5.815V25.81h1.43v-5.889c0-0.996-0.668-1.523-1.405-1.523
		c-0.643,0-1.266,0.232-2.171,0.785v6.627h1.378v1.055h-5.756V25.81h1.723V18.072z"/>
</g>
<polygon fill="#FFFFFF" points="180.23,14.339 178.365,14.339 178.365,13.041 183.399,13.041 183.399,14.339 187.341,22.475 
	191.222,14.339 191.222,13.041 196.41,13.041 196.41,14.339 194.565,14.339 194.565,25.572 196.41,25.572 196.41,26.864 
	189.834,26.864 189.834,25.572 191.771,25.572 191.771,16.847 191.725,16.847 186.995,26.864 186.463,26.864 181.848,17.24 
	181.805,17.24 181.805,25.572 183.672,25.572 183.672,26.864 178.365,26.864 178.365,25.572 180.23,25.572 "/>
<g>
	<defs>
		<rect id="SVGID_5_" y="0" width="252" height="29.711"/>
	</defs>
	<clipPath id="SVGID_6_">
		<use xlink:href="#SVGID_5_"  overflow="visible"/>
	</clipPath>
	<path clip-path="url(#SVGID_6_)" fill="#FFFFFF" d="M208.933,25.81v1.054h-4.379v-0.94c-1.296,0.894-2.45,1.214-3.397,1.214
		c-2.167,0-2.815-1.317-2.815-2.767v-6.299h-1.733v-1.056h4.386v7.151c0,0.922,0.477,1.592,1.34,1.592
		c0.599,0,1.224-0.26,2.219-0.853v-6.834h-1.71v-1.056h4.359v8.794H208.933z"/>
	<path clip-path="url(#SVGID_6_)" fill="#FFFFFF" d="M209.163,18.307l4.136-3.968v2.678h2.765v1.29h-2.765v5.632
		c0,1.263,0.434,2.137,1.311,2.137c0.79,0,1.269-0.735,1.642-0.735c0.18,0,0.296,0.09,0.296,0.284c0,0.477-0.902,1.513-2.928,1.513
		c-2.053,0-2.982-1.036-2.982-3.316v-5.515H209.163z"/>
	<path clip-path="url(#SVGID_6_)" fill="#FFFFFF" d="M229.272,25.81v1.054h-4.387v-0.94c-1.296,0.894-2.447,1.214-3.391,1.214
		c-2.171,0-2.822-1.317-2.822-2.767v-6.299h-1.73v-1.056h4.388v7.151c0,0.922,0.491,1.592,1.341,1.592
		c0.596,0,1.216-0.26,2.214-0.853v-6.834h-1.704v-1.056h4.357v8.794H229.272z"/>
	<path clip-path="url(#SVGID_6_)" fill="#FFFFFF" d="M239.47,25.456c-0.281,0.138-0.492,0.188-0.745,0.188
		c-0.6,0-1.151-0.464-1.151-1.274v-4.378c0-1.889-1.409-3.26-3.318-3.26c-1.303,0-2.822,0.653-3.975,1.686l0.182,0.81
		c1.181-0.716,1.988-0.993,2.749-0.993c1.107,0,1.706,0.668,1.706,1.939v1.15l-2.374,0.606c-1.795,0.459-2.563,1.2-2.563,2.537
		c0,1.544,0.966,2.671,2.306,2.671c0.883,0,1.737-0.362,2.865-1.215c0.3,0.735,1.083,1.215,1.998,1.215
		c0.817,0,1.575-0.226,2.32-0.684V25.456z M234.918,22.463v2.369c-0.481,0.395-1.012,0.658-1.427,0.658
		c-0.6,0-1.063-0.539-1.063-1.205C232.428,23.377,232.953,22.919,234.918,22.463"/>
</g>
<polygon fill="#FFFFFF" points="241.917,12.745 240.206,12.745 240.206,11.681 244.571,11.681 244.571,25.81 246.276,25.81 
	246.276,26.864 240.206,26.864 240.206,25.81 241.917,25.81 "/>
<g>
	<defs>
		<rect id="SVGID_7_" y="0" width="252" height="29.711"/>
	</defs>
	<clipPath id="SVGID_8_">
		<use xlink:href="#SVGID_7_"  overflow="visible"/>
	</clipPath>
	<path clip-path="url(#SVGID_8_)" fill="#FFFFFF" d="M8.569,13.421c2.6,0,4.872,4.179,5.256,10.684l0.077,0.006
		c0.36-1.312,0.518-2.694,0.479-4.071c0-4.742-2.238-8.935-5.246-8.935c-2.825,0-3.071,2.343-2.397,3.374
		C7.008,14.118,7.505,13.421,8.569,13.421 M11.451,25.239c0.138-0.603,0.229-1.072,0.229-1.892c0-2.956-1.784-7.821-5.197-7.821
		c-2.597,0-2.961,2.482-2.128,3.272c0.168-0.554,0.745-1.295,1.806-1.295c2.747,0,4.799,4.34,5.224,7.736H11.451z M28.527,14.479
		c0.271-0.378,0.379-0.866,0.379-1.197c0-1.134-1.06-2.222-2.618-2.222c-4.534,0-6.214,7.93-4.917,12.991h0.06
		c0.449-6.952,2.671-10.683,5.211-10.683C27.962,13.368,28.417,14.152,28.527,14.479 M28.697,15.547
		c-4.281,0-5.854,7.197-4.988,9.699h0.055c0.502-3.65,2.475-7.724,5.142-7.724c1.434,0,1.826,0.891,1.88,1.285
		C31.702,17.835,31.154,15.547,28.697,15.547 M18.397,27.656c-2.564,0-5.23,0.613-7.413,1.985l0.028,0.07
		c1.059-0.166,3.645-0.458,6.817-0.458c3.501,0,4.763,0.458,5.346,0.458c0.395,0,0.576-0.223,0.576-0.589
		C23.751,28.116,21.201,27.656,18.397,27.656 M18.397,24.969c-2.189,0-5.185,0.573-7.413,1.98l0.028,0.073
		c0.887-0.125,3.72-0.499,6.927-0.499c3.037,0,4.777,0.499,5.236,0.499c0.395,0,0.576-0.225,0.576-0.587
		C23.751,25.419,21.201,24.969,18.397,24.969 M28.537,7.736c-0.326,0.058-0.783,0.551-0.783,1.288c0,0.843,0.619,2.539,3.024,2.539
		c2.48,0,4.156-1.843,4.156-4.367c0-2.476-1.809-4.764-5.774-4.764c-4.723,0-10.792,4.217-10.792,14.465
		c0.004,1.957,0.239,4.093,0.713,6.402h0.084c0-12.595,4.722-18.536,9.824-18.536c2.188,0,3.382,1.39,3.382,2.834
		c0,1.328-0.791,2.279-2.046,2.279C28.778,9.876,28.302,8.54,28.537,7.736 M6.393,9.274c-0.176,0.314-0.714,0.798-1.681,0.798
		c-1.19,0-2.168-0.981-2.168-2.378c0-1.25,1.099-2.53,3.047-2.53c4.83,0,10.494,6.943,10.565,15.786
		c0,0.561-0.037,1.544-0.134,2.346l0.079,0.016c0.518-1.518,0.925-3.887,0.925-5.551c0-7.705-5.266-15.106-11.476-15.106
		C1.867,2.655,0,5.097,0,7.237c0,2.437,1.436,4.288,3.67,4.288C5.423,11.525,6.393,10.253,6.393,9.274 M5.736,0
		C5.257,0,4.992,0.25,4.992,0.604c0,0.442,0.286,0.663,0.854,0.895c1.719,0.702,5.001,1.127,8.714,1.131
		c6.573,0,13.286-0.934,16.263-2.134L30.801,0.42c-2.418,0.158-6.589,0.434-13.249,0.434C8.483,0.854,6.583,0,5.736,0 M10.965,3.44
		l-0.009,0.07c0.774,0.285,4.382,1.871,5.972,7.812c0.09,0.35,0.266,0.489,0.508,0.489c0.38,0,0.542-0.281,0.542-0.799
		c0-2.778-1.506-5.235-2.842-6.304C13.804,3.628,12.026,3.364,10.965,3.44 M19.866,4.319c1.131-1.204,2.808-1.651,4.564-1.485
		l0.005,0.07c-0.576,0.157-1.968,0.666-3.347,2.127c-1.144,1.22-1.941,2.693-2.339,3.993C18.307,6.574,19.114,5.126,19.866,4.319"/>
	<path clip-path="url(#SVGID_8_)" fill="#FFFFFF" d="M249.674,13.33h0.464c0.152,0,0.397-0.037,0.397-0.292
		c0-0.122-0.085-0.276-0.358-0.276h-0.503V13.33z M249.674,14.512h-0.443v-2.088h0.973c0.124,0,0.795,0,0.795,0.622
		c0,0.398-0.284,0.513-0.388,0.558l0.388,0.908h-0.473l-0.34-0.832h-0.512V14.512z M250.052,15.069c0.88,0,1.599-0.718,1.599-1.598
		c0-0.897-0.719-1.606-1.599-1.606c-0.87,0-1.597,0.709-1.597,1.606C248.455,14.351,249.173,15.069,250.052,15.069 M250.052,11.516
		c1.06,0,1.948,0.858,1.948,1.955c0,1.07-0.87,1.948-1.948,1.948c-1.077,0-1.944-0.878-1.944-1.948
		C248.108,12.374,248.984,11.516,250.052,11.516"/>
</g>
<g>
</g>
<g>
</g>
<g>
</g>
<g>
</g>
<g>
</g>
<g>
</g>
<g>
</g>
<g>
</g>
<g>
</g>
<g>
</g>
<g>
</g>
<g>
</g>
<g>
</g>
<g>
</g>
<g>
</g>
</svg>
