<?xml version="1.0" encoding="iso-8859-1"?>
<!-- Generator: Adobe Illustrator 18.1.1, SVG Export Plug-In . SVG Version: 6.00 Build 0)  -->
<!DOCTYPE svg PUBLIC "-//W3C//DTD SVG 1.1//EN" "http://www.w3.org/Graphics/SVG/1.1/DTD/svg11.dtd">
<svg version="1.1" id="Layer_1" xmlns="http://www.w3.org/2000/svg" xmlns:xlink="http://www.w3.org/1999/xlink" x="0px" y="0px"
	 viewBox="0 0 32 32" enable-background="new 0 0 32 32" xml:space="preserve">
<path fill="#FFFFFF" stroke="#FFB81C" stroke-miterlimit="10" d="M5.5,27.373c0.012,0.001,0.057,0.004,0.072,0.004
	c2.252,0,4.431-0.817,6.135-2.301l0.04-0.035l0.053,0.01c1.348,0.261,2.743,0.394,4.146,0.394c8.212,0,14.894-4.512,14.894-10.059
	S24.158,5.327,15.945,5.327c-8.213,0-14.894,4.512-14.894,10.058c0,2.846,1.79,5.569,4.911,7.47l0.053,0.032v0.062
	c0,1.317-0.306,2.589-0.91,3.781c-0.062,0.123-0.052,0.279,0.027,0.417C5.201,27.271,5.345,27.36,5.5,27.373"/>
<path fill="#FFB81C" d="M12.799,11.519c-0.809,0.488-1.38,1.261-1.606,2.176c-0.463,1.887,0.703,3.8,2.598,4.264
	c0.918,0.224,1.87,0.079,2.679-0.41c0.809-0.488,1.379-1.26,1.604-2.174c0.465-1.889-0.699-3.802-2.596-4.266
	C14.56,10.885,13.609,11.031,12.799,11.519 M16.872,18.209c-0.986,0.595-2.146,0.772-3.266,0.499
	c-2.31-0.566-3.73-2.897-3.166-5.197c0.276-1.115,0.971-2.057,1.957-2.652c0.986-0.595,2.146-0.772,3.266-0.5
	c2.312,0.565,3.732,2.898,3.164,5.199C18.553,16.672,17.858,17.614,16.872,18.209"/>
<path fill="#FFB81C" d="M18.803,19.073c-0.907,0.547-2.022,0.754-3.133,0.491c-0.632-0.152-1.202-0.436-1.697-0.845
	c-0.165-0.136-0.187-0.379-0.051-0.544c0.137-0.164,0.381-0.186,0.546-0.05c0.403,0.333,0.869,0.565,1.383,0.689
	c1.823,0.431,3.66-0.691,4.096-2.505c0.436-1.815-0.692-3.645-2.516-4.08c-0.208-0.049-0.337-0.258-0.287-0.465
	c0.05-0.208,0.259-0.335,0.467-0.286c2.24,0.535,3.626,2.782,3.09,5.011C20.432,17.61,19.725,18.518,18.803,19.073"/>
<path fill="#FFB81C" d="M15.166,15.977c-0.047,0.028-0.096,0.053-0.149,0.075c-0.25,0.102-0.551,0.119-0.845,0.048
	c-0.413-0.098-0.74-0.416-0.852-0.828c-0.055-0.205,0.066-0.416,0.273-0.473c0.207-0.056,0.42,0.066,0.475,0.272
	c0.038,0.139,0.147,0.246,0.285,0.279c0.136,0.033,0.269,0.029,0.367-0.011c0.097-0.04,0.126-0.104,0.138-0.155
	c0.039-0.158,0.079-0.321-0.357-0.428c-0.208-0.051-0.335-0.26-0.284-0.467c0.051-0.207,0.261-0.334,0.469-0.283
	c0.743,0.182,1.09,0.69,0.925,1.36C15.549,15.629,15.392,15.841,15.166,15.977"/>
<path fill="#FFB81C" d="M14.934,14.752c-0.085,0.051-0.19,0.07-0.294,0.045c-0.719-0.177-1.067-0.689-0.911-1.337
	c0.148-0.594,0.744-0.904,1.421-0.74c0.412,0.1,0.738,0.414,0.85,0.82c0.057,0.206-0.063,0.418-0.271,0.474
	c-0.206,0.056-0.42-0.064-0.476-0.27c-0.037-0.136-0.147-0.241-0.286-0.274c-0.044-0.011-0.419-0.094-0.483,0.173
	c-0.031,0.127-0.074,0.303,0.343,0.405c0.208,0.051,0.335,0.261,0.283,0.468C15.083,14.617,15.019,14.701,14.934,14.752"/>
<path fill="#FFB81C" d="M14.317,16.972c-0.084,0.051-0.189,0.07-0.293,0.045c-0.208-0.051-0.335-0.26-0.284-0.467l0.211-0.861
	c0.051-0.207,0.26-0.333,0.469-0.283c0.208,0.051,0.335,0.26,0.284,0.467l-0.212,0.86C14.467,16.837,14.402,16.92,14.317,16.972"/>
<path fill="#FFB81C" d="M15.202,13.377c-0.085,0.051-0.189,0.07-0.293,0.045c-0.208-0.051-0.335-0.26-0.284-0.467l0.185-0.752
	c0.051-0.208,0.262-0.333,0.469-0.283c0.208,0.051,0.336,0.26,0.284,0.467l-0.185,0.752C15.353,13.243,15.287,13.326,15.202,13.377"
	/>
<rect x="1.051" y="5.327" fill="none" width="29.788" height="22.05"/>
</svg>
