<?xml version="1.0" encoding="iso-8859-1"?>
<!-- Generator: Adobe Illustrator 18.1.1, SVG Export Plug-In . SVG Version: 6.00 Build 0)  -->
<!DOCTYPE svg PUBLIC "-//W3C//DTD SVG 1.1//EN" "http://www.w3.org/Graphics/SVG/1.1/DTD/svg11.dtd">
<svg version="1.1" id="Layer_1" xmlns="http://www.w3.org/2000/svg" xmlns:xlink="http://www.w3.org/1999/xlink" x="0px" y="0px"
	 viewBox="0 0 32 32" enable-background="new 0 0 32 32" xml:space="preserve">
<g>
	<defs>
		<rect id="SVGID_1_" x="4.759" width="23.741" height="31.769"/>
	</defs>
	<clipPath id="SVGID_2_">
		<use xlink:href="#SVGID_1_"  overflow="visible"/>
	</clipPath>
	<path clip-path="url(#SVGID_2_)" fill="#FFB81C" d="M17.363,31.212l0.301-0.525c0.036-0.035,0.063-0.081,0.075-0.131l4.894-8.525
		c3.291,1.923,5.219,5.2,5.305,9.181H17.363z M17.188,30.393l-0.47,0.819H16.54l-0.47-0.819v-4.898
		c0.175,0.062,0.363,0.096,0.559,0.096c0.196,0,0.384-0.034,0.559-0.096V30.393z M5.321,31.212c0.086-3.981,2.014-7.258,5.305-9.181
		l4.894,8.525c0.012,0.051,0.039,0.095,0.075,0.131l0.301,0.525H5.321z M12.011,21.337l2.516,3.588l0.491-0.545
		c0.09,0.312,0.268,0.586,0.506,0.795c-0.008,0.026-0.012,0.053-0.012,0.082v4.162l-4.396-7.658
		C11.404,21.61,11.703,21.468,12.011,21.337 M12.937,20.983l2.687,1.891l-1.043,1.156l-2.038-2.907
		C12.673,21.075,12.805,21.028,12.937,20.983 M14.384,19.668c0.75,0.537,1.526,0.871,2.241,0.871c0.718,0,1.496-0.336,2.25-0.877
		c0.252,0.632,0.512,0.915,0.798,1.076l-2.668,1.716h-1.01l-2.424-1.706C13.864,20.589,14.128,20.309,14.384,19.668 M11.767,15.693
		c-0.056-0.111-0.178-0.172-0.302-0.148c-0.248,0.054-0.949-0.615-1.412-2.045c-0.47-1.45-0.286-2.392-0.057-2.491
		c0.271-0.054,1.991-0.498,2.325-3.09c0.065-0.016,0.163-0.029,0.305-0.029c1.791,0,6.472,1.979,7.047,2.683
		c0.056,0.069,0.155,0.103,0.223,0.103c0.163-0.007,0.285-0.123,0.285-0.278c0-0.056-0.017-0.107-0.045-0.151
		c-0.246-0.808-0.5-1.67-0.639-2.184c0.706,0.452,2.101,1.667,2.525,3.51c0.021,0.088,0.083,0.162,0.168,0.196
		c0.034,0.014,0.07,0.02,0.105,0.02c0.053,0,0.106-0.015,0.152-0.044c0.034-0.022,0.38-0.251,0.8-0.738
		c0.234,0.078,0.428,1.026-0.048,2.495c-0.464,1.43-1.166,2.093-1.412,2.045c-0.122-0.024-0.245,0.037-0.302,0.148
		c-1.202,2.365-3.382,4.29-4.858,4.29C15.149,19.983,12.969,18.058,11.767,15.693 M9.509,3.77c0.452-0.632,1.191-0.718,1.853-0.718
		l0.486,0.006c0.094,0,0.176-0.003,0.245-0.01c0.046-0.005,0.09-0.022,0.128-0.048c2.352-1.622,4.486-2.445,6.343-2.445
		c1.563,0,2.937,0.606,3.974,1.752c1.304,1.442,1.849,3.494,1.714,4.775c-0.235,2.219-1.275,3.448-1.802,3.939
		c-0.729-2.286-2.842-3.709-3.309-3.709c-0.154,0-0.313,0.147-0.313,0.301c0,0.173,0.283,1.16,0.549,2.051
		c-1.625-0.977-5.221-2.332-6.751-2.332c-0.312,0-0.545,0.051-0.713,0.157c-0.073,0.046-0.12,0.122-0.129,0.207
		c-0.198,1.937-1.225,2.533-1.685,2.704C8.96,7.045,8.762,4.815,9.509,3.77 M20.322,20.983c0.133,0.045,0.264,0.092,0.394,0.141
		l-2.038,2.907l-1.136-1.26L20.322,20.983z M16.63,25.034c-0.617,0-1.118-0.499-1.118-1.113c0-0.027-0.004-0.052-0.011-0.077
		l0.667-0.739c0.026-0.028,0.044-0.061,0.056-0.095h0.813c0.012,0.034,0.03,0.066,0.056,0.095l0.666,0.739
		c-0.007,0.025-0.011,0.05-0.011,0.077C17.748,24.535,17.246,25.034,16.63,25.034 M22.144,21.761l-4.397,7.658v-4.162
		c0-0.028-0.004-0.056-0.012-0.082c0.239-0.209,0.417-0.483,0.507-0.795l0.491,0.545l2.516-3.588
		C21.556,21.468,21.855,21.61,22.144,21.761 M20.301,20.389l-0.067-0.021c-0.311-0.098-0.58-0.183-0.899-1.065
		c1.012-0.848,1.941-2.029,2.565-3.204c0.741-0.087,1.452-1.269,1.828-2.428c0.416-1.282,0.48-2.693-0.138-3.111
		c0.518-0.737,1.051-1.848,1.217-3.418c0.144-1.36-0.375-3.57-1.855-5.206C21.807,0.67,20.29,0,18.564,0
		c-1.956,0-4.176,0.841-6.599,2.501c-0.036,0.002-0.075,0.002-0.118,0.002l-0.485-0.006c-0.758,0-1.705,0.108-2.308,0.951
		C8.181,4.667,8.354,7.014,9.582,10.62c-0.536,0.479-0.46,1.824-0.062,3.051c0.376,1.16,1.087,2.342,1.828,2.428
		c0.626,1.178,1.559,2.362,2.574,3.211c-0.317,0.876-0.585,0.96-0.895,1.057l-0.066,0.021c-5.136,1.66-8.202,5.81-8.202,11.102
		v0.278H28.5v-0.278C28.5,26.199,25.435,22.05,20.301,20.389"/>
</g>
</svg>
