<?xml version="1.0" encoding="iso-8859-1"?>
<!-- Generator: Adobe Illustrator 18.1.1, SVG Export Plug-In . SVG Version: 6.00 Build 0)  -->
<!DOCTYPE svg PUBLIC "-//W3C//DTD SVG 1.1//EN" "http://www.w3.org/Graphics/SVG/1.1/DTD/svg11.dtd">
<svg version="1.1" id="Layer_1" xmlns="http://www.w3.org/2000/svg" xmlns:xlink="http://www.w3.org/1999/xlink" x="0px" y="0px"
	 viewBox="0 0 32 32" enable-background="new 0 0 32 32" xml:space="preserve">
<path fill="#FFFFFF" stroke="#FFB81C" stroke-miterlimit="10" d="M26.465,26.414c0.154-0.013,0.298-0.102,0.368-0.226
	c0.078-0.138,0.088-0.294,0.027-0.417c-0.603-1.191-0.91-2.463-0.91-3.781v-0.062l0.053-0.032c3.121-1.901,4.911-4.624,4.911-7.47
	c0-5.546-6.682-10.058-14.894-10.058c-8.212,0-14.894,4.512-14.894,10.058s6.681,10.059,14.894,10.059
	c1.403,0,2.798-0.132,4.146-0.394l0.053-0.01l0.04,0.035c1.704,1.484,3.883,2.301,6.135,2.301
	C26.408,26.417,26.453,26.414,26.465,26.414"/>
<path fill="#FFB81C" d="M12.972,14.407c0.887,0,1.662,1.412,1.793,3.609l0.026,0.003c0.123-0.443,0.177-0.91,0.164-1.375
	c0-1.602-0.763-3.019-1.79-3.019c-0.964,0-1.048,0.791-0.818,1.14C12.44,14.643,12.61,14.407,12.972,14.407"/>
<path fill="#FFB81C" d="M13.956,18.4c0.047-0.204,0.078-0.362,0.078-0.639c0-0.999-0.609-2.642-1.773-2.642
	c-0.886,0-1.01,0.839-0.726,1.106c0.057-0.187,0.254-0.438,0.616-0.438c0.937,0,1.637,1.466,1.782,2.614H13.956z"/>
<path fill="#FFB81C" d="M19.782,14.765c0.093-0.128,0.129-0.293,0.129-0.404c0-0.383-0.362-0.751-0.893-0.751
	c-1.547,0-2.12,2.679-1.677,4.389h0.02c0.153-2.349,0.911-3.609,1.778-3.609C19.589,14.39,19.744,14.655,19.782,14.765"/>
<path fill="#FFB81C" d="M19.84,15.126c-1.461,0-1.997,2.431-1.702,3.276h0.019c0.171-1.233,0.844-2.609,1.754-2.609
	c0.489,0,0.623,0.301,0.642,0.434C20.865,15.899,20.678,15.126,19.84,15.126"/>
<path fill="#FFB81C" d="M16.326,19.216c-0.875,0-1.784,0.207-2.529,0.671l0.01,0.024c0.361-0.056,1.244-0.155,2.326-0.155
	c1.194,0,1.625,0.155,1.824,0.155c0.135,0,0.196-0.075,0.196-0.199C18.152,19.372,17.282,19.216,16.326,19.216"/>
<path fill="#FFB81C" d="M16.326,18.309c-0.747,0-1.769,0.194-2.529,0.669l0.01,0.025c0.303-0.042,1.269-0.168,2.363-0.168
	c1.036,0,1.63,0.168,1.786,0.168c0.135,0,0.196-0.076,0.196-0.198C18.152,18.461,17.282,18.309,16.326,18.309"/>
<path fill="#FFB81C" d="M19.785,12.487c-0.111,0.02-0.267,0.186-0.267,0.435c0,0.285,0.211,0.858,1.032,0.858
	c0.846,0,1.418-0.623,1.418-1.475c0-0.837-0.617-1.609-1.97-1.609c-1.611,0-3.682,1.424-3.682,4.887
	c0.002,0.661,0.082,1.383,0.243,2.163h0.029c0-4.255,1.611-6.262,3.352-6.262c0.746,0,1.154,0.469,1.154,0.957
	c0,0.449-0.27,0.77-0.698,0.77C19.867,13.21,19.705,12.759,19.785,12.487"/>
<path fill="#FFB81C" d="M12.23,13.006c-0.06,0.106-0.244,0.27-0.574,0.27c-0.406,0-0.74-0.331-0.74-0.803
	c0-0.422,0.375-0.855,1.04-0.855c1.648,0,3.58,2.346,3.604,5.333c0,0.19-0.013,0.522-0.046,0.793l0.027,0.005
	c0.177-0.513,0.315-1.313,0.315-1.875c0-2.603-1.797-5.103-3.915-5.103c-1.257,0-1.894,0.825-1.894,1.548
	c0,0.823,0.49,1.448,1.252,1.448C11.899,13.767,12.23,13.337,12.23,13.006"/>
<path fill="#FFB81C" d="M12.006,9.874c-0.164,0-0.254,0.084-0.254,0.204c0,0.149,0.097,0.224,0.291,0.302
	c0.587,0.237,1.707,0.381,2.973,0.382c2.243,0,4.533-0.316,5.549-0.721l-0.008-0.026c-0.825,0.053-2.248,0.146-4.52,0.146
	C12.943,10.162,12.295,9.874,12.006,9.874"/>
<path fill="#FFB81C" d="M13.79,11.036l-0.003,0.024c0.264,0.096,1.495,0.632,2.038,2.639c0.03,0.118,0.09,0.165,0.173,0.165
	c0.129,0,0.185-0.095,0.185-0.27c0-0.939-0.514-1.769-0.97-2.13C14.759,11.099,14.152,11.01,13.79,11.036"/>
<path fill="#FFB81C" d="M16.827,11.333c0.386-0.407,0.958-0.558,1.557-0.502l0.002,0.024c-0.197,0.053-0.671,0.225-1.142,0.719
	c-0.39,0.412-0.662,0.91-0.798,1.349C16.295,12.094,16.57,11.605,16.827,11.333"/>
<rect y="3.464" fill="none" width="32" height="24.536"/>
</svg>
