<?xml version="1.0" encoding="iso-8859-1"?>
<!-- Generator: Adobe Illustrator 18.1.1, SVG Export Plug-In . SVG Version: 6.00 Build 0)  -->
<!DOCTYPE svg PUBLIC "-//W3C//DTD SVG 1.1//EN" "http://www.w3.org/Graphics/SVG/1.1/DTD/svg11.dtd">
<svg version="1.1" id="Layer_1" xmlns="http://www.w3.org/2000/svg" xmlns:xlink="http://www.w3.org/1999/xlink" x="0px" y="0px"
	 viewBox="0 0 32 32" enable-background="new 0 0 32 32" xml:space="preserve">
<g>
	<defs>
		<rect id="SVGID_3_" x="5.071" y="0.404" width="22.41" height="31.364"/>
	</defs>
	<clipPath id="SVGID_2_">
		<use xlink:href="#SVGID_3_"  overflow="visible"/>
	</clipPath>
	<path clip-path="url(#SVGID_2_)" fill="#FFB81C" d="M5.601,31.243c0.048-2.359,0.746-4.42,2.076-6.13
		c1.152-1.48,2.758-2.635,4.671-3.366c-0.02,0.245-0.031,0.484-0.031,0.723c0,1.593,0.399,3.094,1.123,4.227
		c0.748,1.17,1.755,1.814,2.835,1.814c1.08,0,2.087-0.644,2.835-1.814c0.724-1.133,1.123-2.634,1.123-4.227
		c0-0.238-0.011-0.477-0.031-0.723c1.914,0.732,3.52,1.887,4.671,3.367c1.33,1.709,2.028,3.77,2.076,6.129L5.601,31.243
		L5.601,31.243z M14.147,20.115c0.759,0.544,1.498,0.838,2.128,0.838c0.641,0,1.393-0.303,2.165-0.864
		c0.333,0.855,0.681,1.29,1.138,1.438c0.026,0.008,0.051,0.017,0.077,0.025c0.034,0.317,0.052,0.618,0.052,0.917
		c0,3.041-1.539,5.516-3.431,5.516s-3.431-2.475-3.431-5.516c0-0.299,0.017-0.601,0.051-0.917c0.026-0.009,0.052-0.018,0.079-0.026
		C13.446,21.374,13.822,20.922,14.147,20.115 M11.689,16.378c-0.053-0.104-0.169-0.161-0.284-0.14
		c-0.046,0.009-0.11-0.009-0.186-0.055v-1.121c0-0.145-0.118-0.262-0.264-0.262c-0.146,0-0.264,0.118-0.264,0.262v0.562
		c-0.214-0.315-0.436-0.752-0.619-1.316c-0.198-0.611-0.295-1.209-0.273-1.686c0.019-0.416,0.132-0.638,0.228-0.669
		c0.02-0.007,0.038-0.016,0.056-0.026c0.126,0.023,0.255,0.036,0.387,0.036c0.41,0,0.806-0.12,1.152-0.348
		c0.187,0.057,0.376,0.086,0.563,0.086c1.053,0,1.917-0.824,1.976-1.858c0.147-0.022,0.291-0.062,0.432-0.121
		c0.349,0.42,0.864,0.665,1.418,0.665c0.577,0,1.094-0.265,1.433-0.679c0.26,0.703,0.939,1.205,1.734,1.205
		c0.273,0,0.539-0.062,0.791-0.184c0.228,0.11,0.467,0.171,0.712,0.182c0.303,0.637,0.948,1.053,1.663,1.053
		c0.061,0,0.122-0.003,0.181-0.009c0.096,0.034,0.206,0.256,0.226,0.668c0.022,0.477-0.074,1.075-0.273,1.686
		c-0.177,0.547-0.392,0.975-0.6,1.287v-0.533c0-0.145-0.118-0.262-0.264-0.262c-0.146,0-0.264,0.118-0.264,0.262v1.109
		c-0.085,0.055-0.156,0.077-0.206,0.067c-0.115-0.022-0.231,0.035-0.284,0.139c-1.136,2.233-3.193,4.049-4.586,4.049
		S12.825,18.611,11.689,16.378 M8.887,9.861c0-0.256,0.062-0.502,0.186-0.733C9.118,9.043,9.114,8.94,9.06,8.86
		C8.947,8.688,8.887,8.489,8.887,8.285c0-0.364,0.188-0.697,0.504-0.891c0.074-0.045,0.121-0.125,0.125-0.211
		c0.004-0.087-0.035-0.17-0.105-0.222c-0.333-0.25-0.524-0.629-0.524-1.04c0-0.724,0.592-1.313,1.319-1.313
		c0.166,0,0.33,0.032,0.491,0.096c0.07,0.028,0.149,0.025,0.216-0.009c0.067-0.034,0.117-0.094,0.137-0.167
		c0.071-0.26,0.219-0.489,0.429-0.663c0.078-0.064,0.111-0.166,0.088-0.264c-0.028-0.116-0.041-0.213-0.041-0.308
		c0-0.724,0.592-1.313,1.319-1.313c0.165,0,0.33,0.032,0.49,0.096c0.07,0.028,0.149,0.025,0.216-0.009
		c0.068-0.033,0.117-0.094,0.137-0.166c0.156-0.572,0.677-0.972,1.268-0.972c0.443,0,0.854,0.22,1.099,0.59
		c0.049,0.073,0.132,0.117,0.22,0.117c0.088,0,0.171-0.044,0.22-0.117c0.246-0.369,0.657-0.59,1.099-0.59
		c0.728,0,1.319,0.589,1.319,1.312c0,0.008-0.002,0.015-0.002,0.022c-0.003,0.021-0.005,0.042-0.007,0.063
		C18.899,2.415,18.939,2.5,19.01,2.553c0.071,0.053,0.165,0.067,0.248,0.036c0.156-0.056,0.302-0.084,0.448-0.084
		c0.728,0,1.319,0.589,1.319,1.312c0,0.008-0.002,0.015-0.002,0.022c-0.003,0.021-0.005,0.042-0.007,0.063
		c-0.005,0.089,0.034,0.173,0.106,0.227c0.071,0.053,0.165,0.067,0.248,0.036c0.156-0.056,0.302-0.084,0.448-0.084
		c0.728,0,1.319,0.589,1.319,1.313c0,0.365-0.151,0.707-0.426,0.96c-0.067,0.062-0.097,0.154-0.079,0.244
		c0.018,0.089,0.081,0.163,0.168,0.195c0.518,0.19,0.865,0.683,0.865,1.228c0,0.32-0.122,0.63-0.343,0.875
		c-0.09,0.1-0.09,0.251,0,0.352c0.221,0.245,0.343,0.555,0.343,0.875c0,0.724-0.592,1.313-1.319,1.313
		c-0.557,0-1.055-0.355-1.24-0.884c-0.037-0.106-0.137-0.176-0.249-0.176c-0.005,0-0.011,0-0.016,0
		c-0.02,0.001-0.041,0.004-0.061,0.007c-0.006,0.001-0.013,0.002-0.017,0.002c-0.228,0-0.449-0.061-0.659-0.183
		c-0.082-0.048-0.183-0.048-0.265,0c-0.21,0.121-0.432,0.183-0.659,0.183c-0.728,0-1.319-0.589-1.319-1.313
		c0-0.144,0.027-0.29,0.084-0.446c0.03-0.083,0.016-0.176-0.037-0.247c-0.053-0.071-0.139-0.11-0.227-0.105
		c-0.021,0.001-0.042,0.004-0.063,0.007c-0.007,0.001-0.015,0.003-0.021,0.003c-0.146,0-0.264,0.117-0.264,0.262
		c0,0.724-0.592,1.313-1.319,1.313c-0.452,0-0.868-0.23-1.112-0.613c-0.075-0.118-0.23-0.157-0.353-0.088
		c-0.207,0.117-0.424,0.176-0.646,0.176c0.007,0,0.019,0.001,0.023,0.002c-0.077-0.006-0.16,0.02-0.215,0.074
		c-0.056,0.055-0.091,0.13-0.084,0.207c0.002,0.022,0.005,0.044,0.008,0.066c0.003,0.018,0.005,0.036,0.005,0.046
		c0,0.797-0.651,1.445-1.451,1.445c-0.167,0-0.339-0.033-0.511-0.098c-0.085-0.032-0.18-0.018-0.253,0.036
		c-0.281,0.212-0.61,0.324-0.951,0.324C9.597,11.437,8.887,10.731,8.887,9.861 M11.483,19.213c0,0.29-0.237,0.526-0.528,0.526
		c-0.291,0-0.528-0.236-0.528-0.526c0-0.29,0.237-0.525,0.528-0.525C11.246,18.687,11.483,18.923,11.483,19.213 M22.144,19.213
		c0,0.29-0.237,0.526-0.528,0.526c-0.291,0-0.528-0.236-0.528-0.526c0-0.29,0.237-0.525,0.528-0.525
		C21.907,18.687,22.144,18.923,22.144,19.213 M19.741,21.028c-0.195-0.063-0.494-0.266-0.866-1.281
		c0.046-0.039,0.093-0.079,0.139-0.119c0.881-0.779,1.673-1.792,2.242-2.867c0.031-0.004,0.063-0.011,0.095-0.019v1.455
		c-0.454,0.117-0.792,0.528-0.792,1.016c0,0.579,0.473,1.051,1.056,1.051c0.582,0,1.056-0.471,1.056-1.051
		c0-0.489-0.337-0.899-0.791-1.016v-1.773c0.091-0.085,0.182-0.186,0.273-0.303c0.324-0.417,0.619-1.004,0.829-1.651
		c0.217-0.669,0.323-1.334,0.297-1.872c-0.017-0.364-0.089-0.617-0.187-0.792c0.647-0.286,1.1-0.932,1.1-1.681
		c0-0.376-0.119-0.741-0.338-1.051c0.219-0.309,0.338-0.675,0.338-1.051c0-0.639-0.34-1.227-0.876-1.558
		c0.226-0.31,0.348-0.679,0.348-1.069c0-1.014-0.829-1.839-1.847-1.839c-0.092,0-0.185,0.008-0.279,0.023
		c-0.118-0.901-0.895-1.6-1.832-1.6c-0.092,0-0.185,0.008-0.28,0.023c-0.118-0.901-0.895-1.6-1.832-1.6
		c-0.502,0-0.975,0.202-1.319,0.553c-0.345-0.351-0.817-0.553-1.319-0.553c-0.736,0-1.395,0.441-1.685,1.101
		c-0.141-0.033-0.283-0.05-0.426-0.05c-1.018,0-1.847,0.825-1.847,1.839c0,0.089,0.008,0.179,0.024,0.276
		c-0.165,0.163-0.297,0.353-0.39,0.563c-0.14-0.034-0.283-0.051-0.426-0.051c-1.018,0-1.847,0.825-1.847,1.839
		c0,0.465,0.173,0.9,0.483,1.234c-0.307,0.294-0.483,0.697-0.483,1.13c0,0.256,0.062,0.505,0.182,0.731
		C8.42,9.284,8.359,9.568,8.359,9.861c0,0.813,0.466,1.519,1.147,1.869c-0.121,0.176-0.214,0.448-0.234,0.867
		c-0.025,0.538,0.08,1.203,0.297,1.872c0.21,0.648,0.505,1.234,0.829,1.651c0.097,0.125,0.195,0.232,0.293,0.321v1.755
		c-0.454,0.117-0.792,0.528-0.792,1.016c0,0.579,0.473,1.051,1.056,1.051c0.582,0,1.056-0.471,1.056-1.051
		c0-0.489-0.337-0.899-0.792-1.016v-1.45c0.025,0.006,0.05,0.011,0.076,0.014c0.57,1.075,1.361,2.088,2.242,2.867
		c0.058,0.052,0.117,0.102,0.176,0.151c-0.271,0.722-0.574,1.143-0.9,1.248c-2.291,0.741-4.211,2.043-5.552,3.765
		c-1.453,1.867-2.19,4.126-2.19,6.714c0,0.145,0.118,0.263,0.264,0.263h21.883c0.146,0,0.264-0.118,0.264-0.263
		c0-2.588-0.736-4.847-2.189-6.713C23.951,23.07,22.032,21.768,19.741,21.028"/>
</g>
</svg>
