<?xml version="1.0" encoding="iso-8859-1"?>
<!-- Generator: Adobe Illustrator 18.1.1, SVG Export Plug-In . SVG Version: 6.00 Build 0)  -->
<!DOCTYPE svg PUBLIC "-//W3C//DTD SVG 1.1//EN" "http://www.w3.org/Graphics/SVG/1.1/DTD/svg11.dtd">
<svg version="1.1" id="Layer_1" xmlns="http://www.w3.org/2000/svg" xmlns:xlink="http://www.w3.org/1999/xlink" x="0px" y="0px"
	 viewBox="0 0 792 4896" enable-background="new 0 0 792 4896" xml:space="preserve">
<polygon fill="#F1F0F0" points="-125.873,-135.835 -185.581,-87.485 -185.581,-87.473 -0.558,141.01 59.157,92.655 
	-125.871,-135.835 "/>
<polygon fill="#C8C8C8" points="511.071,245.73 720.864,501.209 755.814,425.865 570.785,197.375 "/>
<polygon fill="#C8C8C8" points="133.508,289.431 169.278,365.918 329.579,382.172 483.919,317.251 "/>
<polygon fill="#C8C8C8" points="-69.851,56.264 0.277,140.038 292.936,168.216 300.3,91.734 "/>
<polygon fill="#F1F0F0" points="358.946,140.76 300.085,91.369 133.506,289.426 169.276,366.266 "/>
<polygon fill="#F1F0F0" points="621.038,259.622 570.941,196.622 171.928,366.269 330.325,382.235 "/>
<polygon fill="#C8C8C8" points="-43.03,1285.18 12.555,1389.221 165.291,997.28 81.541,964.726 "/>
<polygon fill="#C8C8C8" points="601.372,911.294 588.814,1009.232 416.083,1084.499 221.045,1067.246 "/>
<polygon fill="#C8C8C8" points="744.689,579.092 696.467,697.398 380.588,833.156 345.106,750.598 "/>
<polygon fill="#F1F0F0" points="297.283,826.125 345.221,750.127 601.375,911.292 588.94,1009.625 "/>
<polygon fill="#F1F0F0" points="47.79,1051.973 81.114,963.946 585.99,1010.573 415.278,1084.84 "/>
<polygon fill="#F1F0F0" points="787.981,466.772 737.884,403.772 601.375,738.266 701.905,703.568 "/>
<polyline fill="#C8C8C8" points="780.128,1852.224 638.56,1493.378 564.422,1522.667 686.455,1810.775 "/>
<polygon fill="#F1F0F0" points="572.853,1448.98 638.983,1493.491 489.324,1716.388 402.458,1702.774 "/>
<polygon fill="#C8C8C8" points="489.38,1716.345 387.485,1699.378 190.026,1246.175 289.06,1227.838 "/>
<polyline fill="#F1F0F0" points="199.913,1184.983 -30.104,1309.375 12.555,1389.221 289.065,1227.841 199.913,1184.983 "/>
<polyline fill="#F1F0F0" points="686.455,1810.775 507.347,2054.192 604.035,2100.209 780.128,1852.224 "/>
<polygon fill="#C8C8C8" points="76.759,2248.941 10.583,2202.924 -165.51,2456.144 -165.508,2456.146 -89.093,2487.435 "/>
<polygon fill="#C8C8C8" points="475.138,2265.757 443.569,2348.52 277.094,2377.792 110.648,2321.69 "/>
<polygon fill="#C8C8C8" points="670.051,2006.244 603.093,2099.256 299.058,2151.145 285.497,2071.688 "/>
<polygon fill="#F1F0F0" points="443.594,2348.891 475.136,2265.759 285.693,2071.294 227.893,2127.474 "/>
<polygon fill="#F1F0F0" points="10.366,2202.151 -37.225,2271.895 276.322,2377.921 440.823,2349.095 "/>
<rect x="724.806" y="2843.204" transform="matrix(0.1264 -0.992 0.992 0.1264 -2308.05 3381.9348)" fill="#C8C8C8" width="82.698" height="316.435"/>
<polygon fill="#F1F0F0" points="392.233,2983.737 301.972,2994.295 196.35,2856.76 168.399,2678.735 "/>
<polygon fill="#F1F0F0" points="720.786,3037.883 604.406,3021.116 412.936,2769.182 478.78,2719.14 "/>
<polygon fill="#C8C8C8" points="400.695,2693.219 479.227,2719.137 392.235,2983.74 301.649,2994.495 "/>
<polygon fill="#C8C8C8" points="143.523,2520.603 229.549,2530.795 300.146,2992.071 195.867,2856.117 "/>
<polygon fill="#F1F0F0" points="-122.701,2394.585 -165.51,2456.144 243.986,2625.128 229.438,2529.379 "/>
<polygon fill="#F1F0F0" points="-34.105,3705.671 198.976,3666.864 186.511,3595.594 -46.576,3634.402 "/>
<polygon fill="#C8C8C8" points="519.295,3293.759 761.748,3264.821 751.66,3196.33 506.83,3222.49 "/>
<polygon fill="#C8C8C8" points="382.468,3624.462 461.78,3630.03 548.517,3505.553 565.725,3348.834 "/>
<polygon fill="#C8C8C8" points="97.526,3685.103 198.558,3665.732 355.679,3437.793 296.111,3396.731 "/>
<polygon fill="#F1F0F0" points="363.294,3370.907 295.712,3396.741 382.463,3624.461 462.066,3630.191 "/>
<polygon fill="#F1F0F0" points="580.553,3214.21 506.282,3222.017 463.283,3628.01 548.91,3504.968 "/>
<polygon fill="#F1F0F0" points="928.329,2980.412 720.754,3199.74 761.748,3264.821 915.036,3093.759 "/>
<polygon fill="#F1F0F0" points="6.338,3747.729 119.724,3905.574 180.109,3859.519 61.984,3705.289 "/>
<polygon fill="#C8C8C8" points="58.591,3820.471 120.571,3904.631 408.886,3940.878 418.36,3865.527 "/>
<polygon fill="#F1F0F0" points="673.805,4176.607 684.365,4251.996 932.616,4169.944 902.016,4098.635 "/>
<polygon fill="#C8C8C8" points="294.35,4130.197 684.12,4252.307 814.435,4209.647 254.831,4037.564 "/>
<polygon fill="#F1F0F0" points="328.758,4060.297 408.959,3940.369 329.123,3930.85 255.482,4037.838 "/>
<path fill="#C8C8C8" d="M-34.105,3705.671c0,0,39.443,42.82,40.442,42.058c0.999-0.762,55.646-42.44,55.646-42.44l-18.739-12.497
	L-34.105,3705.671z"/>
<g>
</g>
<g>
</g>
<g>
</g>
<g>
</g>
<g>
</g>
<g>
</g>
</svg>
