<?xml version="1.0" encoding="iso-8859-1"?>
<!-- Generator: Adobe Illustrator 18.1.1, SVG Export Plug-In . SVG Version: 6.00 Build 0)  -->
<!DOCTYPE svg PUBLIC "-//W3C//DTD SVG 1.1//EN" "http://www.w3.org/Graphics/SVG/1.1/DTD/svg11.dtd">
<svg version="1.1" id="Layer_1" xmlns="http://www.w3.org/2000/svg" xmlns:xlink="http://www.w3.org/1999/xlink" x="0px" y="0px"
	 viewBox="0 0 1421.191 920.972" enable-background="new 0 0 1421.191 920.972" xml:space="preserve">
<rect x="3.045" fill="#FFFFFF" width="1421.191" height="920.972"/>
<polygon fill="#C8C8C8" points="-332.007,589.375 -274.445,690.086 110.907,469.838 110.907,469.83 53.348,369.125 "/>
<polygon fill="#F0F0F0" points="1072.157,392.344 1143.973,483.438 1492.54,208.648 1420.723,117.555 "/>
<polygon fill="#C8C8C8" points="-64.64,650.851 -70.999,803 355.742,467.156 283.926,376.062 "/>
<polygon fill="#C8C8C8" points="897.128,657.305 818.977,758.008 577.529,728.524 371.903,581.516 "/>
<polygon fill="#C8C8C8" points="1274.243,381.734 1143.076,481.718 702.767,425.703 717.407,310.625 "/>
<polygon fill="#F0F0F0" points="614.719,363.289 717.844,310.176 897.133,657.305 818.86,758.527 "/>
<polygon fill="#F0F0F0" points="189.207,450.984 283.961,374.914 814.957,757.648 576.41,728.375 "/>
</svg>
