<?xml version="1.0" encoding="iso-8859-1"?>
<!-- Generator: Adobe Illustrator 18.1.1, SVG Export Plug-In . SVG Version: 6.00 Build 0)  -->
<!DOCTYPE svg PUBLIC "-//W3C//DTD SVG 1.1//EN" "http://www.w3.org/Graphics/SVG/1.1/DTD/svg11.dtd">
<svg version="1.1" id="Layer_1" xmlns="http://www.w3.org/2000/svg" xmlns:xlink="http://www.w3.org/1999/xlink" x="0px" y="0px"
	 viewBox="0 0 1421.191 920.972" enable-background="new 0 0 1421.191 920.972" xml:space="preserve">
<rect x="3.045" y="3" fill="#FFFFFF" width="1421.191" height="920.972"/>
<polygon fill="#F0F0F0" points="-218.047,764.782 -185.723,876.477 171.824,698.555 110.086,597.376 "/>
<polygon fill="#C8C8C8" points="-711.511,802.266 -186.026,877 1.752,784.226 -791.191,674.813 "/>
<polygon fill="#C8C8C8" points="115.739,259.514 0.489,246.382 -49.738,760.514 65.489,700.518 "/>
<polygon fill="#C8C8C8" points="1109.184,589.375 1166.746,690.086 1552.098,469.838 1552.098,469.83 1494.539,369.125 "/>
<polygon fill="#F0F0F0" points="1310.617,608.75 1166.111,688.25 738.918,567.766 770.406,456.117 "/>
<polygon fill="#F0F0F0" points="-34.338,204.427 -130.992,273.016 127.281,577.633 201.07,487.766 -34.334,204.427 "/>
<polygon fill="#C8C8C8" points="127.359,578.226 639.668,717 763.193,631.343 -8.549,418.867 "/>
<polygon fill="#C8C8C8" points="1376.551,650.851 1370.192,803 1796.934,467.156 1725.117,376.062 "/>
</svg>
