<?xml version="1.0" encoding="utf-8"?>
<!-- Generator: Adobe Illustrator 18.1.1, SVG Export Plug-In . SVG Version: 6.00 Build 0)  -->
<!DOCTYPE svg PUBLIC "-//W3C//DTD SVG 1.1//EN" "http://www.w3.org/Graphics/SVG/1.1/DTD/svg11.dtd">
<svg version="1.1" id="Layer_1" xmlns="http://www.w3.org/2000/svg" xmlns:xlink="http://www.w3.org/1999/xlink" x="0px" y="0px"
	 viewBox="0 0 4974.8 64.7" enable-background="new 0 0 4974.8 64.7" xml:space="preserve">
<g>
	<defs>
		<rect id="SVGID_1_" x="3645.7" y="1.3" width="1329.2" height="63.3"/>
	</defs>
	<clipPath id="SVGID_2_">
		<use xlink:href="#SVGID_1_"  overflow="visible"/>
	</clipPath>
	<line clip-path="url(#SVGID_2_)" fill="none" stroke="#002B49" stroke-width="1.875" x1="3646.6" y1="1.3" x2="3646.6" y2="32.6"/>
	<line clip-path="url(#SVGID_2_)" fill="none" stroke="#002B49" stroke-width="1.875" x1="3978.4" y1="1.3" x2="3978.4" y2="32.6"/>
	<line clip-path="url(#SVGID_2_)" fill="none" stroke="#002B49" stroke-width="1.875" x1="4310.3" y1="1.3" x2="4310.3" y2="32.6"/>
	<line clip-path="url(#SVGID_2_)" fill="none" stroke="#002B49" stroke-width="1.875" x1="4642.1" y1="1.3" x2="4642.1" y2="32.6"/>
	<line clip-path="url(#SVGID_2_)" fill="none" stroke="#002B49" stroke-width="1.875" x1="4973.9" y1="1.3" x2="4973.9" y2="32.6"/>
</g>
<line fill="none" stroke="#002B49" stroke-width="1.25" x1="3654.2" y1="7.6" x2="3654.2" y2="32.6"/>
<line fill="none" stroke="#002B49" stroke-width="1.25" x1="3986" y1="7.6" x2="3986" y2="32.6"/>
<line fill="none" stroke="#002B49" stroke-width="1.25" x1="4317.8" y1="7.6" x2="4317.8" y2="32.6"/>
<line fill="none" stroke="#002B49" stroke-width="1.25" x1="4649.6" y1="7.6" x2="4649.6" y2="32.6"/>
<line fill="none" stroke="#002B49" stroke-width="1.25" x1="3865.3" y1="7.6" x2="3865.3" y2="32.6"/>
<line fill="none" stroke="#002B49" stroke-width="1.25" x1="4106.6" y1="7.6" x2="4106.6" y2="32.6"/>
<line fill="none" stroke="#002B49" stroke-width="1.25" x1="4438.5" y1="7.6" x2="4438.5" y2="32.6"/>
<line fill="none" stroke="#002B49" stroke-width="1.25" x1="4770.3" y1="7.6" x2="4770.3" y2="32.6"/>
<line fill="none" stroke="#002B49" stroke-width="1.25" x1="3857.8" y1="7.6" x2="3857.8" y2="32.6"/>
<line fill="none" stroke="#002B49" stroke-width="1.25" x1="4227.3" y1="7.6" x2="4227.3" y2="32.6"/>
<line fill="none" stroke="#002B49" stroke-width="1.25" x1="4559.1" y1="7.6" x2="4559.1" y2="32.6"/>
<line fill="none" stroke="#002B49" stroke-width="1.25" x1="4890.9" y1="7.6" x2="4890.9" y2="32.6"/>
<line fill="none" stroke="#002B49" stroke-width="1.25" x1="3744.6" y1="7.6" x2="3744.6" y2="32.6"/>
<line fill="none" stroke="#002B49" stroke-width="1.25" x1="4046.3" y1="7.6" x2="4046.3" y2="32.6"/>
<line fill="none" stroke="#002B49" stroke-width="1.25" x1="4378.1" y1="7.6" x2="4378.1" y2="32.6"/>
<line fill="none" stroke="#002B49" stroke-width="1.25" x1="4710" y1="7.6" x2="4710" y2="32.6"/>
<line fill="none" stroke="#002B49" stroke-width="1.25" x1="3737.1" y1="7.6" x2="3737.1" y2="32.6"/>
<line fill="none" stroke="#002B49" stroke-width="1.25" x1="4167" y1="7.6" x2="4167" y2="32.6"/>
<line fill="none" stroke="#002B49" stroke-width="1.25" x1="4498.8" y1="7.6" x2="4498.8" y2="32.6"/>
<line fill="none" stroke="#002B49" stroke-width="1.25" x1="4830.6" y1="7.6" x2="4830.6" y2="32.6"/>
<line fill="none" stroke="#002B49" stroke-width="1.25" x1="3955.8" y1="7.6" x2="3955.8" y2="32.6"/>
<line fill="none" stroke="#002B49" stroke-width="1.25" x1="4287.6" y1="7.6" x2="4287.6" y2="32.6"/>
<line fill="none" stroke="#002B49" stroke-width="1.25" x1="4619.5" y1="7.6" x2="4619.5" y2="32.6"/>
<line fill="none" stroke="#002B49" stroke-width="1.25" x1="4951.3" y1="7.6" x2="4951.3" y2="32.6"/>
<line fill="none" stroke="#002B49" stroke-width="1.25" x1="3684.3" y1="7.6" x2="3684.3" y2="32.6"/>
<line fill="none" stroke="#002B49" stroke-width="1.25" x1="4016.1" y1="7.6" x2="4016.1" y2="32.6"/>
<line fill="none" stroke="#002B49" stroke-width="1.25" x1="4348" y1="7.6" x2="4348" y2="32.6"/>
<line fill="none" stroke="#002B49" stroke-width="1.25" x1="4679.8" y1="7.6" x2="4679.8" y2="32.6"/>
<line fill="none" stroke="#002B49" stroke-width="1.25" x1="3925.6" y1="7.6" x2="3925.6" y2="32.6"/>
<line fill="none" stroke="#002B49" stroke-width="1.25" x1="4136.8" y1="7.6" x2="4136.8" y2="32.6"/>
<line fill="none" stroke="#002B49" stroke-width="1.25" x1="4468.6" y1="7.6" x2="4468.6" y2="32.6"/>
<line fill="none" stroke="#002B49" stroke-width="1.25" x1="4800.4" y1="7.6" x2="4800.4" y2="32.6"/>
<line fill="none" stroke="#002B49" stroke-width="1.25" x1="3918.1" y1="7.6" x2="3918.1" y2="32.6"/>
<line fill="none" stroke="#002B49" stroke-width="1.25" x1="4257.5" y1="7.6" x2="4257.5" y2="32.6"/>
<line fill="none" stroke="#002B49" stroke-width="1.25" x1="4589.3" y1="7.6" x2="4589.3" y2="32.6"/>
<line fill="none" stroke="#002B49" stroke-width="1.25" x1="4921.1" y1="7.6" x2="4921.1" y2="32.6"/>
<line fill="none" stroke="#002B49" stroke-width="1.25" x1="3805" y1="7.6" x2="3805" y2="32.6"/>
<line fill="none" stroke="#002B49" stroke-width="1.25" x1="4076.5" y1="7.6" x2="4076.5" y2="32.6"/>
<line fill="none" stroke="#002B49" stroke-width="1.25" x1="4408.3" y1="7.6" x2="4408.3" y2="32.6"/>
<line fill="none" stroke="#002B49" stroke-width="1.25" x1="4740.1" y1="7.6" x2="4740.1" y2="32.6"/>
<line fill="none" stroke="#002B49" stroke-width="1.25" x1="3797.4" y1="7.6" x2="3797.4" y2="32.6"/>
<line fill="none" stroke="#002B49" stroke-width="1.25" x1="4197.1" y1="7.6" x2="4197.1" y2="32.6"/>
<line fill="none" stroke="#002B49" stroke-width="1.25" x1="4529" y1="7.6" x2="4529" y2="32.6"/>
<line fill="none" stroke="#002B49" stroke-width="1.25" x1="4860.8" y1="7.6" x2="4860.8" y2="32.6"/>
<line fill="none" stroke="#002B49" stroke-width="1.25" x1="3669.2" y1="7.6" x2="3669.2" y2="32.6"/>
<line fill="none" stroke="#002B49" stroke-width="1.25" x1="4001.1" y1="7.6" x2="4001.1" y2="32.6"/>
<line fill="none" stroke="#002B49" stroke-width="1.25" x1="4332.9" y1="7.6" x2="4332.9" y2="32.6"/>
<line fill="none" stroke="#002B49" stroke-width="1.25" x1="4664.7" y1="7.6" x2="4664.7" y2="32.6"/>
<line fill="none" stroke="#002B49" stroke-width="1.25" x1="3895.5" y1="7.6" x2="3895.5" y2="32.6"/>
<line fill="none" stroke="#002B49" stroke-width="1.25" x1="4121.7" y1="7.6" x2="4121.7" y2="32.6"/>
<line fill="none" stroke="#002B49" stroke-width="1.25" x1="4453.5" y1="7.6" x2="4453.5" y2="32.6"/>
<line fill="none" stroke="#002B49" stroke-width="1.25" x1="4785.4" y1="7.6" x2="4785.4" y2="32.6"/>
<line fill="none" stroke="#002B49" stroke-width="1.25" x1="3887.9" y1="7.6" x2="3887.9" y2="32.6"/>
<line fill="none" stroke="#002B49" stroke-width="1.25" x1="4242.4" y1="7.6" x2="4242.4" y2="32.6"/>
<line fill="none" stroke="#002B49" stroke-width="1.25" x1="4574.2" y1="7.6" x2="4574.2" y2="32.6"/>
<line fill="none" stroke="#002B49" stroke-width="1.25" x1="4906" y1="7.6" x2="4906" y2="32.6"/>
<line fill="none" stroke="#002B49" stroke-width="1.25" x1="3774.8" y1="7.6" x2="3774.8" y2="32.6"/>
<line fill="none" stroke="#002B49" stroke-width="1.25" x1="4061.4" y1="7.6" x2="4061.4" y2="32.6"/>
<line fill="none" stroke="#002B49" stroke-width="1.25" x1="4393.2" y1="7.6" x2="4393.2" y2="32.6"/>
<line fill="none" stroke="#002B49" stroke-width="1.25" x1="4725" y1="7.6" x2="4725" y2="32.6"/>
<line fill="none" stroke="#002B49" stroke-width="1.25" x1="3767.3" y1="7.6" x2="3767.3" y2="32.6"/>
<line fill="none" stroke="#002B49" stroke-width="1.25" x1="4182.1" y1="7.6" x2="4182.1" y2="32.6"/>
<line fill="none" stroke="#002B49" stroke-width="1.25" x1="4513.9" y1="7.6" x2="4513.9" y2="32.6"/>
<line fill="none" stroke="#002B49" stroke-width="1.25" x1="4845.7" y1="7.6" x2="4845.7" y2="32.6"/>
<line fill="none" stroke="#002B49" stroke-width="1.25" x1="3970.9" y1="7.6" x2="3970.9" y2="32.6"/>
<line fill="none" stroke="#002B49" stroke-width="1.25" x1="4302.7" y1="7.6" x2="4302.7" y2="32.6"/>
<line fill="none" stroke="#002B49" stroke-width="1.25" x1="4634.5" y1="7.6" x2="4634.5" y2="32.6"/>
<line fill="none" stroke="#002B49" stroke-width="1.25" x1="4966.4" y1="7.6" x2="4966.4" y2="32.6"/>
<line fill="none" stroke="#002B49" stroke-width="1.25" x1="3714.5" y1="7.6" x2="3714.5" y2="32.6"/>
<line fill="none" stroke="#002B49" stroke-width="1.25" x1="4031.2" y1="7.6" x2="4031.2" y2="32.6"/>
<line fill="none" stroke="#002B49" stroke-width="1.25" x1="4363" y1="7.6" x2="4363" y2="32.6"/>
<line fill="none" stroke="#002B49" stroke-width="1.25" x1="4694.9" y1="7.6" x2="4694.9" y2="32.6"/>
<line fill="none" stroke="#002B49" stroke-width="1.25" x1="3706.9" y1="7.6" x2="3706.9" y2="32.6"/>
<line fill="none" stroke="#002B49" stroke-width="1.25" x1="4151.9" y1="7.6" x2="4151.9" y2="32.6"/>
<line fill="none" stroke="#002B49" stroke-width="1.25" x1="4483.7" y1="7.6" x2="4483.7" y2="32.6"/>
<line fill="none" stroke="#002B49" stroke-width="1.25" x1="4815.5" y1="7.6" x2="4815.5" y2="32.6"/>
<line fill="none" stroke="#002B49" stroke-width="1.25" x1="3940.7" y1="7.6" x2="3940.7" y2="32.6"/>
<line fill="none" stroke="#002B49" stroke-width="1.25" x1="4272.5" y1="7.6" x2="4272.5" y2="32.6"/>
<line fill="none" stroke="#002B49" stroke-width="1.25" x1="4604.4" y1="7.6" x2="4604.4" y2="32.6"/>
<line fill="none" stroke="#002B49" stroke-width="1.25" x1="4936.2" y1="7.6" x2="4936.2" y2="32.6"/>
<line fill="none" stroke="#002B49" stroke-width="1.25" x1="3835.1" y1="7.6" x2="3835.1" y2="32.6"/>
<line fill="none" stroke="#002B49" stroke-width="1.25" x1="4091.6" y1="7.6" x2="4091.6" y2="32.6"/>
<line fill="none" stroke="#002B49" stroke-width="1.25" x1="4423.4" y1="7.6" x2="4423.4" y2="32.6"/>
<line fill="none" stroke="#002B49" stroke-width="1.25" x1="4755.2" y1="7.6" x2="4755.2" y2="32.6"/>
<line fill="none" stroke="#002B49" stroke-width="1.25" x1="3827.6" y1="7.6" x2="3827.6" y2="32.6"/>
<line fill="none" stroke="#002B49" stroke-width="1.25" x1="4212.2" y1="7.6" x2="4212.2" y2="32.6"/>
<line fill="none" stroke="#002B49" stroke-width="1.25" x1="4544" y1="7.6" x2="4544" y2="32.6"/>
<line fill="none" stroke="#002B49" stroke-width="1.25" x1="4875.9" y1="7.6" x2="4875.9" y2="32.6"/>
<line fill="none" stroke="#002B49" stroke-width="1.25" x1="3661.7" y1="7.6" x2="3661.7" y2="32.6"/>
<line fill="none" stroke="#002B49" stroke-width="1.25" x1="3993.5" y1="7.6" x2="3993.5" y2="32.6"/>
<line fill="none" stroke="#002B49" stroke-width="1.25" x1="4325.3" y1="7.6" x2="4325.3" y2="32.6"/>
<line fill="none" stroke="#002B49" stroke-width="1.25" x1="4657.2" y1="7.6" x2="4657.2" y2="32.6"/>
<line fill="none" stroke="#002B49" stroke-width="1.25" x1="3880.4" y1="7.6" x2="3880.4" y2="32.6"/>
<line fill="none" stroke="#002B49" stroke-width="1.25" x1="4114.2" y1="7.6" x2="4114.2" y2="32.6"/>
<line fill="none" stroke="#002B49" stroke-width="1.25" x1="4446" y1="7.6" x2="4446" y2="32.6"/>
<line fill="none" stroke="#002B49" stroke-width="1.25" x1="4777.8" y1="7.6" x2="4777.8" y2="32.6"/>
<line fill="none" stroke="#002B49" stroke-width="1.25" x1="3872.9" y1="7.6" x2="3872.9" y2="32.6"/>
<line fill="none" stroke="#002B49" stroke-width="1.25" x1="4234.8" y1="7.6" x2="4234.8" y2="32.6"/>
<line fill="none" stroke="#002B49" stroke-width="1.25" x1="4566.7" y1="7.6" x2="4566.7" y2="32.6"/>
<line fill="none" stroke="#002B49" stroke-width="1.25" x1="4898.5" y1="7.6" x2="4898.5" y2="32.6"/>
<line fill="none" stroke="#002B49" stroke-width="1.25" x1="3759.7" y1="7.6" x2="3759.7" y2="32.6"/>
<line fill="none" stroke="#002B49" stroke-width="1.25" x1="4053.8" y1="7.6" x2="4053.8" y2="32.6"/>
<line fill="none" stroke="#002B49" stroke-width="1.25" x1="4385.7" y1="7.6" x2="4385.7" y2="32.6"/>
<line fill="none" stroke="#002B49" stroke-width="1.25" x1="4717.5" y1="7.6" x2="4717.5" y2="32.6"/>
<line fill="none" stroke="#002B49" stroke-width="1.25" x1="3752.2" y1="7.6" x2="3752.2" y2="32.6"/>
<line fill="none" stroke="#002B49" stroke-width="1.25" x1="4174.5" y1="7.6" x2="4174.5" y2="32.6"/>
<line fill="none" stroke="#002B49" stroke-width="1.25" x1="4506.3" y1="7.6" x2="4506.3" y2="32.6"/>
<line fill="none" stroke="#002B49" stroke-width="1.25" x1="4838.2" y1="7.6" x2="4838.2" y2="32.6"/>
<line fill="none" stroke="#002B49" stroke-width="1.25" x1="3963.4" y1="7.6" x2="3963.4" y2="32.6"/>
<line fill="none" stroke="#002B49" stroke-width="1.25" x1="4295.2" y1="7.6" x2="4295.2" y2="32.6"/>
<line fill="none" stroke="#002B49" stroke-width="1.25" x1="4627" y1="7.6" x2="4627" y2="32.6"/>
<line fill="none" stroke="#002B49" stroke-width="1.25" x1="4958.8" y1="7.6" x2="4958.8" y2="32.6"/>
<line fill="none" stroke="#002B49" stroke-width="1.25" x1="3699.4" y1="7.6" x2="3699.4" y2="32.6"/>
<line fill="none" stroke="#002B49" stroke-width="1.25" x1="4023.7" y1="7.6" x2="4023.7" y2="32.6"/>
<line fill="none" stroke="#002B49" stroke-width="1.25" x1="4355.5" y1="7.6" x2="4355.5" y2="32.6"/>
<line fill="none" stroke="#002B49" stroke-width="1.25" x1="4687.3" y1="7.6" x2="4687.3" y2="32.6"/>
<line fill="none" stroke="#002B49" stroke-width="1.25" x1="3691.9" y1="7.6" x2="3691.9" y2="32.6"/>
<line fill="none" stroke="#002B49" stroke-width="1.25" x1="4144.3" y1="7.6" x2="4144.3" y2="32.6"/>
<line fill="none" stroke="#002B49" stroke-width="1.25" x1="4476.2" y1="7.6" x2="4476.2" y2="32.6"/>
<line fill="none" stroke="#002B49" stroke-width="1.25" x1="4808" y1="7.6" x2="4808" y2="32.6"/>
<line fill="none" stroke="#002B49" stroke-width="1.25" x1="3933.2" y1="7.6" x2="3933.2" y2="32.6"/>
<line fill="none" stroke="#002B49" stroke-width="1.25" x1="4265" y1="7.6" x2="4265" y2="32.6"/>
<line fill="none" stroke="#002B49" stroke-width="1.25" x1="4596.8" y1="7.6" x2="4596.8" y2="32.6"/>
<line fill="none" stroke="#002B49" stroke-width="1.25" x1="4928.7" y1="7.6" x2="4928.7" y2="32.6"/>
<line fill="none" stroke="#002B49" stroke-width="1.25" x1="3820.1" y1="7.6" x2="3820.1" y2="32.6"/>
<line fill="none" stroke="#002B49" stroke-width="1.25" x1="4084" y1="7.6" x2="4084" y2="32.6"/>
<line fill="none" stroke="#002B49" stroke-width="1.25" x1="4415.8" y1="7.6" x2="4415.8" y2="32.6"/>
<line fill="none" stroke="#002B49" stroke-width="1.25" x1="4747.7" y1="7.6" x2="4747.7" y2="32.6"/>
<line fill="none" stroke="#002B49" stroke-width="1.25" x1="3812.5" y1="7.6" x2="3812.5" y2="32.6"/>
<line fill="none" stroke="#002B49" stroke-width="1.25" x1="4204.7" y1="7.6" x2="4204.7" y2="32.6"/>
<line fill="none" stroke="#002B49" stroke-width="1.25" x1="4536.5" y1="7.6" x2="4536.5" y2="32.6"/>
<line fill="none" stroke="#002B49" stroke-width="1.25" x1="4868.3" y1="7.6" x2="4868.3" y2="32.6"/>
<line fill="none" stroke="#002B49" stroke-width="1.25" x1="3676.8" y1="7.6" x2="3676.8" y2="32.6"/>
<line fill="none" stroke="#002B49" stroke-width="1.25" x1="4008.6" y1="7.6" x2="4008.6" y2="32.6"/>
<line fill="none" stroke="#002B49" stroke-width="1.25" x1="4340.4" y1="7.6" x2="4340.4" y2="32.6"/>
<line fill="none" stroke="#002B49" stroke-width="1.25" x1="4672.2" y1="7.6" x2="4672.2" y2="32.6"/>
<line fill="none" stroke="#002B49" stroke-width="1.25" x1="3910.6" y1="7.6" x2="3910.6" y2="32.6"/>
<line fill="none" stroke="#002B49" stroke-width="1.25" x1="4129.3" y1="7.6" x2="4129.3" y2="32.6"/>
<line fill="none" stroke="#002B49" stroke-width="1.25" x1="4461.1" y1="7.6" x2="4461.1" y2="32.6"/>
<line fill="none" stroke="#002B49" stroke-width="1.25" x1="4792.9" y1="7.6" x2="4792.9" y2="32.6"/>
<line fill="none" stroke="#002B49" stroke-width="1.25" x1="3903" y1="7.6" x2="3903" y2="32.6"/>
<line fill="none" stroke="#002B49" stroke-width="1.25" x1="4249.9" y1="7.6" x2="4249.9" y2="32.6"/>
<line fill="none" stroke="#002B49" stroke-width="1.25" x1="4581.7" y1="7.6" x2="4581.7" y2="32.6"/>
<line fill="none" stroke="#002B49" stroke-width="1.25" x1="4913.6" y1="7.6" x2="4913.6" y2="32.6"/>
<line fill="none" stroke="#002B49" stroke-width="1.25" x1="3789.9" y1="7.6" x2="3789.9" y2="32.6"/>
<line fill="none" stroke="#002B49" stroke-width="1.25" x1="4068.9" y1="7.6" x2="4068.9" y2="32.6"/>
<line fill="none" stroke="#002B49" stroke-width="1.25" x1="4400.8" y1="7.6" x2="4400.8" y2="32.6"/>
<line fill="none" stroke="#002B49" stroke-width="1.25" x1="4732.6" y1="7.6" x2="4732.6" y2="32.6"/>
<line fill="none" stroke="#002B49" stroke-width="1.25" x1="3782.4" y1="7.6" x2="3782.4" y2="32.6"/>
<line fill="none" stroke="#002B49" stroke-width="1.25" x1="4189.6" y1="7.6" x2="4189.6" y2="32.6"/>
<line fill="none" stroke="#002B49" stroke-width="1.25" x1="4521.4" y1="7.6" x2="4521.4" y2="32.6"/>
<line fill="none" stroke="#002B49" stroke-width="1.25" x1="4853.2" y1="7.6" x2="4853.2" y2="32.6"/>
<line fill="none" stroke="#002B49" stroke-width="1.25" x1="3729.6" y1="7.6" x2="3729.6" y2="32.6"/>
<line fill="none" stroke="#002B49" stroke-width="1.25" x1="4038.8" y1="7.6" x2="4038.8" y2="32.6"/>
<line fill="none" stroke="#002B49" stroke-width="1.25" x1="4370.6" y1="7.6" x2="4370.6" y2="32.6"/>
<line fill="none" stroke="#002B49" stroke-width="1.25" x1="4702.4" y1="7.6" x2="4702.4" y2="32.6"/>
<line fill="none" stroke="#002B49" stroke-width="1.25" x1="3722" y1="7.6" x2="3722" y2="32.6"/>
<line fill="none" stroke="#002B49" stroke-width="1.25" x1="4159.4" y1="7.6" x2="4159.4" y2="32.6"/>
<line fill="none" stroke="#002B49" stroke-width="1.25" x1="4491.3" y1="7.6" x2="4491.3" y2="32.6"/>
<line fill="none" stroke="#002B49" stroke-width="1.25" x1="4823.1" y1="7.6" x2="4823.1" y2="32.6"/>
<line fill="none" stroke="#002B49" stroke-width="1.25" x1="3948.3" y1="7.6" x2="3948.3" y2="32.6"/>
<line fill="none" stroke="#002B49" stroke-width="1.25" x1="4280.1" y1="7.6" x2="4280.1" y2="32.6"/>
<line fill="none" stroke="#002B49" stroke-width="1.25" x1="4611.9" y1="7.6" x2="4611.9" y2="32.6"/>
<line fill="none" stroke="#002B49" stroke-width="1.25" x1="4943.7" y1="7.6" x2="4943.7" y2="32.6"/>
<line fill="none" stroke="#002B49" stroke-width="1.25" x1="3850.2" y1="7.6" x2="3850.2" y2="32.6"/>
<line fill="none" stroke="#002B49" stroke-width="1.25" x1="4099.1" y1="7.6" x2="4099.1" y2="32.6"/>
<line fill="none" stroke="#002B49" stroke-width="1.25" x1="4430.9" y1="7.6" x2="4430.9" y2="32.6"/>
<line fill="none" stroke="#002B49" stroke-width="1.25" x1="4762.7" y1="7.6" x2="4762.7" y2="32.6"/>
<line fill="none" stroke="#002B49" stroke-width="1.25" x1="3842.7" y1="7.6" x2="3842.7" y2="32.6"/>
<line fill="none" stroke="#002B49" stroke-width="1.25" x1="4219.8" y1="7.6" x2="4219.8" y2="32.6"/>
<line fill="none" stroke="#002B49" stroke-width="1.25" x1="4551.6" y1="7.6" x2="4551.6" y2="32.6"/>
<line fill="none" stroke="#002B49" stroke-width="1.25" x1="4883.4" y1="7.6" x2="4883.4" y2="32.6"/>
<g>
	<defs>
		<rect id="SVGID_3_" x="3645.7" y="1.3" width="1329.2" height="63.3"/>
	</defs>
	<clipPath id="SVGID_4_">
		<use xlink:href="#SVGID_3_"  overflow="visible"/>
	</clipPath>
	<g clip-path="url(#SVGID_4_)">
		<path fill="#FFB81C" d="M3961.5,54.1c0.3-0.7,1-1.3,1.9-1.8l1.4-0.8c0.6-0.4,1.1-0.7,1.3-0.9c0.4-0.4,0.6-0.9,0.6-1.4
			c0-0.6-0.2-1.1-0.5-1.5c-0.4-0.4-0.9-0.5-1.5-0.5c-0.9,0-1.5,0.3-1.9,1c-0.2,0.4-0.3,0.9-0.3,1.5h-1.3c0-0.9,0.2-1.7,0.5-2.2
			c0.6-1,1.6-1.5,3-1.5c1.2,0,2.1,0.3,2.6,1c0.6,0.6,0.8,1.4,0.8,2.2c0,0.8-0.3,1.6-0.9,2.2c-0.3,0.3-1,0.8-1.8,1.3l-1,0.6
			c-0.5,0.3-0.9,0.5-1.1,0.8c-0.5,0.4-0.8,0.9-0.9,1.4h5.7v1.2h-7.2C3961,55.5,3961.2,54.8,3961.5,54.1z"/>
		<path fill="#FFB81C" d="M3976.8,47.6c0.5,0.9,0.7,2,0.7,3.6c0,1.4-0.2,2.6-0.6,3.5c-0.6,1.3-1.6,2-3,2c-1.3,0-2.2-0.5-2.8-1.6
			c-0.5-0.9-0.8-2.1-0.8-3.7c0-1.2,0.2-2.2,0.5-3.1c0.6-1.6,1.6-2.4,3.1-2.4C3975.2,46,3976.2,46.5,3976.8,47.6z M3975.5,54.6
			c0.4-0.6,0.6-1.7,0.6-3.4c0-1.2-0.1-2.2-0.4-2.9c-0.3-0.8-0.9-1.2-1.7-1.2c-0.8,0-1.3,0.4-1.7,1.1c-0.4,0.7-0.5,1.8-0.5,3.2
			c0,1.1,0.1,1.9,0.3,2.6c0.4,1,1,1.5,1.8,1.5C3974.5,55.5,3975.1,55.2,3975.5,54.6z"/>
		<path fill="#FFB81C" d="M3986.4,47.6c0.5,0.9,0.7,2,0.7,3.6c0,1.4-0.2,2.6-0.6,3.5c-0.6,1.3-1.6,2-3,2c-1.3,0-2.2-0.5-2.8-1.6
			c-0.5-0.9-0.8-2.1-0.8-3.7c0-1.2,0.2-2.2,0.5-3.1c0.6-1.6,1.6-2.4,3.1-2.4C3984.8,46,3985.8,46.5,3986.4,47.6z M3985,54.6
			c0.4-0.6,0.6-1.7,0.6-3.4c0-1.2-0.1-2.2-0.4-2.9c-0.3-0.8-0.9-1.2-1.7-1.2c-0.8,0-1.3,0.4-1.7,1.1c-0.4,0.7-0.5,1.8-0.5,3.2
			c0,1.1,0.1,1.9,0.3,2.6c0.4,1,1,1.5,1.8,1.5C3984.1,55.5,3984.6,55.2,3985,54.6z"/>
		<path fill="#FFB81C" d="M3995.9,47.6c0.5,0.9,0.7,2,0.7,3.6c0,1.4-0.2,2.6-0.6,3.5c-0.6,1.3-1.6,2-3,2c-1.3,0-2.2-0.5-2.8-1.6
			c-0.5-0.9-0.8-2.1-0.8-3.7c0-1.2,0.2-2.2,0.5-3.1c0.6-1.6,1.6-2.4,3.1-2.4C3994.3,46,3995.3,46.5,3995.9,47.6z M3994.6,54.6
			c0.4-0.6,0.6-1.7,0.6-3.4c0-1.2-0.1-2.2-0.4-2.9c-0.3-0.8-0.9-1.2-1.7-1.2c-0.8,0-1.3,0.4-1.7,1.1c-0.4,0.7-0.5,1.8-0.5,3.2
			c0,1.1,0.1,1.9,0.3,2.6c0.4,1,1,1.5,1.8,1.5C3993.6,55.5,3994.2,55.2,3994.6,54.6z"/>
	</g>
	<g clip-path="url(#SVGID_4_)">
		<path fill="#FFB81C" d="M4293.6,54.1c0.3-0.7,1-1.3,1.9-1.8l1.4-0.8c0.6-0.4,1.1-0.7,1.3-0.9c0.4-0.4,0.6-0.9,0.6-1.4
			c0-0.6-0.2-1.1-0.5-1.5c-0.4-0.4-0.9-0.5-1.5-0.5c-0.9,0-1.5,0.3-1.9,1c-0.2,0.4-0.3,0.9-0.3,1.5h-1.3c0-0.9,0.2-1.7,0.5-2.2
			c0.6-1,1.6-1.5,3-1.5c1.2,0,2.1,0.3,2.6,1c0.6,0.6,0.8,1.4,0.8,2.2c0,0.8-0.3,1.6-0.9,2.2c-0.3,0.3-1,0.8-1.8,1.3l-1,0.6
			c-0.5,0.3-0.9,0.5-1.1,0.8c-0.5,0.4-0.8,0.9-0.9,1.4h5.7v1.2h-7.2C4293.1,55.5,4293.3,54.8,4293.6,54.1z"/>
		<path fill="#FFB81C" d="M4308.9,47.6c0.5,0.9,0.7,2,0.7,3.6c0,1.4-0.2,2.6-0.6,3.5c-0.6,1.3-1.6,2-3,2c-1.3,0-2.2-0.5-2.8-1.6
			c-0.5-0.9-0.8-2.1-0.8-3.7c0-1.2,0.2-2.2,0.5-3.1c0.6-1.6,1.6-2.4,3.1-2.4C4307.4,46,4308.3,46.5,4308.9,47.6z M4307.6,54.6
			c0.4-0.6,0.6-1.7,0.6-3.4c0-1.2-0.1-2.2-0.4-2.9c-0.3-0.8-0.9-1.2-1.7-1.2c-0.8,0-1.3,0.4-1.7,1.1c-0.4,0.7-0.5,1.8-0.5,3.2
			c0,1.1,0.1,1.9,0.3,2.6c0.4,1,1,1.5,1.8,1.5C4306.7,55.5,4307.2,55.2,4307.6,54.6z"/>
		<path fill="#FFB81C" d="M4312.2,49v-1c1-0.1,1.6-0.2,2-0.5s0.7-0.7,0.8-1.5h1v10.4h-1.4V49H4312.2z"/>
		<path fill="#FFB81C" d="M4326.3,47.6c0.5,0.9,0.7,2,0.7,3.6c0,1.4-0.2,2.6-0.6,3.5c-0.6,1.3-1.6,2-3,2c-1.3,0-2.2-0.5-2.8-1.6
			c-0.5-0.9-0.8-2.1-0.8-3.7c0-1.2,0.2-2.2,0.5-3.1c0.6-1.6,1.6-2.4,3.1-2.4C4324.7,46,4325.7,46.5,4326.3,47.6z M4325,54.6
			c0.4-0.6,0.6-1.7,0.6-3.4c0-1.2-0.1-2.2-0.4-2.9c-0.3-0.8-0.9-1.2-1.7-1.2c-0.8,0-1.3,0.4-1.7,1.1c-0.4,0.7-0.5,1.8-0.5,3.2
			c0,1.1,0.1,1.9,0.3,2.6c0.4,1,1,1.5,1.8,1.5C4324,55.5,4324.6,55.2,4325,54.6z"/>
	</g>
	<g clip-path="url(#SVGID_4_)">
		<path fill="#FFB81C" d="M4624.3,54.1c0.3-0.7,1-1.3,1.9-1.8l1.4-0.8c0.6-0.4,1.1-0.7,1.3-0.9c0.4-0.4,0.6-0.9,0.6-1.4
			c0-0.6-0.2-1.1-0.5-1.5c-0.4-0.4-0.9-0.5-1.5-0.5c-0.9,0-1.5,0.3-1.9,1c-0.2,0.4-0.3,0.9-0.3,1.5h-1.3c0-0.9,0.2-1.7,0.5-2.2
			c0.6-1,1.6-1.5,3-1.5c1.2,0,2.1,0.3,2.6,1c0.6,0.6,0.8,1.4,0.8,2.2c0,0.8-0.3,1.6-0.9,2.2c-0.3,0.3-1,0.8-1.8,1.3l-1,0.6
			c-0.5,0.3-0.9,0.5-1.1,0.8c-0.5,0.4-0.8,0.9-0.9,1.4h5.7v1.2h-7.2C4623.8,55.5,4624,54.8,4624.3,54.1z"/>
		<path fill="#FFB81C" d="M4639.6,47.6c0.5,0.9,0.7,2,0.7,3.6c0,1.4-0.2,2.6-0.6,3.5c-0.6,1.3-1.6,2-3,2c-1.3,0-2.2-0.5-2.8-1.6
			c-0.5-0.9-0.8-2.1-0.8-3.7c0-1.2,0.2-2.2,0.5-3.1c0.6-1.6,1.6-2.4,3.1-2.4C4638,46,4639,46.5,4639.6,47.6z M4638.3,54.6
			c0.4-0.6,0.6-1.7,0.6-3.4c0-1.2-0.1-2.2-0.4-2.9c-0.3-0.8-0.9-1.2-1.7-1.2c-0.8,0-1.3,0.4-1.7,1.1c-0.4,0.7-0.5,1.8-0.5,3.2
			c0,1.1,0.1,1.9,0.3,2.6c0.4,1,1,1.5,1.8,1.5C4637.3,55.5,4637.9,55.2,4638.3,54.6z"/>
		<path fill="#FFB81C" d="M4642.9,54.1c0.3-0.7,1-1.3,1.9-1.8l1.4-0.8c0.6-0.4,1.1-0.7,1.3-0.9c0.4-0.4,0.6-0.9,0.6-1.4
			c0-0.6-0.2-1.1-0.5-1.5c-0.4-0.4-0.9-0.5-1.5-0.5c-0.9,0-1.5,0.3-1.9,1c-0.2,0.4-0.3,0.9-0.3,1.5h-1.3c0-0.9,0.2-1.7,0.5-2.2
			c0.6-1,1.6-1.5,3-1.5c1.2,0,2.1,0.3,2.6,1c0.6,0.6,0.8,1.4,0.8,2.2c0,0.8-0.3,1.6-0.9,2.2c-0.3,0.3-1,0.8-1.8,1.3l-1,0.6
			c-0.5,0.3-0.9,0.5-1.1,0.8c-0.5,0.4-0.8,0.9-0.9,1.4h5.7v1.2h-7.2C4642.4,55.5,4642.6,54.8,4642.9,54.1z"/>
		<path fill="#FFB81C" d="M4658.2,47.6c0.5,0.9,0.7,2,0.7,3.6c0,1.4-0.2,2.6-0.6,3.5c-0.6,1.3-1.6,2-3,2c-1.3,0-2.2-0.5-2.8-1.6
			c-0.5-0.9-0.8-2.1-0.8-3.7c0-1.2,0.2-2.2,0.5-3.1c0.6-1.6,1.6-2.4,3.1-2.4C4656.6,46,4657.6,46.5,4658.2,47.6z M4656.9,54.6
			c0.4-0.6,0.6-1.7,0.6-3.4c0-1.2-0.1-2.2-0.4-2.9c-0.3-0.8-0.9-1.2-1.7-1.2c-0.8,0-1.3,0.4-1.7,1.1c-0.4,0.7-0.5,1.8-0.5,3.2
			c0,1.1,0.1,1.9,0.3,2.6c0.4,1,1,1.5,1.8,1.5C4656,55.5,4656.5,55.2,4656.9,54.6z"/>
	</g>
</g>
<g>
	<defs>
		<rect id="SVGID_5_" x="2317.7" y="1" width="1329.2" height="63.3"/>
	</defs>
	<clipPath id="SVGID_6_">
		<use xlink:href="#SVGID_5_"  overflow="visible"/>
	</clipPath>
	<line clip-path="url(#SVGID_6_)" fill="none" stroke="#002B49" stroke-width="1.875" x1="2318.6" y1="1" x2="2318.6" y2="32.2"/>
	<line clip-path="url(#SVGID_6_)" fill="none" stroke="#002B49" stroke-width="1.875" x1="2650.4" y1="1" x2="2650.4" y2="32.2"/>
	<line clip-path="url(#SVGID_6_)" fill="none" stroke="#002B49" stroke-width="1.875" x1="2982.3" y1="1" x2="2982.3" y2="32.2"/>
	<line clip-path="url(#SVGID_6_)" fill="none" stroke="#002B49" stroke-width="1.875" x1="3314.1" y1="1" x2="3314.1" y2="32.2"/>
</g>
<line fill="none" stroke="#002B49" stroke-width="1.25" x1="2326.2" y1="7.2" x2="2326.2" y2="32.2"/>
<line fill="none" stroke="#002B49" stroke-width="1.25" x1="2658" y1="7.2" x2="2658" y2="32.2"/>
<line fill="none" stroke="#002B49" stroke-width="1.25" x1="2989.8" y1="7.2" x2="2989.8" y2="32.2"/>
<line fill="none" stroke="#002B49" stroke-width="1.25" x1="3321.6" y1="7.2" x2="3321.6" y2="32.2"/>
<line fill="none" stroke="#002B49" stroke-width="1.25" x1="2537.3" y1="7.2" x2="2537.3" y2="32.2"/>
<line fill="none" stroke="#002B49" stroke-width="1.25" x1="2778.6" y1="7.2" x2="2778.6" y2="32.2"/>
<line fill="none" stroke="#002B49" stroke-width="1.25" x1="3110.5" y1="7.2" x2="3110.5" y2="32.2"/>
<line fill="none" stroke="#002B49" stroke-width="1.25" x1="3442.3" y1="7.2" x2="3442.3" y2="32.2"/>
<line fill="none" stroke="#002B49" stroke-width="1.25" x1="2529.8" y1="7.2" x2="2529.8" y2="32.2"/>
<line fill="none" stroke="#002B49" stroke-width="1.25" x1="2899.3" y1="7.2" x2="2899.3" y2="32.2"/>
<line fill="none" stroke="#002B49" stroke-width="1.25" x1="3231.1" y1="7.2" x2="3231.1" y2="32.2"/>
<line fill="none" stroke="#002B49" stroke-width="1.25" x1="3562.9" y1="7.2" x2="3562.9" y2="32.2"/>
<line fill="none" stroke="#002B49" stroke-width="1.25" x1="2416.6" y1="7.2" x2="2416.6" y2="32.2"/>
<line fill="none" stroke="#002B49" stroke-width="1.25" x1="2718.3" y1="7.2" x2="2718.3" y2="32.2"/>
<line fill="none" stroke="#002B49" stroke-width="1.25" x1="3050.1" y1="7.2" x2="3050.1" y2="32.2"/>
<line fill="none" stroke="#002B49" stroke-width="1.25" x1="3382" y1="7.2" x2="3382" y2="32.2"/>
<line fill="none" stroke="#002B49" stroke-width="1.25" x1="2409.1" y1="7.2" x2="2409.1" y2="32.2"/>
<line fill="none" stroke="#002B49" stroke-width="1.25" x1="2839" y1="7.2" x2="2839" y2="32.2"/>
<line fill="none" stroke="#002B49" stroke-width="1.25" x1="3170.8" y1="7.2" x2="3170.8" y2="32.2"/>
<line fill="none" stroke="#002B49" stroke-width="1.25" x1="3502.6" y1="7.2" x2="3502.6" y2="32.2"/>
<line fill="none" stroke="#002B49" stroke-width="1.25" x1="2627.8" y1="7.2" x2="2627.8" y2="32.2"/>
<line fill="none" stroke="#002B49" stroke-width="1.25" x1="2959.6" y1="7.2" x2="2959.6" y2="32.2"/>
<line fill="none" stroke="#002B49" stroke-width="1.25" x1="3291.5" y1="7.2" x2="3291.5" y2="32.2"/>
<line fill="none" stroke="#002B49" stroke-width="1.25" x1="3623.3" y1="7.2" x2="3623.3" y2="32.2"/>
<line fill="none" stroke="#002B49" stroke-width="1.25" x1="2356.3" y1="7.2" x2="2356.3" y2="32.2"/>
<line fill="none" stroke="#002B49" stroke-width="1.25" x1="2688.1" y1="7.2" x2="2688.1" y2="32.2"/>
<line fill="none" stroke="#002B49" stroke-width="1.25" x1="3020" y1="7.2" x2="3020" y2="32.2"/>
<line fill="none" stroke="#002B49" stroke-width="1.25" x1="3351.8" y1="7.2" x2="3351.8" y2="32.2"/>
<line fill="none" stroke="#002B49" stroke-width="1.25" x1="2597.6" y1="7.2" x2="2597.6" y2="32.2"/>
<line fill="none" stroke="#002B49" stroke-width="1.25" x1="2808.8" y1="7.2" x2="2808.8" y2="32.2"/>
<line fill="none" stroke="#002B49" stroke-width="1.25" x1="3140.6" y1="7.2" x2="3140.6" y2="32.2"/>
<line fill="none" stroke="#002B49" stroke-width="1.25" x1="3472.4" y1="7.2" x2="3472.4" y2="32.2"/>
<line fill="none" stroke="#002B49" stroke-width="1.25" x1="2590.1" y1="7.2" x2="2590.1" y2="32.2"/>
<line fill="none" stroke="#002B49" stroke-width="1.25" x1="2929.5" y1="7.2" x2="2929.5" y2="32.2"/>
<line fill="none" stroke="#002B49" stroke-width="1.25" x1="3261.3" y1="7.2" x2="3261.3" y2="32.2"/>
<line fill="none" stroke="#002B49" stroke-width="1.25" x1="3593.1" y1="7.2" x2="3593.1" y2="32.2"/>
<line fill="none" stroke="#002B49" stroke-width="1.25" x1="2477" y1="7.2" x2="2477" y2="32.2"/>
<line fill="none" stroke="#002B49" stroke-width="1.25" x1="2748.5" y1="7.2" x2="2748.5" y2="32.2"/>
<line fill="none" stroke="#002B49" stroke-width="1.25" x1="3080.3" y1="7.2" x2="3080.3" y2="32.2"/>
<line fill="none" stroke="#002B49" stroke-width="1.25" x1="3412.1" y1="7.2" x2="3412.1" y2="32.2"/>
<line fill="none" stroke="#002B49" stroke-width="1.25" x1="2469.4" y1="7.2" x2="2469.4" y2="32.2"/>
<line fill="none" stroke="#002B49" stroke-width="1.25" x1="2869.1" y1="7.2" x2="2869.1" y2="32.2"/>
<line fill="none" stroke="#002B49" stroke-width="1.25" x1="3201" y1="7.2" x2="3201" y2="32.2"/>
<line fill="none" stroke="#002B49" stroke-width="1.25" x1="3532.8" y1="7.2" x2="3532.8" y2="32.2"/>
<line fill="none" stroke="#002B49" stroke-width="1.25" x1="2341.2" y1="7.2" x2="2341.2" y2="32.2"/>
<line fill="none" stroke="#002B49" stroke-width="1.25" x1="2673.1" y1="7.2" x2="2673.1" y2="32.2"/>
<line fill="none" stroke="#002B49" stroke-width="1.25" x1="3004.9" y1="7.2" x2="3004.9" y2="32.2"/>
<line fill="none" stroke="#002B49" stroke-width="1.25" x1="3336.7" y1="7.2" x2="3336.7" y2="32.2"/>
<line fill="none" stroke="#002B49" stroke-width="1.25" x1="2567.5" y1="7.2" x2="2567.5" y2="32.2"/>
<line fill="none" stroke="#002B49" stroke-width="1.25" x1="2793.7" y1="7.2" x2="2793.7" y2="32.2"/>
<line fill="none" stroke="#002B49" stroke-width="1.25" x1="3125.5" y1="7.2" x2="3125.5" y2="32.2"/>
<line fill="none" stroke="#002B49" stroke-width="1.25" x1="3457.4" y1="7.2" x2="3457.4" y2="32.2"/>
<line fill="none" stroke="#002B49" stroke-width="1.25" x1="2559.9" y1="7.2" x2="2559.9" y2="32.2"/>
<line fill="none" stroke="#002B49" stroke-width="1.25" x1="2914.4" y1="7.2" x2="2914.4" y2="32.2"/>
<line fill="none" stroke="#002B49" stroke-width="1.25" x1="3246.2" y1="7.2" x2="3246.2" y2="32.2"/>
<line fill="none" stroke="#002B49" stroke-width="1.25" x1="3578" y1="7.2" x2="3578" y2="32.2"/>
<line fill="none" stroke="#002B49" stroke-width="1.25" x1="2446.8" y1="7.2" x2="2446.8" y2="32.2"/>
<line fill="none" stroke="#002B49" stroke-width="1.25" x1="2733.4" y1="7.2" x2="2733.4" y2="32.2"/>
<line fill="none" stroke="#002B49" stroke-width="1.25" x1="3065.2" y1="7.2" x2="3065.2" y2="32.2"/>
<line fill="none" stroke="#002B49" stroke-width="1.25" x1="3397" y1="7.2" x2="3397" y2="32.2"/>
<line fill="none" stroke="#002B49" stroke-width="1.25" x1="2439.3" y1="7.2" x2="2439.3" y2="32.2"/>
<line fill="none" stroke="#002B49" stroke-width="1.25" x1="2854.1" y1="7.2" x2="2854.1" y2="32.2"/>
<line fill="none" stroke="#002B49" stroke-width="1.25" x1="3185.9" y1="7.2" x2="3185.9" y2="32.2"/>
<line fill="none" stroke="#002B49" stroke-width="1.25" x1="3517.7" y1="7.2" x2="3517.7" y2="32.2"/>
<line fill="none" stroke="#002B49" stroke-width="1.25" x1="2642.9" y1="7.2" x2="2642.9" y2="32.2"/>
<line fill="none" stroke="#002B49" stroke-width="1.25" x1="2974.7" y1="7.2" x2="2974.7" y2="32.2"/>
<line fill="none" stroke="#002B49" stroke-width="1.25" x1="3306.5" y1="7.2" x2="3306.5" y2="32.2"/>
<line fill="none" stroke="#002B49" stroke-width="1.25" x1="3638.4" y1="7.2" x2="3638.4" y2="32.2"/>
<line fill="none" stroke="#002B49" stroke-width="1.25" x1="2386.5" y1="7.2" x2="2386.5" y2="32.2"/>
<line fill="none" stroke="#002B49" stroke-width="1.25" x1="2703.2" y1="7.2" x2="2703.2" y2="32.2"/>
<line fill="none" stroke="#002B49" stroke-width="1.25" x1="3035" y1="7.2" x2="3035" y2="32.2"/>
<line fill="none" stroke="#002B49" stroke-width="1.25" x1="3366.9" y1="7.2" x2="3366.9" y2="32.2"/>
<line fill="none" stroke="#002B49" stroke-width="1.25" x1="2378.9" y1="7.2" x2="2378.9" y2="32.2"/>
<line fill="none" stroke="#002B49" stroke-width="1.25" x1="2823.9" y1="7.2" x2="2823.9" y2="32.2"/>
<line fill="none" stroke="#002B49" stroke-width="1.25" x1="3155.7" y1="7.2" x2="3155.7" y2="32.2"/>
<line fill="none" stroke="#002B49" stroke-width="1.25" x1="3487.5" y1="7.2" x2="3487.5" y2="32.2"/>
<line fill="none" stroke="#002B49" stroke-width="1.25" x1="2612.7" y1="7.2" x2="2612.7" y2="32.2"/>
<line fill="none" stroke="#002B49" stroke-width="1.25" x1="2944.5" y1="7.2" x2="2944.5" y2="32.2"/>
<line fill="none" stroke="#002B49" stroke-width="1.25" x1="3276.4" y1="7.2" x2="3276.4" y2="32.2"/>
<line fill="none" stroke="#002B49" stroke-width="1.25" x1="3608.2" y1="7.2" x2="3608.2" y2="32.2"/>
<line fill="none" stroke="#002B49" stroke-width="1.25" x1="2507.1" y1="7.2" x2="2507.1" y2="32.2"/>
<line fill="none" stroke="#002B49" stroke-width="1.25" x1="2763.6" y1="7.2" x2="2763.6" y2="32.2"/>
<line fill="none" stroke="#002B49" stroke-width="1.25" x1="3095.4" y1="7.2" x2="3095.4" y2="32.2"/>
<line fill="none" stroke="#002B49" stroke-width="1.25" x1="3427.2" y1="7.2" x2="3427.2" y2="32.2"/>
<line fill="none" stroke="#002B49" stroke-width="1.25" x1="2499.6" y1="7.2" x2="2499.6" y2="32.2"/>
<line fill="none" stroke="#002B49" stroke-width="1.25" x1="2884.2" y1="7.2" x2="2884.2" y2="32.2"/>
<line fill="none" stroke="#002B49" stroke-width="1.25" x1="3216" y1="7.2" x2="3216" y2="32.2"/>
<line fill="none" stroke="#002B49" stroke-width="1.25" x1="3547.9" y1="7.2" x2="3547.9" y2="32.2"/>
<line fill="none" stroke="#002B49" stroke-width="1.25" x1="2333.7" y1="7.2" x2="2333.7" y2="32.2"/>
<line fill="none" stroke="#002B49" stroke-width="1.25" x1="2665.5" y1="7.2" x2="2665.5" y2="32.2"/>
<line fill="none" stroke="#002B49" stroke-width="1.25" x1="2997.3" y1="7.2" x2="2997.3" y2="32.2"/>
<line fill="none" stroke="#002B49" stroke-width="1.25" x1="3329.2" y1="7.2" x2="3329.2" y2="32.2"/>
<line fill="none" stroke="#002B49" stroke-width="1.25" x1="2552.4" y1="7.2" x2="2552.4" y2="32.2"/>
<line fill="none" stroke="#002B49" stroke-width="1.25" x1="2786.2" y1="7.2" x2="2786.2" y2="32.2"/>
<line fill="none" stroke="#002B49" stroke-width="1.25" x1="3118" y1="7.2" x2="3118" y2="32.2"/>
<line fill="none" stroke="#002B49" stroke-width="1.25" x1="3449.8" y1="7.2" x2="3449.8" y2="32.2"/>
<line fill="none" stroke="#002B49" stroke-width="1.25" x1="2544.9" y1="7.2" x2="2544.9" y2="32.2"/>
<line fill="none" stroke="#002B49" stroke-width="1.25" x1="2906.8" y1="7.2" x2="2906.8" y2="32.2"/>
<line fill="none" stroke="#002B49" stroke-width="1.25" x1="3238.7" y1="7.2" x2="3238.7" y2="32.2"/>
<line fill="none" stroke="#002B49" stroke-width="1.25" x1="3570.5" y1="7.2" x2="3570.5" y2="32.2"/>
<line fill="none" stroke="#002B49" stroke-width="1.25" x1="2431.7" y1="7.2" x2="2431.7" y2="32.2"/>
<line fill="none" stroke="#002B49" stroke-width="1.25" x1="2725.8" y1="7.2" x2="2725.8" y2="32.2"/>
<line fill="none" stroke="#002B49" stroke-width="1.25" x1="3057.7" y1="7.2" x2="3057.7" y2="32.2"/>
<line fill="none" stroke="#002B49" stroke-width="1.25" x1="3389.5" y1="7.2" x2="3389.5" y2="32.2"/>
<line fill="none" stroke="#002B49" stroke-width="1.25" x1="2424.2" y1="7.2" x2="2424.2" y2="32.2"/>
<line fill="none" stroke="#002B49" stroke-width="1.25" x1="2846.5" y1="7.2" x2="2846.5" y2="32.2"/>
<line fill="none" stroke="#002B49" stroke-width="1.25" x1="3178.3" y1="7.2" x2="3178.3" y2="32.2"/>
<line fill="none" stroke="#002B49" stroke-width="1.25" x1="3510.2" y1="7.2" x2="3510.2" y2="32.2"/>
<line fill="none" stroke="#002B49" stroke-width="1.25" x1="2635.4" y1="7.2" x2="2635.4" y2="32.2"/>
<line fill="none" stroke="#002B49" stroke-width="1.25" x1="2967.2" y1="7.2" x2="2967.2" y2="32.2"/>
<line fill="none" stroke="#002B49" stroke-width="1.25" x1="3299" y1="7.2" x2="3299" y2="32.2"/>
<line fill="none" stroke="#002B49" stroke-width="1.25" x1="3630.8" y1="7.2" x2="3630.8" y2="32.2"/>
<line fill="none" stroke="#002B49" stroke-width="1.25" x1="2371.4" y1="7.2" x2="2371.4" y2="32.2"/>
<line fill="none" stroke="#002B49" stroke-width="1.25" x1="2695.7" y1="7.2" x2="2695.7" y2="32.2"/>
<line fill="none" stroke="#002B49" stroke-width="1.25" x1="3027.5" y1="7.2" x2="3027.5" y2="32.2"/>
<line fill="none" stroke="#002B49" stroke-width="1.25" x1="3359.3" y1="7.2" x2="3359.3" y2="32.2"/>
<line fill="none" stroke="#002B49" stroke-width="1.25" x1="2363.9" y1="7.2" x2="2363.9" y2="32.2"/>
<line fill="none" stroke="#002B49" stroke-width="1.25" x1="2816.3" y1="7.2" x2="2816.3" y2="32.2"/>
<line fill="none" stroke="#002B49" stroke-width="1.25" x1="3148.2" y1="7.2" x2="3148.2" y2="32.2"/>
<line fill="none" stroke="#002B49" stroke-width="1.25" x1="3480" y1="7.2" x2="3480" y2="32.2"/>
<line fill="none" stroke="#002B49" stroke-width="1.25" x1="2605.2" y1="7.2" x2="2605.2" y2="32.2"/>
<line fill="none" stroke="#002B49" stroke-width="1.25" x1="2937" y1="7.2" x2="2937" y2="32.2"/>
<line fill="none" stroke="#002B49" stroke-width="1.25" x1="3268.8" y1="7.2" x2="3268.8" y2="32.2"/>
<line fill="none" stroke="#002B49" stroke-width="1.25" x1="3600.7" y1="7.2" x2="3600.7" y2="32.2"/>
<line fill="none" stroke="#002B49" stroke-width="1.25" x1="2492.1" y1="7.2" x2="2492.1" y2="32.2"/>
<line fill="none" stroke="#002B49" stroke-width="1.25" x1="2756" y1="7.2" x2="2756" y2="32.2"/>
<line fill="none" stroke="#002B49" stroke-width="1.25" x1="3087.8" y1="7.2" x2="3087.8" y2="32.2"/>
<line fill="none" stroke="#002B49" stroke-width="1.25" x1="3419.7" y1="7.2" x2="3419.7" y2="32.2"/>
<line fill="none" stroke="#002B49" stroke-width="1.25" x1="2484.5" y1="7.2" x2="2484.5" y2="32.2"/>
<line fill="none" stroke="#002B49" stroke-width="1.25" x1="2876.7" y1="7.2" x2="2876.7" y2="32.2"/>
<line fill="none" stroke="#002B49" stroke-width="1.25" x1="3208.5" y1="7.2" x2="3208.5" y2="32.2"/>
<line fill="none" stroke="#002B49" stroke-width="1.25" x1="3540.3" y1="7.2" x2="3540.3" y2="32.2"/>
<line fill="none" stroke="#002B49" stroke-width="1.25" x1="2348.8" y1="7.2" x2="2348.8" y2="32.2"/>
<line fill="none" stroke="#002B49" stroke-width="1.25" x1="2680.6" y1="7.2" x2="2680.6" y2="32.2"/>
<line fill="none" stroke="#002B49" stroke-width="1.25" x1="3012.4" y1="7.2" x2="3012.4" y2="32.2"/>
<line fill="none" stroke="#002B49" stroke-width="1.25" x1="3344.2" y1="7.2" x2="3344.2" y2="32.2"/>
<line fill="none" stroke="#002B49" stroke-width="1.25" x1="2582.6" y1="7.2" x2="2582.6" y2="32.2"/>
<line fill="none" stroke="#002B49" stroke-width="1.25" x1="2801.3" y1="7.2" x2="2801.3" y2="32.2"/>
<line fill="none" stroke="#002B49" stroke-width="1.25" x1="3133.1" y1="7.2" x2="3133.1" y2="32.2"/>
<line fill="none" stroke="#002B49" stroke-width="1.25" x1="3464.9" y1="7.2" x2="3464.9" y2="32.2"/>
<line fill="none" stroke="#002B49" stroke-width="1.25" x1="2575" y1="7.2" x2="2575" y2="32.2"/>
<line fill="none" stroke="#002B49" stroke-width="1.25" x1="2921.9" y1="7.2" x2="2921.9" y2="32.2"/>
<line fill="none" stroke="#002B49" stroke-width="1.25" x1="3253.7" y1="7.2" x2="3253.7" y2="32.2"/>
<line fill="none" stroke="#002B49" stroke-width="1.25" x1="3585.6" y1="7.2" x2="3585.6" y2="32.2"/>
<line fill="none" stroke="#002B49" stroke-width="1.25" x1="2461.9" y1="7.2" x2="2461.9" y2="32.2"/>
<line fill="none" stroke="#002B49" stroke-width="1.25" x1="2740.9" y1="7.2" x2="2740.9" y2="32.2"/>
<line fill="none" stroke="#002B49" stroke-width="1.25" x1="3072.8" y1="7.2" x2="3072.8" y2="32.2"/>
<line fill="none" stroke="#002B49" stroke-width="1.25" x1="3404.6" y1="7.2" x2="3404.6" y2="32.2"/>
<line fill="none" stroke="#002B49" stroke-width="1.25" x1="2454.4" y1="7.2" x2="2454.4" y2="32.2"/>
<line fill="none" stroke="#002B49" stroke-width="1.25" x1="2861.6" y1="7.2" x2="2861.6" y2="32.2"/>
<line fill="none" stroke="#002B49" stroke-width="1.25" x1="3193.4" y1="7.2" x2="3193.4" y2="32.2"/>
<line fill="none" stroke="#002B49" stroke-width="1.25" x1="3525.2" y1="7.2" x2="3525.2" y2="32.2"/>
<line fill="none" stroke="#002B49" stroke-width="1.25" x1="2401.6" y1="7.2" x2="2401.6" y2="32.2"/>
<line fill="none" stroke="#002B49" stroke-width="1.25" x1="2710.8" y1="7.2" x2="2710.8" y2="32.2"/>
<line fill="none" stroke="#002B49" stroke-width="1.25" x1="3042.6" y1="7.2" x2="3042.6" y2="32.2"/>
<line fill="none" stroke="#002B49" stroke-width="1.25" x1="3374.4" y1="7.2" x2="3374.4" y2="32.2"/>
<line fill="none" stroke="#002B49" stroke-width="1.25" x1="2394" y1="7.2" x2="2394" y2="32.2"/>
<line fill="none" stroke="#002B49" stroke-width="1.25" x1="2831.4" y1="7.2" x2="2831.4" y2="32.2"/>
<line fill="none" stroke="#002B49" stroke-width="1.25" x1="3163.3" y1="7.2" x2="3163.3" y2="32.2"/>
<line fill="none" stroke="#002B49" stroke-width="1.25" x1="3495.1" y1="7.2" x2="3495.1" y2="32.2"/>
<line fill="none" stroke="#002B49" stroke-width="1.25" x1="2620.3" y1="7.2" x2="2620.3" y2="32.2"/>
<line fill="none" stroke="#002B49" stroke-width="1.25" x1="2952.1" y1="7.2" x2="2952.1" y2="32.2"/>
<line fill="none" stroke="#002B49" stroke-width="1.25" x1="3283.9" y1="7.2" x2="3283.9" y2="32.2"/>
<line fill="none" stroke="#002B49" stroke-width="1.25" x1="3615.7" y1="7.2" x2="3615.7" y2="32.2"/>
<line fill="none" stroke="#002B49" stroke-width="1.25" x1="2522.2" y1="7.2" x2="2522.2" y2="32.2"/>
<line fill="none" stroke="#002B49" stroke-width="1.25" x1="2771.1" y1="7.2" x2="2771.1" y2="32.2"/>
<line fill="none" stroke="#002B49" stroke-width="1.25" x1="3102.9" y1="7.2" x2="3102.9" y2="32.2"/>
<line fill="none" stroke="#002B49" stroke-width="1.25" x1="3434.7" y1="7.2" x2="3434.7" y2="32.2"/>
<line fill="none" stroke="#002B49" stroke-width="1.25" x1="2514.7" y1="7.2" x2="2514.7" y2="32.2"/>
<line fill="none" stroke="#002B49" stroke-width="1.25" x1="2891.8" y1="7.2" x2="2891.8" y2="32.2"/>
<line fill="none" stroke="#002B49" stroke-width="1.25" x1="3223.6" y1="7.2" x2="3223.6" y2="32.2"/>
<line fill="none" stroke="#002B49" stroke-width="1.25" x1="3555.4" y1="7.2" x2="3555.4" y2="32.2"/>
<line fill="none" stroke="#002B49" stroke-width="1.875" x1="990.1" y1="1" x2="990.1" y2="32.2"/>
<line fill="none" stroke="#002B49" stroke-width="1.875" x1="657.6" y1="1.7" x2="657.6" y2="32.9"/>
<line fill="none" stroke="#002B49" stroke-width="1.875" x1="1321.9" y1="1" x2="1321.9" y2="32.2"/>
<line fill="none" stroke="#002B49" stroke-width="1.875" x1="1653.7" y1="1" x2="1653.7" y2="32.2"/>
<line fill="none" stroke="#002B49" stroke-width="1.875" x1="1985.6" y1="1" x2="1985.6" y2="32.2"/>
<line fill="none" stroke="#002B49" stroke-width="1.25" x1="997.6" y1="7.2" x2="997.6" y2="32.2"/>
<line fill="none" stroke="#002B49" stroke-width="1.25" x1="1329.5" y1="7.2" x2="1329.5" y2="32.2"/>
<line fill="none" stroke="#002B49" stroke-width="1.25" x1="1661.3" y1="7.2" x2="1661.3" y2="32.2"/>
<line fill="none" stroke="#002B49" stroke-width="1.25" x1="1993.1" y1="7.2" x2="1993.1" y2="32.2"/>
<line fill="none" stroke="#002B49" stroke-width="1.25" x1="1208.8" y1="7.2" x2="1208.8" y2="32.2"/>
<line fill="none" stroke="#002B49" stroke-width="1.25" x1="1450.1" y1="7.2" x2="1450.1" y2="32.2"/>
<line fill="none" stroke="#002B49" stroke-width="1.25" x1="1781.9" y1="7.2" x2="1781.9" y2="32.2"/>
<line fill="none" stroke="#002B49" stroke-width="1.25" x1="2113.8" y1="7.2" x2="2113.8" y2="32.2"/>
<line fill="none" stroke="#002B49" stroke-width="1.25" x1="1201.2" y1="7.2" x2="1201.2" y2="32.2"/>
<line fill="none" stroke="#002B49" stroke-width="1.25" x1="1570.8" y1="7.2" x2="1570.8" y2="32.2"/>
<line fill="none" stroke="#002B49" stroke-width="1.25" x1="1902.6" y1="7.2" x2="1902.6" y2="32.2"/>
<line fill="none" stroke="#002B49" stroke-width="1.25" x1="2234.4" y1="7.2" x2="2234.4" y2="32.2"/>
<line fill="none" stroke="#002B49" stroke-width="1.25" x1="1088.1" y1="7.2" x2="1088.1" y2="32.2"/>
<line fill="none" stroke="#002B49" stroke-width="1.25" x1="1389.8" y1="7.2" x2="1389.8" y2="32.2"/>
<line fill="none" stroke="#002B49" stroke-width="1.25" x1="1721.6" y1="7.2" x2="1721.6" y2="32.2"/>
<line fill="none" stroke="#002B49" stroke-width="1.25" x1="2053.4" y1="7.2" x2="2053.4" y2="32.2"/>
<line fill="none" stroke="#002B49" stroke-width="1.25" x1="1080.6" y1="7.2" x2="1080.6" y2="32.2"/>
<line fill="none" stroke="#002B49" stroke-width="1.25" x1="1510.4" y1="7.2" x2="1510.4" y2="32.2"/>
<line fill="none" stroke="#002B49" stroke-width="1.25" x1="1842.3" y1="7.2" x2="1842.3" y2="32.2"/>
<line fill="none" stroke="#002B49" stroke-width="1.25" x1="2174.1" y1="7.2" x2="2174.1" y2="32.2"/>
<line fill="none" stroke="#002B49" stroke-width="1.25" x1="1299.3" y1="7.2" x2="1299.3" y2="32.2"/>
<line fill="none" stroke="#002B49" stroke-width="1.25" x1="1631.1" y1="7.2" x2="1631.1" y2="32.2"/>
<line fill="none" stroke="#002B49" stroke-width="1.25" x1="1962.9" y1="7.2" x2="1962.9" y2="32.2"/>
<line fill="none" stroke="#002B49" stroke-width="1.25" x1="2294.8" y1="7.2" x2="2294.8" y2="32.2"/>
<line fill="none" stroke="#002B49" stroke-width="1.25" x1="1027.8" y1="7.2" x2="1027.8" y2="32.2"/>
<line fill="none" stroke="#002B49" stroke-width="1.25" x1="1359.6" y1="7.2" x2="1359.6" y2="32.2"/>
<line fill="none" stroke="#002B49" stroke-width="1.25" x1="1691.4" y1="7.2" x2="1691.4" y2="32.2"/>
<line fill="none" stroke="#002B49" stroke-width="1.25" x1="2023.3" y1="7.2" x2="2023.3" y2="32.2"/>
<line fill="none" stroke="#002B49" stroke-width="1.25" x1="1269.1" y1="7.2" x2="1269.1" y2="32.2"/>
<line fill="none" stroke="#002B49" stroke-width="1.25" x1="1480.3" y1="7.2" x2="1480.3" y2="32.2"/>
<line fill="none" stroke="#002B49" stroke-width="1.25" x1="1812.1" y1="7.2" x2="1812.1" y2="32.2"/>
<line fill="none" stroke="#002B49" stroke-width="1.25" x1="2143.9" y1="7.2" x2="2143.9" y2="32.2"/>
<line fill="none" stroke="#002B49" stroke-width="1.25" x1="1261.6" y1="7.2" x2="1261.6" y2="32.2"/>
<line fill="none" stroke="#002B49" stroke-width="1.25" x1="1600.9" y1="7.2" x2="1600.9" y2="32.2"/>
<line fill="none" stroke="#002B49" stroke-width="1.25" x1="1932.8" y1="7.2" x2="1932.8" y2="32.2"/>
<line fill="none" stroke="#002B49" stroke-width="1.25" x1="2264.6" y1="7.2" x2="2264.6" y2="32.2"/>
<line fill="none" stroke="#002B49" stroke-width="1.25" x1="1148.5" y1="7.2" x2="1148.5" y2="32.2"/>
<line fill="none" stroke="#002B49" stroke-width="1.25" x1="1420" y1="7.2" x2="1420" y2="32.2"/>
<line fill="none" stroke="#002B49" stroke-width="1.25" x1="1751.8" y1="7.2" x2="1751.8" y2="32.2"/>
<line fill="none" stroke="#002B49" stroke-width="1.25" x1="2083.6" y1="7.2" x2="2083.6" y2="32.2"/>
<line fill="none" stroke="#002B49" stroke-width="1.25" x1="1140.9" y1="7.2" x2="1140.9" y2="32.2"/>
<line fill="none" stroke="#002B49" stroke-width="1.25" x1="1540.6" y1="7.2" x2="1540.6" y2="32.2"/>
<line fill="none" stroke="#002B49" stroke-width="1.25" x1="1872.4" y1="7.2" x2="1872.4" y2="32.2"/>
<line fill="none" stroke="#002B49" stroke-width="1.25" x1="2204.3" y1="7.2" x2="2204.3" y2="32.2"/>
<line fill="none" stroke="#002B49" stroke-width="1.25" x1="1012.7" y1="7.2" x2="1012.7" y2="32.2"/>
<line fill="none" stroke="#002B49" stroke-width="1.25" x1="1344.5" y1="7.2" x2="1344.5" y2="32.2"/>
<line fill="none" stroke="#002B49" stroke-width="1.25" x1="1676.4" y1="7.2" x2="1676.4" y2="32.2"/>
<line fill="none" stroke="#002B49" stroke-width="1.25" x1="2008.2" y1="7.2" x2="2008.2" y2="32.2"/>
<line fill="none" stroke="#002B49" stroke-width="1.25" x1="1239" y1="7.2" x2="1239" y2="32.2"/>
<line fill="none" stroke="#002B49" stroke-width="1.25" x1="1465.2" y1="7.2" x2="1465.2" y2="32.2"/>
<line fill="none" stroke="#002B49" stroke-width="1.25" x1="1797" y1="7.2" x2="1797" y2="32.2"/>
<line fill="none" stroke="#002B49" stroke-width="1.25" x1="2128.8" y1="7.2" x2="2128.8" y2="32.2"/>
<line fill="none" stroke="#002B49" stroke-width="1.25" x1="1231.4" y1="7.2" x2="1231.4" y2="32.2"/>
<line fill="none" stroke="#002B49" stroke-width="1.25" x1="1585.9" y1="7.2" x2="1585.9" y2="32.2"/>
<line fill="none" stroke="#002B49" stroke-width="1.25" x1="1917.7" y1="7.2" x2="1917.7" y2="32.2"/>
<line fill="none" stroke="#002B49" stroke-width="1.25" x1="2249.5" y1="7.2" x2="2249.5" y2="32.2"/>
<line fill="none" stroke="#002B49" stroke-width="1.25" x1="1118.3" y1="7.2" x2="1118.3" y2="32.2"/>
<line fill="none" stroke="#002B49" stroke-width="1.25" x1="1404.9" y1="7.2" x2="1404.9" y2="32.2"/>
<line fill="none" stroke="#002B49" stroke-width="1.25" x1="1736.7" y1="7.2" x2="1736.7" y2="32.2"/>
<line fill="none" stroke="#002B49" stroke-width="1.25" x1="2068.5" y1="7.2" x2="2068.5" y2="32.2"/>
<line fill="none" stroke="#002B49" stroke-width="1.25" x1="1110.8" y1="7.2" x2="1110.8" y2="32.2"/>
<line fill="none" stroke="#002B49" stroke-width="1.25" x1="1525.5" y1="7.2" x2="1525.5" y2="32.2"/>
<line fill="none" stroke="#002B49" stroke-width="1.25" x1="1857.4" y1="7.2" x2="1857.4" y2="32.2"/>
<line fill="none" stroke="#002B49" stroke-width="1.25" x1="2189.2" y1="7.2" x2="2189.2" y2="32.2"/>
<line fill="none" stroke="#002B49" stroke-width="1.25" x1="1314.4" y1="7.2" x2="1314.4" y2="32.2"/>
<line fill="none" stroke="#002B49" stroke-width="1.25" x1="1646.2" y1="7.2" x2="1646.2" y2="32.2"/>
<line fill="none" stroke="#002B49" stroke-width="1.25" x1="1978" y1="7.2" x2="1978" y2="32.2"/>
<line fill="none" stroke="#002B49" stroke-width="1.25" x1="2309.8" y1="7.2" x2="2309.8" y2="32.2"/>
<line fill="none" stroke="#002B49" stroke-width="1.25" x1="1058" y1="7.2" x2="1058" y2="32.2"/>
<line fill="none" stroke="#002B49" stroke-width="1.25" x1="1374.7" y1="7.2" x2="1374.7" y2="32.2"/>
<line fill="none" stroke="#002B49" stroke-width="1.25" x1="1706.5" y1="7.2" x2="1706.5" y2="32.2"/>
<line fill="none" stroke="#002B49" stroke-width="1.25" x1="2038.3" y1="7.2" x2="2038.3" y2="32.2"/>
<line fill="none" stroke="#002B49" stroke-width="1.25" x1="1050.4" y1="7.2" x2="1050.4" y2="32.2"/>
<line fill="none" stroke="#002B49" stroke-width="1.25" x1="1495.4" y1="7.2" x2="1495.4" y2="32.2"/>
<line fill="none" stroke="#002B49" stroke-width="1.25" x1="1827.2" y1="7.2" x2="1827.2" y2="32.2"/>
<line fill="none" stroke="#002B49" stroke-width="1.25" x1="2159" y1="7.2" x2="2159" y2="32.2"/>
<line fill="none" stroke="#002B49" stroke-width="1.25" x1="1284.2" y1="7.2" x2="1284.2" y2="32.2"/>
<line fill="none" stroke="#002B49" stroke-width="1.25" x1="1616" y1="7.2" x2="1616" y2="32.2"/>
<line fill="none" stroke="#002B49" stroke-width="1.25" x1="1947.9" y1="7.2" x2="1947.9" y2="32.2"/>
<line fill="none" stroke="#002B49" stroke-width="1.25" x1="2279.7" y1="7.2" x2="2279.7" y2="32.2"/>
<line fill="none" stroke="#002B49" stroke-width="1.25" x1="1178.6" y1="7.2" x2="1178.6" y2="32.2"/>
<line fill="none" stroke="#002B49" stroke-width="1.25" x1="1435" y1="7.2" x2="1435" y2="32.2"/>
<line fill="none" stroke="#002B49" stroke-width="1.25" x1="1766.9" y1="7.2" x2="1766.9" y2="32.2"/>
<line fill="none" stroke="#002B49" stroke-width="1.25" x1="2098.7" y1="7.2" x2="2098.7" y2="32.2"/>
<line fill="none" stroke="#002B49" stroke-width="1.25" x1="1171.1" y1="7.2" x2="1171.1" y2="32.2"/>
<line fill="none" stroke="#002B49" stroke-width="1.25" x1="1555.7" y1="7.2" x2="1555.7" y2="32.2"/>
<line fill="none" stroke="#002B49" stroke-width="1.25" x1="1887.5" y1="7.2" x2="1887.5" y2="32.2"/>
<line fill="none" stroke="#002B49" stroke-width="1.25" x1="2219.3" y1="7.2" x2="2219.3" y2="32.2"/>
<line fill="none" stroke="#002B49" stroke-width="1.25" x1="1005.2" y1="7.2" x2="1005.2" y2="32.2"/>
<line fill="none" stroke="#002B49" stroke-width="1.25" x1="1337" y1="7.2" x2="1337" y2="32.2"/>
<line fill="none" stroke="#002B49" stroke-width="1.25" x1="1668.8" y1="7.2" x2="1668.8" y2="32.2"/>
<line fill="none" stroke="#002B49" stroke-width="1.25" x1="2000.6" y1="7.2" x2="2000.6" y2="32.2"/>
<line fill="none" stroke="#002B49" stroke-width="1.25" x1="1223.9" y1="7.2" x2="1223.9" y2="32.2"/>
<line fill="none" stroke="#002B49" stroke-width="1.25" x1="1457.7" y1="7.2" x2="1457.7" y2="32.2"/>
<line fill="none" stroke="#002B49" stroke-width="1.25" x1="1789.5" y1="7.2" x2="1789.5" y2="32.2"/>
<line fill="none" stroke="#002B49" stroke-width="1.25" x1="2121.3" y1="7.2" x2="2121.3" y2="32.2"/>
<line fill="none" stroke="#002B49" stroke-width="1.25" x1="1216.3" y1="7.2" x2="1216.3" y2="32.2"/>
<line fill="none" stroke="#002B49" stroke-width="1.25" x1="1578.3" y1="7.2" x2="1578.3" y2="32.2"/>
<line fill="none" stroke="#002B49" stroke-width="1.25" x1="1910.1" y1="7.2" x2="1910.1" y2="32.2"/>
<line fill="none" stroke="#002B49" stroke-width="1.25" x1="2242" y1="7.2" x2="2242" y2="32.2"/>
<line fill="none" stroke="#002B49" stroke-width="1.25" x1="1103.2" y1="7.2" x2="1103.2" y2="32.2"/>
<line fill="none" stroke="#002B49" stroke-width="1.25" x1="1397.3" y1="7.2" x2="1397.3" y2="32.2"/>
<line fill="none" stroke="#002B49" stroke-width="1.25" x1="1729.1" y1="7.2" x2="1729.1" y2="32.2"/>
<line fill="none" stroke="#002B49" stroke-width="1.25" x1="2061" y1="7.2" x2="2061" y2="32.2"/>
<line fill="none" stroke="#002B49" stroke-width="1.25" x1="1095.7" y1="7.2" x2="1095.7" y2="32.2"/>
<line fill="none" stroke="#002B49" stroke-width="1.25" x1="1518" y1="7.2" x2="1518" y2="32.2"/>
<line fill="none" stroke="#002B49" stroke-width="1.25" x1="1849.8" y1="7.2" x2="1849.8" y2="32.2"/>
<line fill="none" stroke="#002B49" stroke-width="1.25" x1="2181.6" y1="7.2" x2="2181.6" y2="32.2"/>
<line fill="none" stroke="#002B49" stroke-width="1.25" x1="1306.8" y1="7.2" x2="1306.8" y2="32.2"/>
<line fill="none" stroke="#002B49" stroke-width="1.25" x1="1638.7" y1="7.2" x2="1638.7" y2="32.2"/>
<line fill="none" stroke="#002B49" stroke-width="1.25" x1="1970.5" y1="7.2" x2="1970.5" y2="32.2"/>
<line fill="none" stroke="#002B49" stroke-width="1.25" x1="2302.3" y1="7.2" x2="2302.3" y2="32.2"/>
<line fill="none" stroke="#002B49" stroke-width="1.25" x1="1042.9" y1="7.2" x2="1042.9" y2="32.2"/>
<line fill="none" stroke="#002B49" stroke-width="1.25" x1="1367.2" y1="7.2" x2="1367.2" y2="32.2"/>
<line fill="none" stroke="#002B49" stroke-width="1.25" x1="1699" y1="7.2" x2="1699" y2="32.2"/>
<line fill="none" stroke="#002B49" stroke-width="1.25" x1="2030.8" y1="7.2" x2="2030.8" y2="32.2"/>
<line fill="none" stroke="#002B49" stroke-width="1.25" x1="1035.3" y1="7.2" x2="1035.3" y2="32.2"/>
<line fill="none" stroke="#002B49" stroke-width="1.25" x1="1487.8" y1="7.2" x2="1487.8" y2="32.2"/>
<line fill="none" stroke="#002B49" stroke-width="1.25" x1="1819.6" y1="7.2" x2="1819.6" y2="32.2"/>
<line fill="none" stroke="#002B49" stroke-width="1.25" x1="2151.5" y1="7.2" x2="2151.5" y2="32.2"/>
<line fill="none" stroke="#002B49" stroke-width="1.25" x1="1276.7" y1="7.2" x2="1276.7" y2="32.2"/>
<line fill="none" stroke="#002B49" stroke-width="1.25" x1="1608.5" y1="7.2" x2="1608.5" y2="32.2"/>
<line fill="none" stroke="#002B49" stroke-width="1.25" x1="1940.3" y1="7.2" x2="1940.3" y2="32.2"/>
<line fill="none" stroke="#002B49" stroke-width="1.25" x1="2272.1" y1="7.2" x2="2272.1" y2="32.2"/>
<line fill="none" stroke="#002B49" stroke-width="1.25" x1="1163.5" y1="7.2" x2="1163.5" y2="32.2"/>
<line fill="none" stroke="#002B49" stroke-width="1.25" x1="1427.5" y1="7.2" x2="1427.5" y2="32.2"/>
<line fill="none" stroke="#002B49" stroke-width="1.25" x1="1759.3" y1="7.2" x2="1759.3" y2="32.2"/>
<line fill="none" stroke="#002B49" stroke-width="1.25" x1="2091.1" y1="7.2" x2="2091.1" y2="32.2"/>
<line fill="none" stroke="#002B49" stroke-width="1.25" x1="1156" y1="7.2" x2="1156" y2="32.2"/>
<line fill="none" stroke="#002B49" stroke-width="1.25" x1="1548.2" y1="7.2" x2="1548.2" y2="32.2"/>
<line fill="none" stroke="#002B49" stroke-width="1.25" x1="1880" y1="7.2" x2="1880" y2="32.2"/>
<line fill="none" stroke="#002B49" stroke-width="1.25" x1="2211.8" y1="7.2" x2="2211.8" y2="32.2"/>
<line fill="none" stroke="#002B49" stroke-width="1.25" x1="1020.3" y1="7.2" x2="1020.3" y2="32.2"/>
<line fill="none" stroke="#002B49" stroke-width="1.25" x1="1352.1" y1="7.2" x2="1352.1" y2="32.2"/>
<line fill="none" stroke="#002B49" stroke-width="1.25" x1="1683.9" y1="7.2" x2="1683.9" y2="32.2"/>
<line fill="none" stroke="#002B49" stroke-width="1.25" x1="2015.7" y1="7.2" x2="2015.7" y2="32.2"/>
<line fill="none" stroke="#002B49" stroke-width="1.25" x1="1254" y1="7.2" x2="1254" y2="32.2"/>
<line fill="none" stroke="#002B49" stroke-width="1.25" x1="1472.7" y1="7.2" x2="1472.7" y2="32.2"/>
<line fill="none" stroke="#002B49" stroke-width="1.25" x1="1804.6" y1="7.2" x2="1804.6" y2="32.2"/>
<line fill="none" stroke="#002B49" stroke-width="1.25" x1="2136.4" y1="7.2" x2="2136.4" y2="32.2"/>
<line fill="none" stroke="#002B49" stroke-width="1.25" x1="1246.5" y1="7.2" x2="1246.5" y2="32.2"/>
<line fill="none" stroke="#002B49" stroke-width="1.25" x1="1593.4" y1="7.2" x2="1593.4" y2="32.2"/>
<line fill="none" stroke="#002B49" stroke-width="1.25" x1="1925.2" y1="7.2" x2="1925.2" y2="32.2"/>
<line fill="none" stroke="#002B49" stroke-width="1.25" x1="2257" y1="7.2" x2="2257" y2="32.2"/>
<line fill="none" stroke="#002B49" stroke-width="1.25" x1="1133.4" y1="7.2" x2="1133.4" y2="32.2"/>
<line fill="none" stroke="#002B49" stroke-width="1.25" x1="1412.4" y1="7.2" x2="1412.4" y2="32.2"/>
<line fill="none" stroke="#002B49" stroke-width="1.25" x1="1744.2" y1="7.2" x2="1744.2" y2="32.2"/>
<line fill="none" stroke="#002B49" stroke-width="1.25" x1="2076.1" y1="7.2" x2="2076.1" y2="32.2"/>
<line fill="none" stroke="#002B49" stroke-width="1.25" x1="1125.8" y1="7.2" x2="1125.8" y2="32.2"/>
<line fill="none" stroke="#002B49" stroke-width="1.25" x1="1533.1" y1="7.2" x2="1533.1" y2="32.2"/>
<line fill="none" stroke="#002B49" stroke-width="1.25" x1="1864.9" y1="7.2" x2="1864.9" y2="32.2"/>
<line fill="none" stroke="#002B49" stroke-width="1.25" x1="2196.7" y1="7.2" x2="2196.7" y2="32.2"/>
<line fill="none" stroke="#002B49" stroke-width="1.25" x1="1073" y1="7.2" x2="1073" y2="32.2"/>
<line fill="none" stroke="#002B49" stroke-width="1.25" x1="1382.2" y1="7.2" x2="1382.2" y2="32.2"/>
<line fill="none" stroke="#002B49" stroke-width="1.25" x1="1714.1" y1="7.2" x2="1714.1" y2="32.2"/>
<line fill="none" stroke="#002B49" stroke-width="1.25" x1="2045.9" y1="7.2" x2="2045.9" y2="32.2"/>
<line fill="none" stroke="#002B49" stroke-width="1.25" x1="1065.5" y1="7.2" x2="1065.5" y2="32.2"/>
<line fill="none" stroke="#002B49" stroke-width="1.25" x1="1502.9" y1="7.2" x2="1502.9" y2="32.2"/>
<line fill="none" stroke="#002B49" stroke-width="1.25" x1="1834.7" y1="7.2" x2="1834.7" y2="32.2"/>
<line fill="none" stroke="#002B49" stroke-width="1.25" x1="2166.6" y1="7.2" x2="2166.6" y2="32.2"/>
<line fill="none" stroke="#002B49" stroke-width="1.25" x1="1291.7" y1="7.2" x2="1291.7" y2="32.2"/>
<line fill="none" stroke="#002B49" stroke-width="1.25" x1="1623.6" y1="7.2" x2="1623.6" y2="32.2"/>
<line fill="none" stroke="#002B49" stroke-width="1.25" x1="1955.4" y1="7.2" x2="1955.4" y2="32.2"/>
<line fill="none" stroke="#002B49" stroke-width="1.25" x1="2287.2" y1="7.2" x2="2287.2" y2="32.2"/>
<line fill="none" stroke="#002B49" stroke-width="1.25" x1="1193.7" y1="7.2" x2="1193.7" y2="32.2"/>
<line fill="none" stroke="#002B49" stroke-width="1.25" x1="1442.6" y1="7.2" x2="1442.6" y2="32.2"/>
<line fill="none" stroke="#002B49" stroke-width="1.25" x1="1774.4" y1="7.2" x2="1774.4" y2="32.2"/>
<line fill="none" stroke="#002B49" stroke-width="1.25" x1="2106.2" y1="7.2" x2="2106.2" y2="32.2"/>
<line fill="none" stroke="#002B49" stroke-width="1.25" x1="1186.2" y1="7.2" x2="1186.2" y2="32.2"/>
<line fill="none" stroke="#002B49" stroke-width="1.25" x1="1563.2" y1="7.2" x2="1563.2" y2="32.2"/>
<line fill="none" stroke="#002B49" stroke-width="1.25" x1="1895.1" y1="7.2" x2="1895.1" y2="32.2"/>
<line fill="none" stroke="#002B49" stroke-width="1.25" x1="2226.9" y1="7.2" x2="2226.9" y2="32.2"/>
<g>
	<path fill="#FFB81C" d="M2634.5,48.7v-1c1-0.1,1.6-0.2,2-0.5c0.4-0.2,0.7-0.7,0.8-1.5h1v10.4h-1.4v-7.4H2634.5z"/>
	<path fill="#FFB81C" d="M2643.5,53.6c0,0.7,0.3,1.2,0.8,1.5c0.3,0.1,0.6,0.2,0.9,0.2c0.6,0,1.2-0.3,1.6-0.8
		c0.4-0.5,0.8-1.6,0.9-3.2c-0.3,0.5-0.7,0.8-1.1,1c-0.4,0.2-0.9,0.3-1.4,0.3c-1,0-1.8-0.3-2.4-0.9c-0.6-0.6-0.9-1.4-0.9-2.4
		c0-1,0.3-1.8,0.9-2.5s1.4-1.1,2.6-1.1c1.5,0,2.6,0.7,3.2,2.1c0.3,0.8,0.5,1.7,0.5,2.8c0,1.3-0.2,2.4-0.6,3.4
		c-0.6,1.6-1.7,2.5-3.3,2.5c-1,0-1.8-0.3-2.3-0.8c-0.5-0.5-0.8-1.2-0.8-2H2643.5z M2647,50.9c0.4-0.3,0.6-0.9,0.6-1.8
		c0-0.8-0.2-1.3-0.6-1.7c-0.4-0.4-0.9-0.6-1.5-0.6c-0.6,0-1.2,0.2-1.5,0.6c-0.4,0.4-0.6,1-0.6,1.7c0,0.7,0.2,1.2,0.5,1.6
		s0.9,0.6,1.6,0.6C2646.1,51.4,2646.5,51.2,2647,50.9z"/>
	<path fill="#FFB81C" d="M2656.9,46.5c0.5,0.6,0.7,1.2,0.7,1.9h-1.3c-0.1-0.4-0.2-0.7-0.4-1c-0.3-0.4-0.8-0.7-1.4-0.7
		c-0.7,0-1.3,0.3-1.8,1c-0.4,0.7-0.7,1.7-0.7,2.9c0.3-0.4,0.7-0.8,1.1-1c0.4-0.2,0.9-0.3,1.4-0.3c0.9,0,1.6,0.3,2.3,0.8
		c0.7,0.6,1,1.4,1,2.5c0,1-0.3,1.8-0.9,2.5c-0.6,0.7-1.5,1.1-2.7,1.1c-1,0-1.8-0.4-2.5-1.1c-0.7-0.7-1.1-2-1.1-3.8
		c0-1.3,0.2-2.4,0.5-3.3c0.6-1.7,1.7-2.6,3.3-2.6C2655.6,45.6,2656.4,45.9,2656.9,46.5z M2655.9,54.5c0.3-0.5,0.5-1,0.5-1.7
		c0-0.5-0.2-1-0.5-1.5c-0.3-0.5-0.9-0.7-1.7-0.7c-0.6,0-1.1,0.2-1.5,0.6c-0.4,0.4-0.6,0.9-0.6,1.7c0,0.7,0.2,1.2,0.6,1.7
		c0.4,0.5,0.9,0.7,1.6,0.7C2655,55.2,2655.5,55,2655.9,54.5z"/>
	<path fill="#FFB81C" d="M2666.4,47.3c0.5,0.9,0.7,2,0.7,3.6c0,1.4-0.2,2.6-0.6,3.5c-0.6,1.3-1.6,2-3,2c-1.3,0-2.2-0.5-2.8-1.6
		c-0.5-0.9-0.8-2.1-0.8-3.7c0-1.2,0.2-2.2,0.5-3.1c0.6-1.6,1.6-2.4,3.1-2.4C2664.8,45.6,2665.8,46.2,2666.4,47.3z M2665.1,54.3
		c0.4-0.6,0.6-1.7,0.6-3.4c0-1.2-0.1-2.2-0.4-2.9c-0.3-0.8-0.9-1.2-1.7-1.2c-0.8,0-1.3,0.4-1.7,1.1c-0.4,0.7-0.5,1.8-0.5,3.2
		c0,1.1,0.1,1.9,0.3,2.6c0.4,1,1,1.5,1.8,1.5C2664.1,55.2,2664.7,54.9,2665.1,54.3z"/>
</g>
<g>
	<path fill="#FFB81C" d="M2303.1,48.7v-1c1-0.1,1.6-0.2,2-0.5c0.4-0.2,0.7-0.7,0.8-1.5h1v10.4h-1.4v-7.4H2303.1z"/>
	<path fill="#FFB81C" d="M2312.2,53.6c0,0.7,0.3,1.2,0.8,1.5c0.3,0.1,0.6,0.2,0.9,0.2c0.6,0,1.2-0.3,1.6-0.8
		c0.4-0.5,0.8-1.6,0.9-3.2c-0.3,0.5-0.7,0.8-1.1,1c-0.4,0.2-0.9,0.3-1.4,0.3c-1,0-1.8-0.3-2.4-0.9c-0.6-0.6-0.9-1.4-0.9-2.4
		c0-1,0.3-1.8,0.9-2.5s1.4-1.1,2.6-1.1c1.5,0,2.6,0.7,3.2,2.1c0.3,0.8,0.5,1.7,0.5,2.8c0,1.3-0.2,2.4-0.6,3.4
		c-0.6,1.6-1.7,2.5-3.3,2.5c-1,0-1.8-0.3-2.3-0.8c-0.5-0.5-0.8-1.2-0.8-2H2312.2z M2315.6,50.9c0.4-0.3,0.6-0.9,0.6-1.8
		c0-0.8-0.2-1.3-0.6-1.7c-0.4-0.4-0.9-0.6-1.5-0.6c-0.6,0-1.2,0.2-1.5,0.6c-0.4,0.4-0.6,1-0.6,1.7c0,0.7,0.2,1.2,0.5,1.6
		s0.9,0.6,1.6,0.6C2314.7,51.4,2315.2,51.2,2315.6,50.9z"/>
	<path fill="#FFB81C" d="M2320.5,53.4c0.1,0.8,0.4,1.3,1,1.6c0.3,0.1,0.7,0.2,1.1,0.2c0.8,0,1.4-0.2,1.7-0.7c0.4-0.5,0.6-1,0.6-1.7
		c0-0.7-0.2-1.3-0.7-1.7c-0.4-0.4-1-0.6-1.6-0.6c-0.5,0-0.8,0.1-1.2,0.3c-0.3,0.2-0.6,0.4-0.8,0.7l-1.1-0.1l0.8-5.6h5.4v1.3h-4.5
		l-0.4,2.9c0.2-0.2,0.5-0.3,0.7-0.4c0.4-0.2,0.8-0.2,1.4-0.2c1,0,1.8,0.3,2.4,0.9s1,1.4,1,2.4c0,1-0.3,1.9-0.9,2.6
		c-0.6,0.8-1.6,1.1-2.9,1.1c-0.9,0-1.6-0.2-2.3-0.7c-0.7-0.5-1-1.2-1.1-2.2H2320.5z"/>
	<path fill="#FFB81C" d="M2335,47.3c0.5,0.9,0.7,2,0.7,3.6c0,1.4-0.2,2.6-0.6,3.5c-0.6,1.3-1.6,2-3,2c-1.3,0-2.2-0.5-2.8-1.6
		c-0.5-0.9-0.8-2.1-0.8-3.7c0-1.2,0.2-2.2,0.5-3.1c0.6-1.6,1.6-2.4,3.1-2.4C2333.4,45.6,2334.4,46.2,2335,47.3z M2333.7,54.3
		c0.4-0.6,0.6-1.7,0.6-3.4c0-1.2-0.1-2.2-0.4-2.9c-0.3-0.8-0.9-1.2-1.7-1.2c-0.8,0-1.3,0.4-1.7,1.1c-0.4,0.7-0.5,1.8-0.5,3.2
		c0,1.1,0.1,1.9,0.3,2.6c0.4,1,1,1.5,1.8,1.5C2332.7,55.2,2333.3,54.9,2333.7,54.3z"/>
</g>
<g>
	<path fill="#FFB81C" d="M1969.9,48.7v-1c1-0.1,1.6-0.2,2-0.5c0.4-0.2,0.7-0.7,0.8-1.5h1v10.4h-1.4v-7.4H1969.9z"/>
	<path fill="#FFB81C" d="M1979,53.6c0,0.7,0.3,1.2,0.8,1.5c0.3,0.1,0.6,0.2,0.9,0.2c0.6,0,1.2-0.3,1.6-0.8c0.4-0.5,0.8-1.6,0.9-3.2
		c-0.3,0.5-0.7,0.8-1.1,1c-0.4,0.2-0.9,0.3-1.4,0.3c-1,0-1.8-0.3-2.4-0.9c-0.6-0.6-0.9-1.4-0.9-2.4c0-1,0.3-1.8,0.9-2.5
		c0.6-0.7,1.4-1.1,2.6-1.1c1.5,0,2.6,0.7,3.2,2.1c0.3,0.8,0.5,1.7,0.5,2.8c0,1.3-0.2,2.4-0.6,3.4c-0.6,1.6-1.7,2.5-3.3,2.5
		c-1,0-1.8-0.3-2.3-0.8c-0.5-0.5-0.8-1.2-0.8-2H1979z M1982.4,50.9c0.4-0.3,0.6-0.9,0.6-1.8c0-0.8-0.2-1.3-0.6-1.7
		c-0.4-0.4-0.9-0.6-1.5-0.6c-0.6,0-1.2,0.2-1.5,0.6c-0.4,0.4-0.6,1-0.6,1.7c0,0.7,0.2,1.2,0.5,1.6s0.9,0.6,1.6,0.6
		C1981.5,51.4,1982,51.2,1982.4,50.9z"/>
	<path fill="#FFB81C" d="M1990.4,56.1v-2.6h-4.6v-1.3l4.8-6.7h1.1v6.8h1.5v1.1h-1.5v2.6H1990.4z M1990.4,52.4v-4.8l-3.4,4.8H1990.4z
		"/>
	<path fill="#FFB81C" d="M2001.8,47.3c0.5,0.9,0.7,2,0.7,3.6c0,1.4-0.2,2.6-0.6,3.5c-0.6,1.3-1.6,2-3,2c-1.3,0-2.2-0.5-2.8-1.6
		c-0.5-0.9-0.8-2.1-0.8-3.7c0-1.2,0.2-2.2,0.5-3.1c0.6-1.6,1.6-2.4,3.1-2.4C2000.2,45.6,2001.2,46.2,2001.8,47.3z M2000.5,54.3
		c0.4-0.6,0.6-1.7,0.6-3.4c0-1.2-0.1-2.2-0.4-2.9c-0.3-0.8-0.9-1.2-1.7-1.2c-0.8,0-1.3,0.4-1.7,1.1c-0.4,0.7-0.5,1.8-0.5,3.2
		c0,1.1,0.1,1.9,0.3,2.6c0.4,1,1,1.5,1.8,1.5C1999.5,55.2,2000.1,54.9,2000.5,54.3z"/>
</g>
<g>
	<path fill="#FFB81C" d="M1637.1,48.7v-1c1-0.1,1.6-0.2,2-0.5c0.4-0.2,0.7-0.7,0.8-1.5h1v10.4h-1.4v-7.4H1637.1z"/>
	<path fill="#FFB81C" d="M1646.1,53.6c0,0.7,0.3,1.2,0.8,1.5c0.3,0.1,0.6,0.2,0.9,0.2c0.6,0,1.2-0.3,1.6-0.8
		c0.4-0.5,0.8-1.6,0.9-3.2c-0.3,0.5-0.7,0.8-1.1,1c-0.4,0.2-0.9,0.3-1.4,0.3c-1,0-1.8-0.3-2.4-0.9c-0.6-0.6-0.9-1.4-0.9-2.4
		c0-1,0.3-1.8,0.9-2.5c0.6-0.7,1.4-1.1,2.6-1.1c1.5,0,2.6,0.7,3.2,2.1c0.3,0.8,0.5,1.7,0.5,2.8c0,1.3-0.2,2.4-0.6,3.4
		c-0.6,1.6-1.7,2.5-3.3,2.5c-1,0-1.8-0.3-2.3-0.8c-0.5-0.5-0.8-1.2-0.8-2H1646.1z M1649.6,50.9c0.4-0.3,0.6-0.9,0.6-1.8
		c0-0.8-0.2-1.3-0.6-1.7c-0.4-0.4-0.9-0.6-1.5-0.6c-0.6,0-1.2,0.2-1.5,0.6c-0.4,0.4-0.6,1-0.6,1.7c0,0.7,0.2,1.2,0.5,1.6
		s0.9,0.6,1.6,0.6C1648.7,51.4,1649.1,51.2,1649.6,50.9z"/>
	<path fill="#FFB81C" d="M1653.8,55.4c-0.6-0.7-0.8-1.5-0.8-2.5h1.4c0.1,0.7,0.2,1.2,0.4,1.5c0.3,0.6,1,0.8,1.9,0.8
		c0.7,0,1.2-0.2,1.7-0.6c0.4-0.4,0.6-0.8,0.6-1.4c0-0.7-0.2-1.2-0.7-1.5c-0.4-0.3-1.1-0.4-1.8-0.4c-0.1,0-0.2,0-0.3,0
		c-0.1,0-0.2,0-0.3,0v-1.2c0.1,0,0.3,0,0.3,0s0.2,0,0.3,0c0.5,0,0.9-0.1,1.2-0.2c0.6-0.3,0.8-0.8,0.8-1.5c0-0.5-0.2-0.9-0.6-1.2
		s-0.8-0.4-1.3-0.4c-0.9,0-1.5,0.3-1.8,0.9c-0.2,0.3-0.3,0.8-0.3,1.4h-1.3c0-0.8,0.2-1.4,0.5-2c0.5-1,1.5-1.5,2.8-1.5
		c1.1,0,1.9,0.2,2.5,0.7c0.6,0.5,0.9,1.2,0.9,2.1c0,0.6-0.2,1.2-0.5,1.6c-0.2,0.2-0.5,0.4-0.8,0.6c0.6,0.2,1,0.4,1.3,0.9
		c0.3,0.4,0.5,1,0.5,1.6c0,1-0.3,1.8-1,2.4c-0.7,0.6-1.6,0.9-2.8,0.9C1655.3,56.4,1654.4,56.1,1653.8,55.4z"/>
	<path fill="#FFB81C" d="M1669,47.3c0.5,0.9,0.7,2,0.7,3.6c0,1.4-0.2,2.6-0.6,3.5c-0.6,1.3-1.6,2-3,2c-1.3,0-2.2-0.5-2.8-1.6
		c-0.5-0.9-0.8-2.1-0.8-3.7c0-1.2,0.2-2.2,0.5-3.1c0.6-1.6,1.6-2.4,3.1-2.4C1667.4,45.6,1668.4,46.2,1669,47.3z M1667.7,54.3
		c0.4-0.6,0.6-1.7,0.6-3.4c0-1.2-0.1-2.2-0.4-2.9c-0.3-0.8-0.9-1.2-1.7-1.2c-0.8,0-1.3,0.4-1.7,1.1c-0.4,0.7-0.5,1.8-0.5,3.2
		c0,1.1,0.1,1.9,0.3,2.6c0.4,1,1,1.5,1.8,1.5C1666.7,55.2,1667.3,54.9,1667.7,54.3z"/>
</g>
<g>
	<path fill="#FFB81C" d="M1306.3,48.7v-1c1-0.1,1.6-0.2,2-0.5c0.4-0.2,0.7-0.7,0.8-1.5h1v10.4h-1.4v-7.4H1306.3z"/>
	<path fill="#FFB81C" d="M1315.3,53.6c0,0.7,0.3,1.2,0.8,1.5c0.3,0.1,0.6,0.2,0.9,0.2c0.6,0,1.2-0.3,1.6-0.8
		c0.4-0.5,0.8-1.6,0.9-3.2c-0.3,0.5-0.7,0.8-1.1,1c-0.4,0.2-0.9,0.3-1.4,0.3c-1,0-1.8-0.3-2.4-0.9c-0.6-0.6-0.9-1.4-0.9-2.4
		c0-1,0.3-1.8,0.9-2.5c0.6-0.7,1.4-1.1,2.6-1.1c1.5,0,2.6,0.7,3.2,2.1c0.3,0.8,0.5,1.7,0.5,2.8c0,1.3-0.2,2.4-0.6,3.4
		c-0.6,1.6-1.7,2.5-3.3,2.5c-1,0-1.8-0.3-2.3-0.8c-0.5-0.5-0.8-1.2-0.8-2H1315.3z M1318.7,50.9c0.4-0.3,0.6-0.9,0.6-1.8
		c0-0.8-0.2-1.3-0.6-1.7c-0.4-0.4-0.9-0.6-1.5-0.6c-0.6,0-1.2,0.2-1.5,0.6c-0.4,0.4-0.6,1-0.6,1.7c0,0.7,0.2,1.2,0.5,1.6
		s0.9,0.6,1.6,0.6C1317.8,51.4,1318.3,51.2,1318.7,50.9z"/>
	<path fill="#FFB81C" d="M1322.8,53.8c0.3-0.7,1-1.3,1.9-1.8l1.4-0.8c0.6-0.4,1.1-0.7,1.3-0.9c0.4-0.4,0.6-0.9,0.6-1.4
		c0-0.6-0.2-1.1-0.5-1.5c-0.4-0.4-0.9-0.5-1.5-0.5c-0.9,0-1.5,0.3-1.9,1c-0.2,0.4-0.3,0.9-0.3,1.5h-1.3c0-0.9,0.2-1.7,0.5-2.2
		c0.6-1,1.6-1.5,3-1.5c1.2,0,2.1,0.3,2.6,1c0.6,0.6,0.8,1.4,0.8,2.2c0,0.8-0.3,1.6-0.9,2.2c-0.3,0.3-1,0.8-1.8,1.3l-1,0.6
		c-0.5,0.3-0.9,0.5-1.1,0.8c-0.5,0.4-0.8,0.9-0.9,1.4h5.7v1.2h-7.2C1322.3,55.2,1322.5,54.4,1322.8,53.8z"/>
	<path fill="#FFB81C" d="M1338.2,47.3c0.5,0.9,0.7,2,0.7,3.6c0,1.4-0.2,2.6-0.6,3.5c-0.6,1.3-1.6,2-3,2c-1.3,0-2.2-0.5-2.8-1.6
		c-0.5-0.9-0.8-2.1-0.8-3.7c0-1.2,0.2-2.2,0.5-3.1c0.6-1.6,1.6-2.4,3.1-2.4C1336.6,45.6,1337.6,46.2,1338.2,47.3z M1336.8,54.3
		c0.4-0.6,0.6-1.7,0.6-3.4c0-1.2-0.1-2.2-0.4-2.9c-0.3-0.8-0.9-1.2-1.7-1.2c-0.8,0-1.3,0.4-1.7,1.1c-0.4,0.7-0.5,1.8-0.5,3.2
		c0,1.1,0.1,1.9,0.3,2.6c0.4,1,1,1.5,1.8,1.5C1335.9,55.2,1336.4,54.9,1336.8,54.3z"/>
</g>
<g>
	<path fill="#FFB81C" d="M973.3,48.7v-1c1-0.1,1.6-0.2,2-0.5c0.4-0.2,0.7-0.7,0.8-1.5h1v10.4h-1.4v-7.4H973.3z"/>
	<path fill="#FFB81C" d="M982.3,53.6c0,0.7,0.3,1.2,0.8,1.5c0.3,0.1,0.6,0.2,0.9,0.2c0.6,0,1.2-0.3,1.6-0.8c0.4-0.5,0.8-1.6,0.9-3.2
		c-0.3,0.5-0.7,0.8-1.1,1c-0.4,0.2-0.9,0.3-1.4,0.3c-1,0-1.8-0.3-2.4-0.9c-0.6-0.6-0.9-1.4-0.9-2.4c0-1,0.3-1.8,0.9-2.5
		s1.4-1.1,2.6-1.1c1.5,0,2.6,0.7,3.2,2.1c0.3,0.8,0.5,1.7,0.5,2.8c0,1.3-0.2,2.4-0.6,3.4c-0.6,1.6-1.7,2.5-3.3,2.5
		c-1,0-1.8-0.3-2.3-0.8c-0.5-0.5-0.8-1.2-0.8-2H982.3z M985.8,50.9c0.4-0.3,0.6-0.9,0.6-1.8c0-0.8-0.2-1.3-0.6-1.7
		c-0.4-0.4-0.9-0.6-1.5-0.6c-0.6,0-1.2,0.2-1.5,0.6c-0.4,0.4-0.6,1-0.6,1.7c0,0.7,0.2,1.2,0.5,1.6s0.9,0.6,1.6,0.6
		C984.9,51.4,985.3,51.2,985.8,50.9z"/>
	<path fill="#FFB81C" d="M990.3,48.7v-1c1-0.1,1.6-0.2,2-0.5c0.4-0.2,0.7-0.7,0.8-1.5h1v10.4h-1.4v-7.4H990.3z"/>
	<path fill="#FFB81C" d="M1005.2,47.3c0.5,0.9,0.7,2,0.7,3.6c0,1.4-0.2,2.6-0.6,3.5c-0.6,1.3-1.6,2-3,2c-1.3,0-2.2-0.5-2.8-1.6
		c-0.5-0.9-0.8-2.1-0.8-3.7c0-1.2,0.2-2.2,0.5-3.1c0.6-1.6,1.6-2.4,3.1-2.4C1003.6,45.6,1004.6,46.2,1005.2,47.3z M1003.9,54.3
		c0.4-0.6,0.6-1.7,0.6-3.4c0-1.2-0.1-2.2-0.4-2.9c-0.3-0.8-0.9-1.2-1.7-1.2c-0.8,0-1.3,0.4-1.7,1.1c-0.4,0.7-0.5,1.8-0.5,3.2
		c0,1.1,0.1,1.9,0.3,2.6c0.4,1,1,1.5,1.8,1.5C1002.9,55.2,1003.5,54.9,1003.9,54.3z"/>
</g>
<line fill="none" stroke="#002B49" stroke-width="1.25" x1="333.6" y1="7.8" x2="333.6" y2="32.8"/>
<line fill="none" stroke="#002B49" stroke-width="1.25" x1="665.4" y1="7.8" x2="665.4" y2="32.8"/>
<line fill="none" stroke="#002B49" stroke-width="1.25" x1="544.8" y1="7.8" x2="544.8" y2="32.8"/>
<line fill="none" stroke="#002B49" stroke-width="1.25" x1="786.1" y1="7.8" x2="786.1" y2="32.8"/>
<line fill="none" stroke="#002B49" stroke-width="1.25" x1="537.2" y1="7.8" x2="537.2" y2="32.8"/>
<line fill="none" stroke="#002B49" stroke-width="1.25" x1="906.8" y1="7.8" x2="906.8" y2="32.8"/>
<line fill="none" stroke="#002B49" stroke-width="1.25" x1="424.1" y1="7.8" x2="424.1" y2="32.8"/>
<line fill="none" stroke="#002B49" stroke-width="1.25" x1="725.8" y1="7.8" x2="725.8" y2="32.8"/>
<line fill="none" stroke="#002B49" stroke-width="1.25" x1="416.6" y1="7.8" x2="416.6" y2="32.8"/>
<line fill="none" stroke="#002B49" stroke-width="1.25" x1="846.4" y1="7.8" x2="846.4" y2="32.8"/>
<line fill="none" stroke="#002B49" stroke-width="1.25" x1="635.3" y1="7.8" x2="635.3" y2="32.8"/>
<line fill="none" stroke="#002B49" stroke-width="1.25" x1="967.1" y1="7.8" x2="967.1" y2="32.8"/>
<line fill="none" stroke="#002B49" stroke-width="1.25" x1="363.8" y1="7.8" x2="363.8" y2="32.8"/>
<line fill="none" stroke="#002B49" stroke-width="1.25" x1="695.6" y1="7.8" x2="695.6" y2="32.8"/>
<line fill="none" stroke="#002B49" stroke-width="1.25" x1="605.1" y1="7.8" x2="605.1" y2="32.8"/>
<line fill="none" stroke="#002B49" stroke-width="1.25" x1="816.3" y1="7.8" x2="816.3" y2="32.8"/>
<line fill="none" stroke="#002B49" stroke-width="1.25" x1="597.6" y1="7.8" x2="597.6" y2="32.8"/>
<line fill="none" stroke="#002B49" stroke-width="1.25" x1="936.9" y1="7.8" x2="936.9" y2="32.8"/>
<line fill="none" stroke="#002B49" stroke-width="1.25" x1="484.4" y1="7.8" x2="484.4" y2="32.8"/>
<line fill="none" stroke="#002B49" stroke-width="1.25" x1="755.9" y1="7.8" x2="755.9" y2="32.8"/>
<line fill="none" stroke="#002B49" stroke-width="1.25" x1="476.9" y1="7.8" x2="476.9" y2="32.8"/>
<line fill="none" stroke="#002B49" stroke-width="1.25" x1="876.6" y1="7.8" x2="876.6" y2="32.8"/>
<line fill="none" stroke="#002B49" stroke-width="1.25" x1="348.7" y1="7.8" x2="348.7" y2="32.8"/>
<line fill="none" stroke="#002B49" stroke-width="1.25" x1="680.5" y1="7.8" x2="680.5" y2="32.8"/>
<line fill="none" stroke="#002B49" stroke-width="1.25" x1="574.9" y1="7.8" x2="574.9" y2="32.8"/>
<line fill="none" stroke="#002B49" stroke-width="1.25" x1="801.2" y1="7.8" x2="801.2" y2="32.8"/>
<line fill="none" stroke="#002B49" stroke-width="1.25" x1="567.4" y1="7.8" x2="567.4" y2="32.8"/>
<line fill="none" stroke="#002B49" stroke-width="1.25" x1="921.8" y1="7.8" x2="921.8" y2="32.8"/>
<line fill="none" stroke="#002B49" stroke-width="1.25" x1="454.3" y1="7.8" x2="454.3" y2="32.8"/>
<line fill="none" stroke="#002B49" stroke-width="1.25" x1="740.9" y1="7.8" x2="740.9" y2="32.8"/>
<line fill="none" stroke="#002B49" stroke-width="1.25" x1="446.7" y1="7.8" x2="446.7" y2="32.8"/>
<line fill="none" stroke="#002B49" stroke-width="1.25" x1="861.5" y1="7.8" x2="861.5" y2="32.8"/>
<line fill="none" stroke="#002B49" stroke-width="1.25" x1="650.4" y1="7.8" x2="650.4" y2="32.8"/>
<line fill="none" stroke="#002B49" stroke-width="1.25" x1="982.2" y1="7.8" x2="982.2" y2="32.8"/>
<line fill="none" stroke="#002B49" stroke-width="1.25" x1="393.9" y1="7.8" x2="393.9" y2="32.8"/>
<line fill="none" stroke="#002B49" stroke-width="1.25" x1="710.7" y1="7.8" x2="710.7" y2="32.8"/>
<line fill="none" stroke="#002B49" stroke-width="1.25" x1="386.4" y1="7.8" x2="386.4" y2="32.8"/>
<line fill="none" stroke="#002B49" stroke-width="1.25" x1="831.4" y1="7.8" x2="831.4" y2="32.8"/>
<line fill="none" stroke="#002B49" stroke-width="1.25" x1="620.2" y1="7.8" x2="620.2" y2="32.8"/>
<line fill="none" stroke="#002B49" stroke-width="1.25" x1="952" y1="7.8" x2="952" y2="32.8"/>
<line fill="none" stroke="#002B49" stroke-width="1.25" x1="514.6" y1="7.8" x2="514.6" y2="32.8"/>
<line fill="none" stroke="#002B49" stroke-width="1.25" x1="771" y1="7.8" x2="771" y2="32.8"/>
<line fill="none" stroke="#002B49" stroke-width="1.25" x1="507.1" y1="7.8" x2="507.1" y2="32.8"/>
<line fill="none" stroke="#002B49" stroke-width="1.25" x1="891.7" y1="7.8" x2="891.7" y2="32.8"/>
<line fill="none" stroke="#002B49" stroke-width="1.25" x1="341.2" y1="7.8" x2="341.2" y2="32.8"/>
<line fill="none" stroke="#002B49" stroke-width="1.25" x1="673" y1="7.8" x2="673" y2="32.8"/>
<line fill="none" stroke="#002B49" stroke-width="1.25" x1="559.9" y1="7.8" x2="559.9" y2="32.8"/>
<line fill="none" stroke="#002B49" stroke-width="1.25" x1="793.6" y1="7.8" x2="793.6" y2="32.8"/>
<line fill="none" stroke="#002B49" stroke-width="1.25" x1="552.3" y1="7.8" x2="552.3" y2="32.8"/>
<line fill="none" stroke="#002B49" stroke-width="1.25" x1="914.3" y1="7.8" x2="914.3" y2="32.8"/>
<line fill="none" stroke="#002B49" stroke-width="1.25" x1="439.2" y1="7.8" x2="439.2" y2="32.8"/>
<line fill="none" stroke="#002B49" stroke-width="1.25" x1="733.3" y1="7.8" x2="733.3" y2="32.8"/>
<line fill="none" stroke="#002B49" stroke-width="1.25" x1="431.7" y1="7.8" x2="431.7" y2="32.8"/>
<line fill="none" stroke="#002B49" stroke-width="1.25" x1="854" y1="7.8" x2="854" y2="32.8"/>
<line fill="none" stroke="#002B49" stroke-width="1.25" x1="642.8" y1="7.8" x2="642.8" y2="32.8"/>
<line fill="none" stroke="#002B49" stroke-width="1.25" x1="974.6" y1="7.8" x2="974.6" y2="32.8"/>
<line fill="none" stroke="#002B49" stroke-width="1.25" x1="378.9" y1="7.8" x2="378.9" y2="32.8"/>
<line fill="none" stroke="#002B49" stroke-width="1.25" x1="703.1" y1="7.8" x2="703.1" y2="32.8"/>
<line fill="none" stroke="#002B49" stroke-width="1.25" x1="371.3" y1="7.8" x2="371.3" y2="32.8"/>
<line fill="none" stroke="#002B49" stroke-width="1.25" x1="823.8" y1="7.8" x2="823.8" y2="32.8"/>
<line fill="none" stroke="#002B49" stroke-width="1.25" x1="612.7" y1="7.8" x2="612.7" y2="32.8"/>
<line fill="none" stroke="#002B49" stroke-width="1.25" x1="944.5" y1="7.8" x2="944.5" y2="32.8"/>
<line fill="none" stroke="#002B49" stroke-width="1.25" x1="499.5" y1="7.8" x2="499.5" y2="32.8"/>
<line fill="none" stroke="#002B49" stroke-width="1.25" x1="763.5" y1="7.8" x2="763.5" y2="32.8"/>
<line fill="none" stroke="#002B49" stroke-width="1.25" x1="492" y1="7.8" x2="492" y2="32.8"/>
<line fill="none" stroke="#002B49" stroke-width="1.25" x1="884.1" y1="7.8" x2="884.1" y2="32.8"/>
<line fill="none" stroke="#002B49" stroke-width="1.25" x1="356.2" y1="7.8" x2="356.2" y2="32.8"/>
<line fill="none" stroke="#002B49" stroke-width="1.25" x1="688.1" y1="7.8" x2="688.1" y2="32.8"/>
<line fill="none" stroke="#002B49" stroke-width="1.25" x1="590" y1="7.8" x2="590" y2="32.8"/>
<line fill="none" stroke="#002B49" stroke-width="1.25" x1="808.7" y1="7.8" x2="808.7" y2="32.8"/>
<line fill="none" stroke="#002B49" stroke-width="1.25" x1="582.5" y1="7.8" x2="582.5" y2="32.8"/>
<line fill="none" stroke="#002B49" stroke-width="1.25" x1="929.4" y1="7.8" x2="929.4" y2="32.8"/>
<line fill="none" stroke="#002B49" stroke-width="1.25" x1="469.4" y1="7.8" x2="469.4" y2="32.8"/>
<line fill="none" stroke="#002B49" stroke-width="1.25" x1="748.4" y1="7.8" x2="748.4" y2="32.8"/>
<line fill="none" stroke="#002B49" stroke-width="1.25" x1="461.8" y1="7.8" x2="461.8" y2="32.8"/>
<line fill="none" stroke="#002B49" stroke-width="1.25" x1="869.1" y1="7.8" x2="869.1" y2="32.8"/>
<line fill="none" stroke="#002B49" stroke-width="1.25" x1="409" y1="7.8" x2="409" y2="32.8"/>
<line fill="none" stroke="#002B49" stroke-width="1.25" x1="718.2" y1="7.8" x2="718.2" y2="32.8"/>
<line fill="none" stroke="#002B49" stroke-width="1.25" x1="401.5" y1="7.8" x2="401.5" y2="32.8"/>
<line fill="none" stroke="#002B49" stroke-width="1.25" x1="838.9" y1="7.8" x2="838.9" y2="32.8"/>
<line fill="none" stroke="#002B49" stroke-width="1.25" x1="627.7" y1="7.8" x2="627.7" y2="32.8"/>
<line fill="none" stroke="#002B49" stroke-width="1.25" x1="959.6" y1="7.8" x2="959.6" y2="32.8"/>
<line fill="none" stroke="#002B49" stroke-width="1.25" x1="529.7" y1="7.8" x2="529.7" y2="32.8"/>
<line fill="none" stroke="#002B49" stroke-width="1.25" x1="778.6" y1="7.8" x2="778.6" y2="32.8"/>
<line fill="none" stroke="#002B49" stroke-width="1.25" x1="522.2" y1="7.8" x2="522.2" y2="32.8"/>
<line fill="none" stroke="#002B49" stroke-width="1.875" x1="324.6" y1="0" x2="324.6" y2="31.2"/>
<line fill="none" stroke="#002B49" stroke-width="1.25" x1="0.6" y1="6.1" x2="0.6" y2="31.1"/>
<line fill="none" stroke="#002B49" stroke-width="1.25" x1="211.8" y1="6.1" x2="211.8" y2="31.1"/>
<line fill="none" stroke="#002B49" stroke-width="1.25" x1="204.2" y1="6.1" x2="204.2" y2="31.1"/>
<line fill="none" stroke="#002B49" stroke-width="1.25" x1="91.1" y1="6.1" x2="91.1" y2="31.1"/>
<line fill="none" stroke="#002B49" stroke-width="1.25" x1="83.6" y1="6.1" x2="83.6" y2="31.1"/>
<line fill="none" stroke="#002B49" stroke-width="1.25" x1="302.3" y1="6.1" x2="302.3" y2="31.1"/>
<line fill="none" stroke="#002B49" stroke-width="1.25" x1="30.8" y1="6.1" x2="30.8" y2="31.1"/>
<line fill="none" stroke="#002B49" stroke-width="1.25" x1="272.1" y1="6.1" x2="272.1" y2="31.1"/>
<line fill="none" stroke="#002B49" stroke-width="1.25" x1="264.6" y1="6.1" x2="264.6" y2="31.1"/>
<line fill="none" stroke="#002B49" stroke-width="1.25" x1="151.5" y1="6.1" x2="151.5" y2="31.1"/>
<line fill="none" stroke="#002B49" stroke-width="1.25" x1="143.9" y1="6.1" x2="143.9" y2="31.1"/>
<line fill="none" stroke="#002B49" stroke-width="1.25" x1="15.7" y1="6.1" x2="15.7" y2="31.1"/>
<line fill="none" stroke="#002B49" stroke-width="1.25" x1="242" y1="6.1" x2="242" y2="31.1"/>
<line fill="none" stroke="#002B49" stroke-width="1.25" x1="234.4" y1="6.1" x2="234.4" y2="31.1"/>
<line fill="none" stroke="#002B49" stroke-width="1.25" x1="121.3" y1="6.1" x2="121.3" y2="31.1"/>
<line fill="none" stroke="#002B49" stroke-width="1.25" x1="113.7" y1="6.1" x2="113.7" y2="31.1"/>
<line fill="none" stroke="#002B49" stroke-width="1.25" x1="317.4" y1="6.1" x2="317.4" y2="31.1"/>
<line fill="none" stroke="#002B49" stroke-width="1.25" x1="61" y1="6.1" x2="61" y2="31.1"/>
<line fill="none" stroke="#002B49" stroke-width="1.25" x1="53.4" y1="6.1" x2="53.4" y2="31.1"/>
<line fill="none" stroke="#002B49" stroke-width="1.25" x1="287.2" y1="6.1" x2="287.2" y2="31.1"/>
<line fill="none" stroke="#002B49" stroke-width="1.25" x1="181.6" y1="6.1" x2="181.6" y2="31.1"/>
<line fill="none" stroke="#002B49" stroke-width="1.25" x1="174.1" y1="6.1" x2="174.1" y2="31.1"/>
<line fill="none" stroke="#002B49" stroke-width="1.25" x1="8.2" y1="6.1" x2="8.2" y2="31.1"/>
<line fill="none" stroke="#002B49" stroke-width="1.25" x1="226.9" y1="6.1" x2="226.9" y2="31.1"/>
<line fill="none" stroke="#002B49" stroke-width="1.25" x1="219.3" y1="6.1" x2="219.3" y2="31.1"/>
<line fill="none" stroke="#002B49" stroke-width="1.25" x1="106.2" y1="6.1" x2="106.2" y2="31.1"/>
<line fill="none" stroke="#002B49" stroke-width="1.25" x1="98.7" y1="6.1" x2="98.7" y2="31.1"/>
<line fill="none" stroke="#002B49" stroke-width="1.25" x1="309.8" y1="6.1" x2="309.8" y2="31.1"/>
<line fill="none" stroke="#002B49" stroke-width="1.25" x1="45.9" y1="6.1" x2="45.9" y2="31.1"/>
<line fill="none" stroke="#002B49" stroke-width="1.25" x1="38.3" y1="6.1" x2="38.3" y2="31.1"/>
<line fill="none" stroke="#002B49" stroke-width="1.25" x1="279.7" y1="6.1" x2="279.7" y2="31.1"/>
<line fill="none" stroke="#002B49" stroke-width="1.25" x1="166.5" y1="6.1" x2="166.5" y2="31.1"/>
<line fill="none" stroke="#002B49" stroke-width="1.25" x1="159" y1="6.1" x2="159" y2="31.1"/>
<line fill="none" stroke="#002B49" stroke-width="1.25" x1="23.2" y1="6.1" x2="23.2" y2="31.1"/>
<line fill="none" stroke="#002B49" stroke-width="1.25" x1="257" y1="6.1" x2="257" y2="31.1"/>
<line fill="none" stroke="#002B49" stroke-width="1.25" x1="249.5" y1="6.1" x2="249.5" y2="31.1"/>
<line fill="none" stroke="#002B49" stroke-width="1.25" x1="136.4" y1="6.1" x2="136.4" y2="31.1"/>
<line fill="none" stroke="#002B49" stroke-width="1.25" x1="128.8" y1="6.1" x2="128.8" y2="31.1"/>
<line fill="none" stroke="#002B49" stroke-width="1.25" x1="76" y1="6.1" x2="76" y2="31.1"/>
<line fill="none" stroke="#002B49" stroke-width="1.25" x1="68.5" y1="6.1" x2="68.5" y2="31.1"/>
<line fill="none" stroke="#002B49" stroke-width="1.25" x1="294.7" y1="6.1" x2="294.7" y2="31.1"/>
<line fill="none" stroke="#002B49" stroke-width="1.25" x1="196.7" y1="6.1" x2="196.7" y2="31.1"/>
<line fill="none" stroke="#002B49" stroke-width="1.25" x1="189.2" y1="6.1" x2="189.2" y2="31.1"/>
<line fill="none" stroke="#002B49" stroke-width="1.25" x1="899.2" y1="7.8" x2="899.2" y2="32.8"/>
<g>
	<path fill="#FFB81C" d="M642.3,49.3v-1c1-0.1,1.6-0.2,2-0.5c0.4-0.2,0.7-0.7,0.8-1.5h1v10.4h-1.4v-7.4H642.3z"/>
	<path fill="#FFB81C" d="M651.3,54.1c0,0.7,0.3,1.2,0.8,1.5c0.3,0.1,0.6,0.2,0.9,0.2c0.6,0,1.2-0.3,1.6-0.8c0.4-0.5,0.8-1.6,0.9-3.2
		c-0.3,0.5-0.7,0.8-1.1,1c-0.4,0.2-0.9,0.3-1.4,0.3c-1,0-1.8-0.3-2.4-0.9c-0.6-0.6-0.9-1.4-0.9-2.4c0-1,0.3-1.8,0.9-2.5
		s1.4-1.1,2.6-1.1c1.5,0,2.6,0.7,3.2,2.1c0.3,0.8,0.5,1.7,0.5,2.8c0,1.3-0.2,2.4-0.6,3.4c-0.6,1.6-1.7,2.5-3.3,2.5
		c-1,0-1.8-0.3-2.3-0.8c-0.5-0.5-0.8-1.2-0.8-2H651.3z M654.7,51.5c0.4-0.3,0.6-0.9,0.6-1.8c0-0.8-0.2-1.3-0.6-1.7
		c-0.4-0.4-0.9-0.6-1.5-0.6c-0.6,0-1.2,0.2-1.5,0.6c-0.4,0.4-0.6,1-0.6,1.7c0,0.7,0.2,1.2,0.5,1.6s0.9,0.6,1.6,0.6
		C653.8,52,654.3,51.8,654.7,51.5z"/>
	<path fill="#FFB81C" d="M664.8,47.9c0.5,0.9,0.7,2,0.7,3.6c0,1.4-0.2,2.6-0.6,3.5c-0.6,1.3-1.6,2-3,2c-1.3,0-2.2-0.5-2.8-1.6
		c-0.5-0.9-0.8-2.1-0.8-3.7c0-1.2,0.2-2.2,0.5-3.1c0.6-1.6,1.6-2.4,3.1-2.4C663.2,46.2,664.2,46.8,664.8,47.9z M663.5,54.9
		c0.4-0.6,0.6-1.7,0.6-3.4c0-1.2-0.1-2.2-0.4-2.9c-0.3-0.8-0.9-1.2-1.7-1.2c-0.8,0-1.3,0.4-1.7,1.1c-0.4,0.7-0.5,1.8-0.5,3.2
		c0,1.1,0.1,1.9,0.3,2.6c0.4,1,1,1.5,1.8,1.5C662.5,55.8,663.1,55.5,663.5,54.9z"/>
	<path fill="#FFB81C" d="M674.2,47.9c0.5,0.9,0.7,2,0.7,3.6c0,1.4-0.2,2.6-0.6,3.5c-0.6,1.3-1.6,2-3,2c-1.3,0-2.2-0.5-2.8-1.6
		c-0.5-0.9-0.8-2.1-0.8-3.7c0-1.2,0.2-2.2,0.5-3.1c0.6-1.6,1.6-2.4,3.1-2.4C672.6,46.2,673.6,46.8,674.2,47.9z M672.8,54.9
		c0.4-0.6,0.6-1.7,0.6-3.4c0-1.2-0.1-2.2-0.4-2.9c-0.3-0.8-0.9-1.2-1.7-1.2c-0.8,0-1.3,0.4-1.7,1.1c-0.4,0.7-0.5,1.8-0.5,3.2
		c0,1.1,0.1,1.9,0.3,2.6c0.4,1,1,1.5,1.8,1.5C671.9,55.8,672.4,55.5,672.8,54.9z"/>
</g>
<g>
	<path fill="#FFB81C" d="M309.3,49.3v-1c1-0.1,1.6-0.2,2-0.5c0.4-0.2,0.7-0.7,0.8-1.5h1v10.4h-1.4v-7.4H309.3z"/>
	<path fill="#FFB81C" d="M317.8,50.5c-0.4-0.4-0.6-0.9-0.6-1.5c0-0.8,0.3-1.5,0.8-2s1.4-0.8,2.4-0.8c1,0,1.8,0.3,2.4,0.8
		c0.6,0.5,0.9,1.1,0.9,1.9c0,0.7-0.2,1.2-0.5,1.6c-0.2,0.2-0.5,0.5-0.9,0.7c0.4,0.2,0.8,0.4,1,0.7c0.5,0.5,0.7,1.1,0.7,1.9
		c0,0.9-0.3,1.7-0.9,2.3c-0.6,0.6-1.5,1-2.6,1c-1,0-1.9-0.3-2.6-0.8c-0.7-0.6-1.1-1.4-1.1-2.4c0-0.6,0.2-1.2,0.5-1.6
		c0.3-0.5,0.8-0.8,1.3-1C318.2,50.9,318,50.8,317.8,50.5z M322,55.3c0.4-0.3,0.6-0.8,0.6-1.5c0-0.7-0.2-1.2-0.6-1.5
		c-0.4-0.4-0.9-0.5-1.6-0.5c-0.6,0-1.1,0.2-1.5,0.5c-0.4,0.4-0.6,0.9-0.6,1.5c0,0.5,0.2,1,0.5,1.4c0.4,0.4,0.9,0.6,1.7,0.6
		C321.1,55.8,321.6,55.6,322,55.3z M321.8,50.1c0.3-0.3,0.5-0.7,0.5-1.2c0-0.4-0.2-0.8-0.5-1.1c-0.3-0.3-0.8-0.5-1.4-0.5
		c-0.6,0-1.1,0.2-1.4,0.5c-0.3,0.3-0.4,0.7-0.4,1.2c0,0.5,0.2,0.9,0.5,1.2c0.4,0.3,0.8,0.4,1.3,0.4C321,50.6,321.4,50.4,321.8,50.1z
		"/>
	<path fill="#FFB81C" d="M326.8,54.1c0,0.7,0.3,1.2,0.8,1.5c0.3,0.1,0.6,0.2,0.9,0.2c0.6,0,1.2-0.3,1.6-0.8c0.4-0.5,0.8-1.6,0.9-3.2
		c-0.3,0.5-0.7,0.8-1.1,1c-0.4,0.2-0.9,0.3-1.4,0.3c-1,0-1.8-0.3-2.4-0.9c-0.6-0.6-0.9-1.4-0.9-2.4c0-1,0.3-1.8,0.9-2.5
		s1.4-1.1,2.6-1.1c1.5,0,2.6,0.7,3.2,2.1c0.3,0.8,0.5,1.7,0.5,2.8c0,1.3-0.2,2.4-0.6,3.4c-0.6,1.6-1.7,2.5-3.3,2.5
		c-1,0-1.8-0.3-2.3-0.8c-0.5-0.5-0.8-1.2-0.8-2H326.8z M330.2,51.5c0.4-0.3,0.6-0.9,0.6-1.8c0-0.8-0.2-1.3-0.6-1.7
		c-0.4-0.4-0.9-0.6-1.5-0.6c-0.6,0-1.2,0.2-1.5,0.6c-0.4,0.4-0.6,1-0.6,1.7c0,0.7,0.2,1.2,0.5,1.6s0.9,0.6,1.6,0.6
		C329.3,52,329.8,51.8,330.2,51.5z"/>
	<path fill="#FFB81C" d="M341.2,47.9c0.5,0.9,0.7,2,0.7,3.6c0,1.4-0.2,2.6-0.6,3.5c-0.6,1.3-1.6,2-3,2c-1.3,0-2.2-0.5-2.8-1.6
		c-0.5-0.9-0.8-2.1-0.8-3.7c0-1.2,0.2-2.2,0.5-3.1c0.6-1.6,1.6-2.4,3.1-2.4C339.6,46.2,340.6,46.8,341.2,47.9z M339.9,54.9
		c0.4-0.6,0.6-1.7,0.6-3.4c0-1.2-0.1-2.2-0.4-2.9c-0.3-0.8-0.9-1.2-1.7-1.2c-0.8,0-1.3,0.4-1.7,1.1c-0.4,0.7-0.5,1.8-0.5,3.2
		c0,1.1,0.1,1.9,0.3,2.6c0.4,1,1,1.5,1.8,1.5C338.9,55.8,339.4,55.5,339.9,54.9z"/>
</g>
<g>
	<path fill="#FFB81C" d="M2965.7,48.7v-1c1-0.1,1.6-0.2,2-0.5c0.4-0.2,0.7-0.7,0.8-1.5h1v10.4h-1.4v-7.4H2965.7z"/>
	<path fill="#FFB81C" d="M2974.7,53.6c0,0.7,0.3,1.2,0.8,1.5c0.3,0.1,0.6,0.2,0.9,0.2c0.6,0,1.2-0.3,1.6-0.8
		c0.4-0.5,0.8-1.6,0.9-3.2c-0.3,0.5-0.7,0.8-1.1,1c-0.4,0.2-0.9,0.3-1.4,0.3c-1,0-1.8-0.3-2.4-0.9c-0.6-0.6-0.9-1.4-0.9-2.4
		c0-1,0.3-1.8,0.9-2.5s1.4-1.1,2.6-1.1c1.5,0,2.6,0.7,3.2,2.1c0.3,0.8,0.5,1.7,0.5,2.8c0,1.3-0.2,2.4-0.6,3.4
		c-0.6,1.6-1.7,2.5-3.3,2.5c-1,0-1.8-0.3-2.3-0.8c-0.5-0.5-0.8-1.2-0.8-2H2974.7z M2978.2,50.9c0.4-0.3,0.6-0.9,0.6-1.8
		c0-0.8-0.2-1.3-0.6-1.7c-0.4-0.4-0.9-0.6-1.5-0.6c-0.6,0-1.2,0.2-1.5,0.6c-0.4,0.4-0.6,1-0.6,1.7c0,0.7,0.2,1.2,0.5,1.6
		s0.9,0.6,1.6,0.6C2977.3,51.4,2977.7,51.2,2978.2,50.9z"/>
	<path fill="#FFB81C" d="M2990,45.8V47c-0.3,0.3-0.8,0.9-1.3,1.7c-0.6,0.8-1.1,1.7-1.5,2.6c-0.4,0.9-0.7,1.7-1,2.5
		c-0.1,0.5-0.3,1.3-0.5,2.3h-1.5c0.3-2,1.1-4,2.2-6c0.7-1.2,1.4-2.2,2.1-3h-5.8v-1.3H2990z"/>
	<path fill="#FFB81C" d="M2998.7,47.3c0.5,0.9,0.7,2,0.7,3.6c0,1.4-0.2,2.6-0.6,3.5c-0.6,1.3-1.6,2-3,2c-1.3,0-2.2-0.5-2.8-1.6
		c-0.5-0.9-0.8-2.1-0.8-3.7c0-1.2,0.2-2.2,0.5-3.1c0.6-1.6,1.6-2.4,3.1-2.4C2997.1,45.6,2998.1,46.2,2998.7,47.3z M2997.3,54.3
		c0.4-0.6,0.6-1.7,0.6-3.4c0-1.2-0.1-2.2-0.4-2.9c-0.3-0.8-0.9-1.2-1.7-1.2c-0.8,0-1.3,0.4-1.7,1.1c-0.4,0.7-0.5,1.8-0.5,3.2
		c0,1.1,0.1,1.9,0.3,2.6c0.4,1,1,1.5,1.8,1.5C2996.4,55.2,2996.9,54.9,2997.3,54.3z"/>
</g>
<g>
	<path fill="#FFB81C" d="M3296.5,48.7v-1c1-0.1,1.6-0.2,2-0.5c0.4-0.2,0.7-0.7,0.8-1.5h1v10.4h-1.4v-7.4H3296.5z"/>
	<path fill="#FFB81C" d="M3306.4,53.6c0,0.7,0.3,1.2,0.8,1.5c0.3,0.1,0.6,0.2,0.9,0.2c0.6,0,1.2-0.3,1.6-0.8
		c0.4-0.5,0.8-1.6,0.9-3.2c-0.3,0.5-0.7,0.8-1.1,1c-0.4,0.2-0.9,0.3-1.4,0.3c-1,0-1.8-0.3-2.4-0.9c-0.6-0.6-0.9-1.4-0.9-2.4
		c0-1,0.3-1.8,0.9-2.5s1.4-1.1,2.6-1.1c1.5,0,2.6,0.7,3.2,2.1c0.3,0.8,0.5,1.7,0.5,2.8c0,1.3-0.2,2.4-0.6,3.4
		c-0.6,1.6-1.7,2.5-3.3,2.5c-1,0-1.8-0.3-2.3-0.8c-0.5-0.5-0.8-1.2-0.8-2H3306.4z M3309.8,50.9c0.4-0.3,0.6-0.9,0.6-1.8
		c0-0.8-0.2-1.3-0.6-1.7c-0.4-0.4-0.9-0.6-1.5-0.6c-0.6,0-1.2,0.2-1.5,0.6c-0.4,0.4-0.6,1-0.6,1.7c0,0.7,0.2,1.2,0.5,1.6
		s0.9,0.6,1.6,0.6C3308.9,51.4,3309.4,51.2,3309.8,50.9z"/>
	<path fill="#FFB81C" d="M3315.1,50c-0.4-0.4-0.6-0.9-0.6-1.5c0-0.8,0.3-1.5,0.8-2s1.4-0.8,2.4-0.8c1,0,1.8,0.3,2.4,0.8
		c0.6,0.5,0.9,1.1,0.9,1.9c0,0.7-0.2,1.2-0.5,1.6c-0.2,0.2-0.5,0.5-0.9,0.7c0.4,0.2,0.8,0.4,1,0.7c0.5,0.5,0.7,1.1,0.7,1.9
		c0,0.9-0.3,1.7-0.9,2.3c-0.6,0.6-1.5,1-2.6,1c-1,0-1.9-0.3-2.6-0.8c-0.7-0.6-1.1-1.4-1.1-2.4c0-0.6,0.2-1.2,0.5-1.6
		c0.3-0.5,0.8-0.8,1.3-1C3315.6,50.4,3315.3,50.2,3315.1,50z M3319.4,54.7c0.4-0.3,0.6-0.8,0.6-1.5c0-0.7-0.2-1.2-0.6-1.5
		c-0.4-0.4-0.9-0.5-1.6-0.5c-0.6,0-1.1,0.2-1.5,0.5c-0.4,0.4-0.6,0.9-0.6,1.5c0,0.5,0.2,1,0.5,1.4c0.4,0.4,0.9,0.6,1.7,0.6
		C3318.5,55.2,3319,55,3319.4,54.7z M3319.1,49.5c0.3-0.3,0.5-0.7,0.5-1.2c0-0.4-0.2-0.8-0.5-1.1c-0.3-0.3-0.8-0.5-1.4-0.5
		c-0.6,0-1.1,0.2-1.4,0.5c-0.3,0.3-0.4,0.7-0.4,1.2c0,0.5,0.2,0.9,0.5,1.2c0.4,0.3,0.8,0.4,1.3,0.4
		C3318.4,50,3318.8,49.9,3319.1,49.5z"/>
	<path fill="#FFB81C" d="M3330.1,47.3c0.5,0.9,0.7,2,0.7,3.6c0,1.4-0.2,2.6-0.6,3.5c-0.6,1.3-1.6,2-3,2c-1.3,0-2.2-0.5-2.8-1.6
		c-0.5-0.9-0.8-2.1-0.8-3.7c0-1.2,0.2-2.2,0.5-3.1c0.6-1.6,1.6-2.4,3.1-2.4C3328.5,45.6,3329.5,46.2,3330.1,47.3z M3328.7,54.3
		c0.4-0.6,0.6-1.7,0.6-3.4c0-1.2-0.1-2.2-0.4-2.9c-0.3-0.8-0.9-1.2-1.7-1.2c-0.8,0-1.3,0.4-1.7,1.1c-0.4,0.7-0.5,1.8-0.5,3.2
		c0,1.1,0.1,1.9,0.3,2.6c0.4,1,1,1.5,1.8,1.5C3327.8,55.2,3328.3,54.9,3328.7,54.3z"/>
</g>
<g>
	<path fill="#FFB81C" d="M3629.9,48.7v-1c1-0.1,1.6-0.2,2-0.5c0.4-0.2,0.7-0.7,0.8-1.5h1v10.4h-1.4v-7.4H3629.9z"/>
	<path fill="#FFB81C" d="M3639.8,53.6c0,0.7,0.3,1.2,0.8,1.5c0.3,0.1,0.6,0.2,0.9,0.2c0.6,0,1.2-0.3,1.6-0.8
		c0.4-0.5,0.8-1.6,0.9-3.2c-0.3,0.5-0.7,0.8-1.1,1c-0.4,0.2-0.9,0.3-1.4,0.3c-1,0-1.8-0.3-2.4-0.9c-0.6-0.6-0.9-1.4-0.9-2.4
		c0-1,0.3-1.8,0.9-2.5s1.4-1.1,2.6-1.1c1.5,0,2.6,0.7,3.2,2.1c0.3,0.8,0.5,1.7,0.5,2.8c0,1.3-0.2,2.4-0.6,3.4
		c-0.6,1.6-1.7,2.5-3.3,2.5c-1,0-1.8-0.3-2.3-0.8c-0.5-0.5-0.8-1.2-0.8-2H3639.8z M3643.3,50.9c0.4-0.3,0.6-0.9,0.6-1.8
		c0-0.8-0.2-1.3-0.6-1.7c-0.4-0.4-0.9-0.6-1.5-0.6c-0.6,0-1.2,0.2-1.5,0.6c-0.4,0.4-0.6,1-0.6,1.7c0,0.7,0.2,1.2,0.5,1.6
		s0.9,0.6,1.6,0.6C3642.3,51.4,3642.8,51.2,3643.3,50.9z"/>
	<path fill="#FFB81C" d="M3649.2,53.6c0,0.7,0.3,1.2,0.8,1.5c0.3,0.1,0.6,0.2,0.9,0.2c0.6,0,1.2-0.3,1.6-0.8
		c0.4-0.5,0.8-1.6,0.9-3.2c-0.3,0.5-0.7,0.8-1.1,1c-0.4,0.2-0.9,0.3-1.4,0.3c-1,0-1.8-0.3-2.4-0.9c-0.6-0.6-0.9-1.4-0.9-2.4
		c0-1,0.3-1.8,0.9-2.5s1.4-1.1,2.6-1.1c1.5,0,2.6,0.7,3.2,2.1c0.3,0.8,0.5,1.7,0.5,2.8c0,1.3-0.2,2.4-0.6,3.4
		c-0.6,1.6-1.7,2.5-3.3,2.5c-1,0-1.8-0.3-2.3-0.8c-0.5-0.5-0.8-1.2-0.8-2H3649.2z M3652.6,50.9c0.4-0.3,0.6-0.9,0.6-1.8
		c0-0.8-0.2-1.3-0.6-1.7c-0.4-0.4-0.9-0.6-1.5-0.6c-0.6,0-1.2,0.2-1.5,0.6c-0.4,0.4-0.6,1-0.6,1.7c0,0.7,0.2,1.2,0.5,1.6
		s0.9,0.6,1.6,0.6C3651.7,51.4,3652.2,51.2,3652.6,50.9z"/>
	<path fill="#FFB81C" d="M3663.5,47.3c0.5,0.9,0.7,2,0.7,3.6c0,1.4-0.2,2.6-0.6,3.5c-0.6,1.3-1.6,2-3,2c-1.3,0-2.2-0.5-2.8-1.6
		c-0.5-0.9-0.8-2.1-0.8-3.7c0-1.2,0.2-2.2,0.5-3.1c0.6-1.6,1.6-2.4,3.1-2.4C3661.9,45.6,3662.9,46.2,3663.5,47.3z M3662.2,54.3
		c0.4-0.6,0.6-1.7,0.6-3.4c0-1.2-0.1-2.2-0.4-2.9c-0.3-0.8-0.9-1.2-1.7-1.2c-0.8,0-1.3,0.4-1.7,1.1c-0.4,0.7-0.5,1.8-0.5,3.2
		c0,1.1,0.1,1.9,0.3,2.6c0.4,1,1,1.5,1.8,1.5C3661.2,55.2,3661.8,54.9,3662.2,54.3z"/>
</g>
</svg>
