<?xml version="1.0" encoding="iso-8859-1"?>
<!-- Generator: Adobe Illustrator 18.1.1, SVG Export Plug-In . SVG Version: 6.00 Build 0)  -->
<!DOCTYPE svg PUBLIC "-//W3C//DTD SVG 1.1//EN" "http://www.w3.org/Graphics/SVG/1.1/DTD/svg11.dtd">
<svg version="1.1" id="Layer_1" xmlns="http://www.w3.org/2000/svg" xmlns:xlink="http://www.w3.org/1999/xlink" x="0px" y="0px"
	 viewBox="0 0 32 32" enable-background="new 0 0 32 32" xml:space="preserve">
<rect x="2.705" y="3.393" fill="none" width="26.462" height="25.986"/>
<g>
	<defs>
		<rect id="SVGID_11_" x="0" y="2" width="31.513" height="27.799"/>
	</defs>
	<clipPath id="SVGID_2_">
		<use xlink:href="#SVGID_11_"  overflow="visible"/>
	</clipPath>
	<path clip-path="url(#SVGID_2_)" fill="#FFB81C" d="M13.637,5.584C13.608,3.603,11.99,2,10.003,2H3.637C1.632,2,0,3.632,0,5.637
		v3.216c0,1.722,1.204,3.166,2.815,3.539v2.646c0,0.644,0.524,1.169,1.168,1.169c0.348,0,0.656-0.155,0.871-0.396h0.001l2.021-2.396
		v-0.707C6.875,8.897,9.876,5.783,13.637,5.584"/>
	<path clip-path="url(#SVGID_2_)" fill="#FFB81C" d="M25.668,6.887h-11.66c-0.124,0-0.246-0.013-0.367-0.006
		c-3.046,0.197-5.466,2.731-5.466,5.826v5.36c0,3.223,2.622,5.845,5.845,5.845l0.99,0.024h3.64l4.472,5.303l0.001-0.001
		c0.293,0.339,0.721,0.559,1.202,0.559c0.88,0,1.594-0.716,1.594-1.595c0-0.01-0.002-0.019-0.002-0.029v-4.25
		c3.107-0.132,5.596-2.694,5.596-5.833v-5.359C31.514,9.509,28.891,6.887,25.668,6.887"/>
</g>
</svg>
