<?xml version="1.0" encoding="iso-8859-1"?>
<!-- Generator: Adobe Illustrator 18.1.1, SVG Export Plug-In . SVG Version: 6.00 Build 0)  -->
<!DOCTYPE svg PUBLIC "-//W3C//DTD SVG 1.1//EN" "http://www.w3.org/Graphics/SVG/1.1/DTD/svg11.dtd">
<svg version="1.1" id="Layer_1" xmlns="http://www.w3.org/2000/svg" xmlns:xlink="http://www.w3.org/1999/xlink" x="0px" y="0px"
	 viewBox="0 0 32 32" enable-background="new 0 0 32 32" xml:space="preserve">
<g>
	<defs>
		<rect id="SVGID_13_" x="0.261" y="0.261" width="31.478" height="31.477"/>
	</defs>
	<clipPath id="SVGID_2_">
		<use xlink:href="#SVGID_13_"  overflow="visible"/>
	</clipPath>
	<path clip-path="url(#SVGID_2_)" fill="#002B49" d="M27.804,10.098h-1.968v1.968c0,3.033-2.868,5.901-5.901,5.901h-9.022
		L8.13,20.749v1.153c0,1.968,1.968,3.935,3.935,3.935h9.836l5.903,5.902v-5.902c1.967,0,3.935-1.968,3.935-3.935v-7.869
		C31.739,12.065,29.771,10.098,27.804,10.098"/>
	<path clip-path="url(#SVGID_2_)" fill="#002B49" d="M19.934,0.261H4.196c-1.968,0-3.935,1.967-3.935,3.935v7.869
		C0.261,14.033,2.227,16,4.196,16c0.361,0-0.905,0,0,0v5.902L10.098,16h9.836c1.967,0,3.935-1.968,3.935-3.935V4.196
		C23.869,2.228,21.901,0.261,19.934,0.261"/>
</g>
</svg>
