<?xml version="1.0" encoding="iso-8859-1"?>
<!-- Generator: Adobe Illustrator 18.1.1, SVG Export Plug-In . SVG Version: 6.00 Build 0)  -->
<!DOCTYPE svg PUBLIC "-//W3C//DTD SVG 1.1//EN" "http://www.w3.org/Graphics/SVG/1.1/DTD/svg11.dtd">
<svg version="1.1" id="Layer_1" xmlns="http://www.w3.org/2000/svg" xmlns:xlink="http://www.w3.org/1999/xlink" x="0px" y="0px"
	 viewBox="0 0 845.701 241.309" enable-background="new 0 0 845.701 241.309" xml:space="preserve">
<g>
	<defs>
		<rect id="SVGID_1_" width="845.701" height="241.309"/>
	</defs>
	<clipPath id="SVGID_2_">
		<use xlink:href="#SVGID_1_"  overflow="visible"/>
	</clipPath>
	<path clip-path="url(#SVGID_2_)" fill="#002B49" d="M554.781,17.751C554.634,7.94,546.622,0,536.78,0h-31.536
		c-9.932,0-18.016,8.084-18.016,18.016v15.929c0,8.529,5.966,15.682,13.942,17.532v13.106c0,3.191,2.597,5.791,5.786,5.791
		c1.722,0,3.25-0.77,4.313-1.962h0.003l10.012-11.867v-3.5C521.281,34.166,536.147,18.739,554.781,17.751"/>
	<path clip-path="url(#SVGID_2_)" fill="#002B49" d="M614.375,24.209h-57.76c-0.612,0-1.217-0.064-1.819-0.028
		c-15.09,0.975-27.079,13.53-27.079,28.861v26.549c0,15.965,12.99,28.954,28.955,28.954l4.905,0.121h18.032l22.152,26.268
		l0.005-0.003c1.452,1.678,3.57,2.769,5.956,2.769c4.357,0,7.896-3.546,7.896-7.901c0-0.051-0.01-0.095-0.01-0.141v-21.054
		c15.388-0.653,27.719-13.347,27.719-28.895V53.163C643.329,37.199,630.34,24.209,614.375,24.209"/>
	<path clip-path="url(#SVGID_2_)" fill="#002B49" d="M129.836,89.856v26.247c0,3.551-2.735,3.049-3.647,2.319
		c-1.123-0.897-31.364-28.566-31.364-28.566H56.896c-7.208,0-8.753-1.545-8.753-8.75V20.912c0-8.46,1.459-9.802,8.753-9.802h93.363
		c7.178,0,8.753,1.459,8.753,8.75v61.246c0,7.085-1.225,8.75-8.753,8.75H129.836z"/>
	<path clip-path="url(#SVGID_2_)" fill="#002B49" d="M65.216,108.196H30.997c-16.846,0-30.998,14.262-30.998,31.105v0.892
		c0,14.058,10.046,25.864,20.091,29.396v1.103v11.744c0,2.32,3.315,4.186,5.613,4.186c1.172,0,2.954-1.041,3.705-1.811
		l15.393-15.228h1.157h19.258c16.846,0,28.538-12.544,28.538-29.39v-0.892C93.754,122.458,82.062,108.196,65.216,108.196"/>
	<path clip-path="url(#SVGID_2_)" fill="#002B49" d="M667.789,41.459c2.494-19.867,18.53-35.903,38.397-38.397
		c29.132-3.653,53.631,20.846,49.979,49.978c-0.98,7.484-3.831,14.433-8.107,20.313l3.652,11.848
		c0.446,1.515-0.98,2.851-2.494,2.317l-11.225-4.098c-5.88,4.276-12.74,7.127-20.223,8.018
		C688.636,95.09,664.136,70.591,667.789,41.459"/>
	<path clip-path="url(#SVGID_2_)" fill="#002B49" d="M777.599,101.25h2.933c32.273,0,60.145,20.762,60.145,46.581
		c0,14.809-8.703,27.679-22.193,36.297l0.014,0.11l8.716,23.284c0.95,2.54-0.127,3.4-2.393,1.914l-25.674-16.84
		c-5.507,1.346-14.12,2.304-20.082,2.304h-1.466c-32.274,0-60.146-21.003-60.146-46.825
		C717.453,122.254,745.325,101.25,777.599,101.25"/>
	<path clip-path="url(#SVGID_2_)" fill="#002B49" d="M289.866,46.37h-97.177c-7.66,0-13.877,6.211-13.877,13.872v52.554
		c0,7.655,6.213,13.873,13.877,13.873h20.808l-0.486,15.592c-0.238,7.657,4.296,9.893,10.129,4.984c0,0-10.495,9.003,24.151-20.576
		h42.575c7.66,0,13.877-6.211,13.877-13.873V60.243C303.743,52.588,297.53,46.37,289.866,46.37"/>
	<path clip-path="url(#SVGID_2_)" fill="#002B49" d="M456.643,133.881h-9.771v9.767c0,15.057-14.236,29.296-29.296,29.296h-44.787
		l-13.811,13.81v5.722c0,9.767,9.768,19.534,19.535,19.534h48.828l29.302,29.299V212.01c9.764,0,19.534-9.767,19.534-19.534v-39.063
		C476.177,143.645,466.407,133.881,456.643,133.881"/>
	<path clip-path="url(#SVGID_2_)" fill="#002B49" d="M417.576,85.05h-78.127c-9.77,0-19.534,9.764-19.534,19.534v39.064
		c0,9.767,9.761,19.531,19.531,19.531c1.793,0-4.495,0,0,0v29.297l29.299-29.297h48.831c9.764,0,19.535-9.767,19.535-19.534v-39.063
		C437.108,94.811,427.337,85.05,417.576,85.05"/>
	<path clip-path="url(#SVGID_2_)" fill="#002B49" d="M316.911,191.807c0,9.887-4.667,18.68-11.916,24.304
		c-5.198,4.033-27.093,19.239-34.188,19.239l1.547-12.806H255.78c-16.982,0-30.736-13.762-30.736-30.737v-1.435
		c0-16.978,13.754-30.736,30.736-30.736h30.396c16.973,0,30.735,13.758,30.735,30.736V191.807z"/>
	<path clip-path="url(#SVGID_2_)" fill="#002B49" d="M554.703,123.75h-35.343c-17.398,0-32.014,14.73-32.014,32.126v0.921
		c0,14.519,10.375,26.713,20.75,30.361v1.14v12.129c0,2.396,3.423,4.323,5.797,4.323c1.21,0,3.051-1.076,3.827-1.87l15.898-15.728
		h1.195h19.89c17.399,0,29.475-12.956,29.475-30.355v-0.921C584.177,138.48,572.102,123.75,554.703,123.75"/>
	<path clip-path="url(#SVGID_2_)" fill="#002B49" d="M682.941,157.762v14.786c0,2.001-1.541,1.718-2.055,1.307
		c-0.632-0.505-17.669-16.093-17.669-16.093H641.85c-4.061,0-4.931-0.87-4.931-4.929v-33.911c0-4.766,0.821-5.522,4.931-5.522
		h52.597c4.043,0,4.931,0.822,4.931,4.929v34.504c0,3.991-0.691,4.929-4.931,4.929H682.941z"/>
	<path clip-path="url(#SVGID_2_)" fill="#002B49" d="M170.3,184.762v14.786c0,2.001-1.541,1.718-2.054,1.307
		c-0.633-0.505-17.67-16.093-17.67-16.093h-21.367c-4.061,0-4.931-0.87-4.931-4.929v-33.911c0-4.766,0.822-5.522,4.931-5.522h52.597
		c4.043,0,4.931,0.822,4.931,4.929v34.504c0,3.991-0.691,4.929-4.931,4.929H170.3z"/>
	<path clip-path="url(#SVGID_2_)" fill="#002B49" d="M845.701,58.695c0,6.837-3.227,12.917-8.24,16.806
		c-3.594,2.789-18.734,13.303-23.64,13.303l1.07-8.855H803.43c-11.742,0-21.253-9.516-21.253-21.254v-0.992
		c0-11.74,9.511-21.254,21.253-21.254h21.018c11.737,0,21.253,9.514,21.253,21.254V58.695z"/>
</g>
<g>
</g>
<g>
</g>
<g>
</g>
<g>
</g>
<g>
</g>
<g>
</g>
<g>
</g>
<g>
</g>
<g>
</g>
<g>
</g>
<g>
</g>
<g>
</g>
<g>
</g>
<g>
</g>
<g>
</g>
</svg>
